<svg width="43" height="42" viewBox="0 0 43 42" fill="none" xmlns="http://www.w3.org/2000/svg">
<mask id="mask0_1953_2261" style="mask-type:alpha" maskUnits="userSpaceOnUse" x="0" y="0" width="43" height="42">
<rect x="0.818359" width="41.3636" height="41.3636" fill="#D9D9D9"/>
</mask>
<g mask="url(#mask0_1953_2261)">
<path d="M19.7762 36.1931V22.4053H5.98828V18.9583H19.7762V5.17041H23.2231V18.9583H37.011V22.4053H23.2231V36.1931H19.7762Z" fill="#394C7C"/>
<path d="M19.7762 36.1931V22.4053H5.98828V18.9583H19.7762V5.17041H23.2231V18.9583H37.011V22.4053H23.2231V36.1931H19.7762Z" fill="black" fill-opacity="0.2"/>
<path d="M19.7762 36.1931V22.4053H5.98828V18.9583H19.7762V5.17041H23.2231V18.9583H37.011V22.4053H23.2231V36.1931H19.7762Z" fill="black" fill-opacity="0.2"/>
<path d="M19.7762 36.1931V22.4053H5.98828V18.9583H19.7762V5.17041H23.2231V18.9583H37.011V22.4053H23.2231V36.1931H19.7762Z" fill="black" fill-opacity="0.2"/>
<path d="M19.7762 36.1931V22.4053H5.98828V18.9583H19.7762V5.17041H23.2231V18.9583H37.011V22.4053H23.2231V36.1931H19.7762Z" fill="black" fill-opacity="0.2"/>
<path d="M19.7762 36.1931V22.4053H5.98828V18.9583H19.7762V5.17041H23.2231V18.9583H37.011V22.4053H23.2231V36.1931H19.7762Z" fill="black" fill-opacity="0.2"/>
</g>
</svg>
