<svg width="50" height="48" viewBox="0 0 50 48" fill="none" xmlns="http://www.w3.org/2000/svg">
<path d="M45.4059 42.7519L5.64804 3.82024L3.06741 6.32623L13.5512 16.587L12.9262 18.1656H15.1641L18.1883 21.1254H4.86175V24.0853H21.2125L28.0471 30.735C27.8052 31.2086 27.6439 31.6822 27.5229 32.1755C25.6076 31.3664 23.8334 31.5835 22.523 32.1557C21.6964 28.6434 18.5512 26.0585 14.8214 26.0585C10.4464 26.0585 6.87787 29.5905 6.87787 33.9514C6.87787 38.3122 10.4464 41.8443 14.8214 41.8443C18.9746 41.8443 22.3617 38.6476 22.6843 34.5828C23.3697 34.1092 25.1641 33.2213 27.3617 34.6223C27.7246 38.6674 31.0713 41.8443 35.2245 41.8443C36.4342 41.8443 37.5632 41.568 38.5713 41.0747L42.8455 45.2579L45.4059 42.7519ZM14.8214 39.5948C11.6762 39.5948 9.15609 37.0691 9.15609 33.9514C9.15609 30.8337 11.6964 28.308 14.8214 28.308C17.9665 28.308 20.4867 30.8337 20.4867 33.9514C20.4867 37.0691 17.9665 39.5948 14.8214 39.5948ZM35.2245 39.5948C32.0794 39.5948 29.5592 37.0691 29.5592 33.9514C29.5592 33.4383 29.6399 32.9648 29.781 32.4715L36.7971 39.3383C36.2931 39.4961 35.789 39.5948 35.2245 39.5948ZM45.1842 24.0853H31.4745L28.4504 21.1254H45.1842V24.0853ZM35.2245 26.0585C39.5995 26.0585 43.168 29.5905 43.168 33.9514C43.168 34.4447 43.1076 34.938 43.0269 35.3918L40.8293 33.241C40.6788 32.0027 40.1083 30.8496 39.2092 29.9661C38.3101 29.0825 37.1343 28.5195 35.8697 28.3671L33.6721 26.2361C34.1761 26.1177 34.7003 26.0585 35.2245 26.0585ZM25.4262 18.1656L16.394 9.28607L17.8254 5.6948C18.2286 4.68846 19.3577 4.13596 20.4262 4.43194L20.527 4.45167L25.023 5.91186L29.4987 4.45167C30.5673 4.11622 31.7165 4.62926 32.16 5.59614L32.2003 5.6948L37.1197 18.1656H25.4262Z" fill="#222D49"/>
<path d="M45.4059 42.7519L5.64804 3.82024L3.06741 6.32623L13.5512 16.587L12.9262 18.1656H15.1641L18.1883 21.1254H4.86175V24.0853H21.2125L28.0471 30.735C27.8052 31.2086 27.6439 31.6822 27.5229 32.1755C25.6076 31.3664 23.8334 31.5835 22.523 32.1557C21.6964 28.6434 18.5512 26.0585 14.8214 26.0585C10.4464 26.0585 6.87787 29.5905 6.87787 33.9514C6.87787 38.3122 10.4464 41.8443 14.8214 41.8443C18.9746 41.8443 22.3617 38.6476 22.6843 34.5828C23.3697 34.1092 25.1641 33.2213 27.3617 34.6223C27.7246 38.6674 31.0713 41.8443 35.2245 41.8443C36.4342 41.8443 37.5632 41.568 38.5713 41.0747L42.8455 45.2579L45.4059 42.7519ZM14.8214 39.5948C11.6762 39.5948 9.15609 37.0691 9.15609 33.9514C9.15609 30.8337 11.6964 28.308 14.8214 28.308C17.9665 28.308 20.4867 30.8337 20.4867 33.9514C20.4867 37.0691 17.9665 39.5948 14.8214 39.5948ZM35.2245 39.5948C32.0794 39.5948 29.5592 37.0691 29.5592 33.9514C29.5592 33.4383 29.6399 32.9648 29.781 32.4715L36.7971 39.3383C36.2931 39.4961 35.789 39.5948 35.2245 39.5948ZM45.1842 24.0853H31.4745L28.4504 21.1254H45.1842V24.0853ZM35.2245 26.0585C39.5995 26.0585 43.168 29.5905 43.168 33.9514C43.168 34.4447 43.1076 34.938 43.0269 35.3918L40.8293 33.241C40.6788 32.0027 40.1083 30.8496 39.2092 29.9661C38.3101 29.0825 37.1343 28.5195 35.8697 28.3671L33.6721 26.2361C34.1761 26.1177 34.7003 26.0585 35.2245 26.0585ZM25.4262 18.1656L16.394 9.28607L17.8254 5.6948C18.2286 4.68846 19.3577 4.13596 20.4262 4.43194L20.527 4.45167L25.023 5.91186L29.4987 4.45167C30.5673 4.11622 31.7165 4.62926 32.16 5.59614L32.2003 5.6948L37.1197 18.1656H25.4262Z" fill="black" fill-opacity="0.2"/>
<path d="M45.4059 42.7519L5.64804 3.82024L3.06741 6.32623L13.5512 16.587L12.9262 18.1656H15.1641L18.1883 21.1254H4.86175V24.0853H21.2125L28.0471 30.735C27.8052 31.2086 27.6439 31.6822 27.5229 32.1755C25.6076 31.3664 23.8334 31.5835 22.523 32.1557C21.6964 28.6434 18.5512 26.0585 14.8214 26.0585C10.4464 26.0585 6.87787 29.5905 6.87787 33.9514C6.87787 38.3122 10.4464 41.8443 14.8214 41.8443C18.9746 41.8443 22.3617 38.6476 22.6843 34.5828C23.3697 34.1092 25.1641 33.2213 27.3617 34.6223C27.7246 38.6674 31.0713 41.8443 35.2245 41.8443C36.4342 41.8443 37.5632 41.568 38.5713 41.0747L42.8455 45.2579L45.4059 42.7519ZM14.8214 39.5948C11.6762 39.5948 9.15609 37.0691 9.15609 33.9514C9.15609 30.8337 11.6964 28.308 14.8214 28.308C17.9665 28.308 20.4867 30.8337 20.4867 33.9514C20.4867 37.0691 17.9665 39.5948 14.8214 39.5948ZM35.2245 39.5948C32.0794 39.5948 29.5592 37.0691 29.5592 33.9514C29.5592 33.4383 29.6399 32.9648 29.781 32.4715L36.7971 39.3383C36.2931 39.4961 35.789 39.5948 35.2245 39.5948ZM45.1842 24.0853H31.4745L28.4504 21.1254H45.1842V24.0853ZM35.2245 26.0585C39.5995 26.0585 43.168 29.5905 43.168 33.9514C43.168 34.4447 43.1076 34.938 43.0269 35.3918L40.8293 33.241C40.6788 32.0027 40.1083 30.8496 39.2092 29.9661C38.3101 29.0825 37.1343 28.5195 35.8697 28.3671L33.6721 26.2361C34.1761 26.1177 34.7003 26.0585 35.2245 26.0585ZM25.4262 18.1656L16.394 9.28607L17.8254 5.6948C18.2286 4.68846 19.3577 4.13596 20.4262 4.43194L20.527 4.45167L25.023 5.91186L29.4987 4.45167C30.5673 4.11622 31.7165 4.62926 32.16 5.59614L32.2003 5.6948L37.1197 18.1656H25.4262Z" fill="black" fill-opacity="0.2"/>
<path d="M45.4059 42.7519L5.64804 3.82024L3.06741 6.32623L13.5512 16.587L12.9262 18.1656H15.1641L18.1883 21.1254H4.86175V24.0853H21.2125L28.0471 30.735C27.8052 31.2086 27.6439 31.6822 27.5229 32.1755C25.6076 31.3664 23.8334 31.5835 22.523 32.1557C21.6964 28.6434 18.5512 26.0585 14.8214 26.0585C10.4464 26.0585 6.87787 29.5905 6.87787 33.9514C6.87787 38.3122 10.4464 41.8443 14.8214 41.8443C18.9746 41.8443 22.3617 38.6476 22.6843 34.5828C23.3697 34.1092 25.1641 33.2213 27.3617 34.6223C27.7246 38.6674 31.0713 41.8443 35.2245 41.8443C36.4342 41.8443 37.5632 41.568 38.5713 41.0747L42.8455 45.2579L45.4059 42.7519ZM14.8214 39.5948C11.6762 39.5948 9.15609 37.0691 9.15609 33.9514C9.15609 30.8337 11.6964 28.308 14.8214 28.308C17.9665 28.308 20.4867 30.8337 20.4867 33.9514C20.4867 37.0691 17.9665 39.5948 14.8214 39.5948ZM35.2245 39.5948C32.0794 39.5948 29.5592 37.0691 29.5592 33.9514C29.5592 33.4383 29.6399 32.9648 29.781 32.4715L36.7971 39.3383C36.2931 39.4961 35.789 39.5948 35.2245 39.5948ZM45.1842 24.0853H31.4745L28.4504 21.1254H45.1842V24.0853ZM35.2245 26.0585C39.5995 26.0585 43.168 29.5905 43.168 33.9514C43.168 34.4447 43.1076 34.938 43.0269 35.3918L40.8293 33.241C40.6788 32.0027 40.1083 30.8496 39.2092 29.9661C38.3101 29.0825 37.1343 28.5195 35.8697 28.3671L33.6721 26.2361C34.1761 26.1177 34.7003 26.0585 35.2245 26.0585ZM25.4262 18.1656L16.394 9.28607L17.8254 5.6948C18.2286 4.68846 19.3577 4.13596 20.4262 4.43194L20.527 4.45167L25.023 5.91186L29.4987 4.45167C30.5673 4.11622 31.7165 4.62926 32.16 5.59614L32.2003 5.6948L37.1197 18.1656H25.4262Z" fill="black" fill-opacity="0.2"/>
<path d="M45.4059 42.7519L5.64804 3.82024L3.06741 6.32623L13.5512 16.587L12.9262 18.1656H15.1641L18.1883 21.1254H4.86175V24.0853H21.2125L28.0471 30.735C27.8052 31.2086 27.6439 31.6822 27.5229 32.1755C25.6076 31.3664 23.8334 31.5835 22.523 32.1557C21.6964 28.6434 18.5512 26.0585 14.8214 26.0585C10.4464 26.0585 6.87787 29.5905 6.87787 33.9514C6.87787 38.3122 10.4464 41.8443 14.8214 41.8443C18.9746 41.8443 22.3617 38.6476 22.6843 34.5828C23.3697 34.1092 25.1641 33.2213 27.3617 34.6223C27.7246 38.6674 31.0713 41.8443 35.2245 41.8443C36.4342 41.8443 37.5632 41.568 38.5713 41.0747L42.8455 45.2579L45.4059 42.7519ZM14.8214 39.5948C11.6762 39.5948 9.15609 37.0691 9.15609 33.9514C9.15609 30.8337 11.6964 28.308 14.8214 28.308C17.9665 28.308 20.4867 30.8337 20.4867 33.9514C20.4867 37.0691 17.9665 39.5948 14.8214 39.5948ZM35.2245 39.5948C32.0794 39.5948 29.5592 37.0691 29.5592 33.9514C29.5592 33.4383 29.6399 32.9648 29.781 32.4715L36.7971 39.3383C36.2931 39.4961 35.789 39.5948 35.2245 39.5948ZM45.1842 24.0853H31.4745L28.4504 21.1254H45.1842V24.0853ZM35.2245 26.0585C39.5995 26.0585 43.168 29.5905 43.168 33.9514C43.168 34.4447 43.1076 34.938 43.0269 35.3918L40.8293 33.241C40.6788 32.0027 40.1083 30.8496 39.2092 29.9661C38.3101 29.0825 37.1343 28.5195 35.8697 28.3671L33.6721 26.2361C34.1761 26.1177 34.7003 26.0585 35.2245 26.0585ZM25.4262 18.1656L16.394 9.28607L17.8254 5.6948C18.2286 4.68846 19.3577 4.13596 20.4262 4.43194L20.527 4.45167L25.023 5.91186L29.4987 4.45167C30.5673 4.11622 31.7165 4.62926 32.16 5.59614L32.2003 5.6948L37.1197 18.1656H25.4262Z" fill="black" fill-opacity="0.2"/>
<path d="M45.4059 42.7519L5.64804 3.82024L3.06741 6.32623L13.5512 16.587L12.9262 18.1656H15.1641L18.1883 21.1254H4.86175V24.0853H21.2125L28.0471 30.735C27.8052 31.2086 27.6439 31.6822 27.5229 32.1755C25.6076 31.3664 23.8334 31.5835 22.523 32.1557C21.6964 28.6434 18.5512 26.0585 14.8214 26.0585C10.4464 26.0585 6.87787 29.5905 6.87787 33.9514C6.87787 38.3122 10.4464 41.8443 14.8214 41.8443C18.9746 41.8443 22.3617 38.6476 22.6843 34.5828C23.3697 34.1092 25.1641 33.2213 27.3617 34.6223C27.7246 38.6674 31.0713 41.8443 35.2245 41.8443C36.4342 41.8443 37.5632 41.568 38.5713 41.0747L42.8455 45.2579L45.4059 42.7519ZM14.8214 39.5948C11.6762 39.5948 9.15609 37.0691 9.15609 33.9514C9.15609 30.8337 11.6964 28.308 14.8214 28.308C17.9665 28.308 20.4867 30.8337 20.4867 33.9514C20.4867 37.0691 17.9665 39.5948 14.8214 39.5948ZM35.2245 39.5948C32.0794 39.5948 29.5592 37.0691 29.5592 33.9514C29.5592 33.4383 29.6399 32.9648 29.781 32.4715L36.7971 39.3383C36.2931 39.4961 35.789 39.5948 35.2245 39.5948ZM45.1842 24.0853H31.4745L28.4504 21.1254H45.1842V24.0853ZM35.2245 26.0585C39.5995 26.0585 43.168 29.5905 43.168 33.9514C43.168 34.4447 43.1076 34.938 43.0269 35.3918L40.8293 33.241C40.6788 32.0027 40.1083 30.8496 39.2092 29.9661C38.3101 29.0825 37.1343 28.5195 35.8697 28.3671L33.6721 26.2361C34.1761 26.1177 34.7003 26.0585 35.2245 26.0585ZM25.4262 18.1656L16.394 9.28607L17.8254 5.6948C18.2286 4.68846 19.3577 4.13596 20.4262 4.43194L20.527 4.45167L25.023 5.91186L29.4987 4.45167C30.5673 4.11622 31.7165 4.62926 32.16 5.59614L32.2003 5.6948L37.1197 18.1656H25.4262Z" fill="black" fill-opacity="0.2"/>
</svg>
