<svg width="50" height="50" viewBox="0 0 50 50" fill="none" xmlns="http://www.w3.org/2000/svg">
<path d="M35.2245 27.0194C31.4745 27.0194 28.3294 29.7008 27.5229 33.2694C25.6076 32.4428 23.8536 32.6645 22.523 33.2492C21.6964 29.6605 18.5512 27.0194 14.8214 27.0194C10.4464 27.0194 6.87787 30.6283 6.87787 35.0839C6.87787 39.5395 10.4464 43.1484 14.8214 43.1484C18.9746 43.1484 22.3617 39.8823 22.6843 35.729C23.3697 35.2452 25.1641 34.3379 27.3617 35.7694C27.7246 39.9024 31.0713 43.1484 35.2245 43.1484C39.5995 43.1484 43.168 39.5395 43.168 35.0839C43.168 30.6283 39.5995 27.0194 35.2245 27.0194ZM14.8214 40.85C11.6762 40.85 9.15608 38.2694 9.15608 35.0839C9.15608 31.8984 11.6964 29.3178 14.8214 29.3178C17.9665 29.3178 20.4867 31.8984 20.4867 35.0839C20.4867 38.2694 17.9665 40.85 14.8214 40.85ZM35.2245 40.85C32.0794 40.85 29.5592 38.2694 29.5592 35.0839C29.5592 31.8984 32.0794 29.3178 35.2245 29.3178C38.3697 29.3178 40.91 31.8984 40.91 35.0839C40.91 38.2694 38.3495 40.85 35.2245 40.85ZM45.1842 21.9791H4.86175V25.0033H45.1842V21.9791ZM32.1399 6.11224C31.6963 5.12434 30.5673 4.60015 29.4987 4.94289L25.023 6.43482L20.527 4.94289L20.4262 4.92273C19.3577 4.62031 18.2286 5.18482 17.8254 6.21304L12.9262 18.9549H37.1197L32.2003 6.21304L32.1399 6.11224Z" fill="#222D49"/>
<path d="M35.2245 27.0194C31.4745 27.0194 28.3294 29.7008 27.5229 33.2694C25.6076 32.4428 23.8536 32.6645 22.523 33.2492C21.6964 29.6605 18.5512 27.0194 14.8214 27.0194C10.4464 27.0194 6.87787 30.6283 6.87787 35.0839C6.87787 39.5395 10.4464 43.1484 14.8214 43.1484C18.9746 43.1484 22.3617 39.8823 22.6843 35.729C23.3697 35.2452 25.1641 34.3379 27.3617 35.7694C27.7246 39.9024 31.0713 43.1484 35.2245 43.1484C39.5995 43.1484 43.168 39.5395 43.168 35.0839C43.168 30.6283 39.5995 27.0194 35.2245 27.0194ZM14.8214 40.85C11.6762 40.85 9.15608 38.2694 9.15608 35.0839C9.15608 31.8984 11.6964 29.3178 14.8214 29.3178C17.9665 29.3178 20.4867 31.8984 20.4867 35.0839C20.4867 38.2694 17.9665 40.85 14.8214 40.85ZM35.2245 40.85C32.0794 40.85 29.5592 38.2694 29.5592 35.0839C29.5592 31.8984 32.0794 29.3178 35.2245 29.3178C38.3697 29.3178 40.91 31.8984 40.91 35.0839C40.91 38.2694 38.3495 40.85 35.2245 40.85ZM45.1842 21.9791H4.86175V25.0033H45.1842V21.9791ZM32.1399 6.11224C31.6963 5.12434 30.5673 4.60015 29.4987 4.94289L25.023 6.43482L20.527 4.94289L20.4262 4.92273C19.3577 4.62031 18.2286 5.18482 17.8254 6.21304L12.9262 18.9549H37.1197L32.2003 6.21304L32.1399 6.11224Z" fill="black" fill-opacity="0.2"/>
<path d="M35.2245 27.0194C31.4745 27.0194 28.3294 29.7008 27.5229 33.2694C25.6076 32.4428 23.8536 32.6645 22.523 33.2492C21.6964 29.6605 18.5512 27.0194 14.8214 27.0194C10.4464 27.0194 6.87787 30.6283 6.87787 35.0839C6.87787 39.5395 10.4464 43.1484 14.8214 43.1484C18.9746 43.1484 22.3617 39.8823 22.6843 35.729C23.3697 35.2452 25.1641 34.3379 27.3617 35.7694C27.7246 39.9024 31.0713 43.1484 35.2245 43.1484C39.5995 43.1484 43.168 39.5395 43.168 35.0839C43.168 30.6283 39.5995 27.0194 35.2245 27.0194ZM14.8214 40.85C11.6762 40.85 9.15608 38.2694 9.15608 35.0839C9.15608 31.8984 11.6964 29.3178 14.8214 29.3178C17.9665 29.3178 20.4867 31.8984 20.4867 35.0839C20.4867 38.2694 17.9665 40.85 14.8214 40.85ZM35.2245 40.85C32.0794 40.85 29.5592 38.2694 29.5592 35.0839C29.5592 31.8984 32.0794 29.3178 35.2245 29.3178C38.3697 29.3178 40.91 31.8984 40.91 35.0839C40.91 38.2694 38.3495 40.85 35.2245 40.85ZM45.1842 21.9791H4.86175V25.0033H45.1842V21.9791ZM32.1399 6.11224C31.6963 5.12434 30.5673 4.60015 29.4987 4.94289L25.023 6.43482L20.527 4.94289L20.4262 4.92273C19.3577 4.62031 18.2286 5.18482 17.8254 6.21304L12.9262 18.9549H37.1197L32.2003 6.21304L32.1399 6.11224Z" fill="black" fill-opacity="0.2"/>
<path d="M35.2245 27.0194C31.4745 27.0194 28.3294 29.7008 27.5229 33.2694C25.6076 32.4428 23.8536 32.6645 22.523 33.2492C21.6964 29.6605 18.5512 27.0194 14.8214 27.0194C10.4464 27.0194 6.87787 30.6283 6.87787 35.0839C6.87787 39.5395 10.4464 43.1484 14.8214 43.1484C18.9746 43.1484 22.3617 39.8823 22.6843 35.729C23.3697 35.2452 25.1641 34.3379 27.3617 35.7694C27.7246 39.9024 31.0713 43.1484 35.2245 43.1484C39.5995 43.1484 43.168 39.5395 43.168 35.0839C43.168 30.6283 39.5995 27.0194 35.2245 27.0194ZM14.8214 40.85C11.6762 40.85 9.15608 38.2694 9.15608 35.0839C9.15608 31.8984 11.6964 29.3178 14.8214 29.3178C17.9665 29.3178 20.4867 31.8984 20.4867 35.0839C20.4867 38.2694 17.9665 40.85 14.8214 40.85ZM35.2245 40.85C32.0794 40.85 29.5592 38.2694 29.5592 35.0839C29.5592 31.8984 32.0794 29.3178 35.2245 29.3178C38.3697 29.3178 40.91 31.8984 40.91 35.0839C40.91 38.2694 38.3495 40.85 35.2245 40.85ZM45.1842 21.9791H4.86175V25.0033H45.1842V21.9791ZM32.1399 6.11224C31.6963 5.12434 30.5673 4.60015 29.4987 4.94289L25.023 6.43482L20.527 4.94289L20.4262 4.92273C19.3577 4.62031 18.2286 5.18482 17.8254 6.21304L12.9262 18.9549H37.1197L32.2003 6.21304L32.1399 6.11224Z" fill="black" fill-opacity="0.2"/>
<path d="M35.2245 27.0194C31.4745 27.0194 28.3294 29.7008 27.5229 33.2694C25.6076 32.4428 23.8536 32.6645 22.523 33.2492C21.6964 29.6605 18.5512 27.0194 14.8214 27.0194C10.4464 27.0194 6.87787 30.6283 6.87787 35.0839C6.87787 39.5395 10.4464 43.1484 14.8214 43.1484C18.9746 43.1484 22.3617 39.8823 22.6843 35.729C23.3697 35.2452 25.1641 34.3379 27.3617 35.7694C27.7246 39.9024 31.0713 43.1484 35.2245 43.1484C39.5995 43.1484 43.168 39.5395 43.168 35.0839C43.168 30.6283 39.5995 27.0194 35.2245 27.0194ZM14.8214 40.85C11.6762 40.85 9.15608 38.2694 9.15608 35.0839C9.15608 31.8984 11.6964 29.3178 14.8214 29.3178C17.9665 29.3178 20.4867 31.8984 20.4867 35.0839C20.4867 38.2694 17.9665 40.85 14.8214 40.85ZM35.2245 40.85C32.0794 40.85 29.5592 38.2694 29.5592 35.0839C29.5592 31.8984 32.0794 29.3178 35.2245 29.3178C38.3697 29.3178 40.91 31.8984 40.91 35.0839C40.91 38.2694 38.3495 40.85 35.2245 40.85ZM45.1842 21.9791H4.86175V25.0033H45.1842V21.9791ZM32.1399 6.11224C31.6963 5.12434 30.5673 4.60015 29.4987 4.94289L25.023 6.43482L20.527 4.94289L20.4262 4.92273C19.3577 4.62031 18.2286 5.18482 17.8254 6.21304L12.9262 18.9549H37.1197L32.2003 6.21304L32.1399 6.11224Z" fill="black" fill-opacity="0.2"/>
<path d="M35.2245 27.0194C31.4745 27.0194 28.3294 29.7008 27.5229 33.2694C25.6076 32.4428 23.8536 32.6645 22.523 33.2492C21.6964 29.6605 18.5512 27.0194 14.8214 27.0194C10.4464 27.0194 6.87787 30.6283 6.87787 35.0839C6.87787 39.5395 10.4464 43.1484 14.8214 43.1484C18.9746 43.1484 22.3617 39.8823 22.6843 35.729C23.3697 35.2452 25.1641 34.3379 27.3617 35.7694C27.7246 39.9024 31.0713 43.1484 35.2245 43.1484C39.5995 43.1484 43.168 39.5395 43.168 35.0839C43.168 30.6283 39.5995 27.0194 35.2245 27.0194ZM14.8214 40.85C11.6762 40.85 9.15608 38.2694 9.15608 35.0839C9.15608 31.8984 11.6964 29.3178 14.8214 29.3178C17.9665 29.3178 20.4867 31.8984 20.4867 35.0839C20.4867 38.2694 17.9665 40.85 14.8214 40.85ZM35.2245 40.85C32.0794 40.85 29.5592 38.2694 29.5592 35.0839C29.5592 31.8984 32.0794 29.3178 35.2245 29.3178C38.3697 29.3178 40.91 31.8984 40.91 35.0839C40.91 38.2694 38.3495 40.85 35.2245 40.85ZM45.1842 21.9791H4.86175V25.0033H45.1842V21.9791ZM32.1399 6.11224C31.6963 5.12434 30.5673 4.60015 29.4987 4.94289L25.023 6.43482L20.527 4.94289L20.4262 4.92273C19.3577 4.62031 18.2286 5.18482 17.8254 6.21304L12.9262 18.9549H37.1197L32.2003 6.21304L32.1399 6.11224Z" fill="black" fill-opacity="0.2"/>
</svg>
