<svg width="54" height="53" viewBox="0 0 54 53" fill="none" xmlns="http://www.w3.org/2000/svg">
<mask id="mask0_1067_9232" style="mask-type:alpha" maskUnits="userSpaceOnUse" x="0" y="0" width="54" height="53">
<rect x="0.91803" y="0.573776" width="52.5049" height="51.4754" fill="#D9D9D9"/>
</mask>
<g mask="url(#mask0_1067_9232)">
<path d="M16.232 34.8907C16.232 33.7111 16.6604 32.7012 17.5172 31.8612C18.3741 31.0211 19.4041 30.6011 20.6074 30.6011C21.8106 30.6011 22.8407 31.0211 23.6975 31.8612C24.5544 32.7012 24.9828 33.7111 24.9828 34.8907C24.9828 36.0704 24.5544 37.0802 23.6975 37.9203C22.8407 38.7603 21.8106 39.1803 20.6074 39.1803C19.4041 39.1803 18.3741 38.7603 17.5172 37.9203C16.6604 37.0802 16.232 36.0704 16.232 34.8907ZM27.1705 30.6011H40.2967C41.5 30.6011 42.53 31.0211 43.3869 31.8612C44.2437 32.7012 44.6721 33.7111 44.6721 34.8907V49.9044H40.2967V45.6148H14.0443V49.9044H9.66885V28.4563H14.0443V41.3251H27.1705V30.6011ZM35.3744 28.4563L28.9207 16.9816L23.1232 22.6653L23.6702 26.3115L22.0294 27.9201L19.4588 23.2015L14.6459 20.6277L16.2867 19.0191L20.0058 19.5017L25.8032 13.818L14.0443 7.5444L16.1226 5.50683L30.5614 9.15301L36.4682 3.36202C36.9058 2.93306 37.4345 2.71858 38.0543 2.71858C38.6742 2.71858 39.2029 2.93306 39.6404 3.36202C40.0779 3.79099 40.2967 4.30932 40.2967 4.91701C40.2967 5.52471 40.0779 6.04304 39.6404 6.472L33.7336 12.263L37.4527 26.4187L35.3744 28.4563ZM40.2967 41.3251V34.8907H31.5459V41.3251H40.2967Z" fill="#1C1B1F"/>
</g>
</svg>
