<svg width="30" height="30" viewBox="0 0 30 30" fill="none" xmlns="http://www.w3.org/2000/svg">
<path d="M19.7283 15.8153C19.7283 16.8964 19.2989 17.9332 18.5345 18.6976C17.7701 19.462 16.7333 19.8914 15.6523 19.8914C14.5712 19.8914 13.5344 19.462 12.77 18.6976C12.0056 17.9332 11.5762 16.8964 11.5762 15.8153C11.5762 14.7343 12.0056 13.6975 12.77 12.9331C13.5344 12.1687 14.5712 11.7393 15.6523 11.7393C16.7333 11.7393 17.7701 12.1687 18.5345 12.9331C19.2989 13.6975 19.7283 14.7343 19.7283 15.8153Z" fill="#222D49"/>
<path d="M19.7283 15.8153C19.7283 16.8964 19.2989 17.9332 18.5345 18.6976C17.7701 19.462 16.7333 19.8914 15.6523 19.8914C14.5712 19.8914 13.5344 19.462 12.77 18.6976C12.0056 17.9332 11.5762 16.8964 11.5762 15.8153C11.5762 14.7343 12.0056 13.6975 12.77 12.9331C13.5344 12.1687 14.5712 11.7393 15.6523 11.7393C16.7333 11.7393 17.7701 12.1687 18.5345 12.9331C19.2989 13.6975 19.7283 14.7343 19.7283 15.8153Z" fill="black" fill-opacity="0.2"/>
<path d="M19.7283 15.8153C19.7283 16.8964 19.2989 17.9332 18.5345 18.6976C17.7701 19.462 16.7333 19.8914 15.6523 19.8914C14.5712 19.8914 13.5344 19.462 12.77 18.6976C12.0056 17.9332 11.5762 16.8964 11.5762 15.8153C11.5762 14.7343 12.0056 13.6975 12.77 12.9331C13.5344 12.1687 14.5712 11.7393 15.6523 11.7393C16.7333 11.7393 17.7701 12.1687 18.5345 12.9331C19.2989 13.6975 19.7283 14.7343 19.7283 15.8153Z" fill="black" fill-opacity="0.2"/>
<path d="M19.7283 15.8153C19.7283 16.8964 19.2989 17.9332 18.5345 18.6976C17.7701 19.462 16.7333 19.8914 15.6523 19.8914C14.5712 19.8914 13.5344 19.462 12.77 18.6976C12.0056 17.9332 11.5762 16.8964 11.5762 15.8153C11.5762 14.7343 12.0056 13.6975 12.77 12.9331C13.5344 12.1687 14.5712 11.7393 15.6523 11.7393C16.7333 11.7393 17.7701 12.1687 18.5345 12.9331C19.2989 13.6975 19.7283 14.7343 19.7283 15.8153Z" fill="black" fill-opacity="0.2"/>
<path d="M19.7283 15.8153C19.7283 16.8964 19.2989 17.9332 18.5345 18.6976C17.7701 19.462 16.7333 19.8914 15.6523 19.8914C14.5712 19.8914 13.5344 19.462 12.77 18.6976C12.0056 17.9332 11.5762 16.8964 11.5762 15.8153C11.5762 14.7343 12.0056 13.6975 12.77 12.9331C13.5344 12.1687 14.5712 11.7393 15.6523 11.7393C16.7333 11.7393 17.7701 12.1687 18.5345 12.9331C19.2989 13.6975 19.7283 14.7343 19.7283 15.8153Z" fill="black" fill-opacity="0.2"/>
<path d="M19.7283 15.8153C19.7283 16.8964 19.2989 17.9332 18.5345 18.6976C17.7701 19.462 16.7333 19.8914 15.6523 19.8914C14.5712 19.8914 13.5344 19.462 12.77 18.6976C12.0056 17.9332 11.5762 16.8964 11.5762 15.8153C11.5762 14.7343 12.0056 13.6975 12.77 12.9331C13.5344 12.1687 14.5712 11.7393 15.6523 11.7393C16.7333 11.7393 17.7701 12.1687 18.5345 12.9331C19.2989 13.6975 19.7283 14.7343 19.7283 15.8153Z" fill="black" fill-opacity="0.2"/>
<path d="M5.87024 8.47815C5.00541 8.47815 4.17599 8.82171 3.56446 9.43324C2.95293 10.0448 2.60938 10.8742 2.60938 11.739L2.60938 21.5216C2.60938 22.3865 2.95293 23.2159 3.56446 23.8274C4.17599 24.4389 5.00541 24.7825 5.87024 24.7825H25.4355C26.3003 24.7825 27.1297 24.4389 27.7412 23.8274C28.3528 23.2159 28.6963 22.3865 28.6963 21.5216V11.739C28.6963 10.8742 28.3528 10.0448 27.7412 9.43324C27.1297 8.82171 26.3003 8.47815 25.4355 8.47815H23.5246C22.6598 8.47797 21.8305 8.13429 21.2192 7.52272L19.8692 6.17272C19.2578 5.56115 18.4285 5.21747 17.5637 5.21729H13.742C12.8772 5.21747 12.0479 5.56115 11.4365 6.17272L10.0865 7.52272C9.47516 8.13429 8.64588 8.47797 7.78111 8.47815H5.87024ZM6.68546 11.739C6.46925 11.739 6.2619 11.6531 6.10902 11.5003C5.95613 11.3474 5.87024 11.14 5.87024 10.9238C5.87024 10.7076 5.95613 10.5002 6.10902 10.3474C6.2619 10.1945 6.46925 10.1086 6.68546 10.1086C6.90167 10.1086 7.10903 10.1945 7.26191 10.3474C7.41479 10.5002 7.50068 10.7076 7.50068 10.9238C7.50068 11.14 7.41479 11.3474 7.26191 11.5003C7.10903 11.6531 6.90167 11.739 6.68546 11.739ZM21.3594 15.8151C21.3594 17.3286 20.7582 18.7801 19.688 19.8502C18.6178 20.9204 17.1663 21.5216 15.6529 21.5216C14.1394 21.5216 12.6879 20.9204 11.6177 19.8502C10.5476 18.7801 9.94633 17.3286 9.94633 15.8151C9.94633 14.3016 10.5476 12.8502 11.6177 11.78C12.6879 10.7098 14.1394 10.1086 15.6529 10.1086C17.1663 10.1086 18.6178 10.7098 19.688 11.78C20.7582 12.8502 21.3594 14.3016 21.3594 15.8151Z" fill="#222D49"/>
<path d="M5.87024 8.47815C5.00541 8.47815 4.17599 8.82171 3.56446 9.43324C2.95293 10.0448 2.60938 10.8742 2.60938 11.739L2.60938 21.5216C2.60938 22.3865 2.95293 23.2159 3.56446 23.8274C4.17599 24.4389 5.00541 24.7825 5.87024 24.7825H25.4355C26.3003 24.7825 27.1297 24.4389 27.7412 23.8274C28.3528 23.2159 28.6963 22.3865 28.6963 21.5216V11.739C28.6963 10.8742 28.3528 10.0448 27.7412 9.43324C27.1297 8.82171 26.3003 8.47815 25.4355 8.47815H23.5246C22.6598 8.47797 21.8305 8.13429 21.2192 7.52272L19.8692 6.17272C19.2578 5.56115 18.4285 5.21747 17.5637 5.21729H13.742C12.8772 5.21747 12.0479 5.56115 11.4365 6.17272L10.0865 7.52272C9.47516 8.13429 8.64588 8.47797 7.78111 8.47815H5.87024ZM6.68546 11.739C6.46925 11.739 6.2619 11.6531 6.10902 11.5003C5.95613 11.3474 5.87024 11.14 5.87024 10.9238C5.87024 10.7076 5.95613 10.5002 6.10902 10.3474C6.2619 10.1945 6.46925 10.1086 6.68546 10.1086C6.90167 10.1086 7.10903 10.1945 7.26191 10.3474C7.41479 10.5002 7.50068 10.7076 7.50068 10.9238C7.50068 11.14 7.41479 11.3474 7.26191 11.5003C7.10903 11.6531 6.90167 11.739 6.68546 11.739ZM21.3594 15.8151C21.3594 17.3286 20.7582 18.7801 19.688 19.8502C18.6178 20.9204 17.1663 21.5216 15.6529 21.5216C14.1394 21.5216 12.6879 20.9204 11.6177 19.8502C10.5476 18.7801 9.94633 17.3286 9.94633 15.8151C9.94633 14.3016 10.5476 12.8502 11.6177 11.78C12.6879 10.7098 14.1394 10.1086 15.6529 10.1086C17.1663 10.1086 18.6178 10.7098 19.688 11.78C20.7582 12.8502 21.3594 14.3016 21.3594 15.8151Z" fill="black" fill-opacity="0.2"/>
<path d="M5.87024 8.47815C5.00541 8.47815 4.17599 8.82171 3.56446 9.43324C2.95293 10.0448 2.60938 10.8742 2.60938 11.739L2.60938 21.5216C2.60938 22.3865 2.95293 23.2159 3.56446 23.8274C4.17599 24.4389 5.00541 24.7825 5.87024 24.7825H25.4355C26.3003 24.7825 27.1297 24.4389 27.7412 23.8274C28.3528 23.2159 28.6963 22.3865 28.6963 21.5216V11.739C28.6963 10.8742 28.3528 10.0448 27.7412 9.43324C27.1297 8.82171 26.3003 8.47815 25.4355 8.47815H23.5246C22.6598 8.47797 21.8305 8.13429 21.2192 7.52272L19.8692 6.17272C19.2578 5.56115 18.4285 5.21747 17.5637 5.21729H13.742C12.8772 5.21747 12.0479 5.56115 11.4365 6.17272L10.0865 7.52272C9.47516 8.13429 8.64588 8.47797 7.78111 8.47815H5.87024ZM6.68546 11.739C6.46925 11.739 6.2619 11.6531 6.10902 11.5003C5.95613 11.3474 5.87024 11.14 5.87024 10.9238C5.87024 10.7076 5.95613 10.5002 6.10902 10.3474C6.2619 10.1945 6.46925 10.1086 6.68546 10.1086C6.90167 10.1086 7.10903 10.1945 7.26191 10.3474C7.41479 10.5002 7.50068 10.7076 7.50068 10.9238C7.50068 11.14 7.41479 11.3474 7.26191 11.5003C7.10903 11.6531 6.90167 11.739 6.68546 11.739ZM21.3594 15.8151C21.3594 17.3286 20.7582 18.7801 19.688 19.8502C18.6178 20.9204 17.1663 21.5216 15.6529 21.5216C14.1394 21.5216 12.6879 20.9204 11.6177 19.8502C10.5476 18.7801 9.94633 17.3286 9.94633 15.8151C9.94633 14.3016 10.5476 12.8502 11.6177 11.78C12.6879 10.7098 14.1394 10.1086 15.6529 10.1086C17.1663 10.1086 18.6178 10.7098 19.688 11.78C20.7582 12.8502 21.3594 14.3016 21.3594 15.8151Z" fill="black" fill-opacity="0.2"/>
<path d="M5.87024 8.47815C5.00541 8.47815 4.17599 8.82171 3.56446 9.43324C2.95293 10.0448 2.60938 10.8742 2.60938 11.739L2.60938 21.5216C2.60938 22.3865 2.95293 23.2159 3.56446 23.8274C4.17599 24.4389 5.00541 24.7825 5.87024 24.7825H25.4355C26.3003 24.7825 27.1297 24.4389 27.7412 23.8274C28.3528 23.2159 28.6963 22.3865 28.6963 21.5216V11.739C28.6963 10.8742 28.3528 10.0448 27.7412 9.43324C27.1297 8.82171 26.3003 8.47815 25.4355 8.47815H23.5246C22.6598 8.47797 21.8305 8.13429 21.2192 7.52272L19.8692 6.17272C19.2578 5.56115 18.4285 5.21747 17.5637 5.21729H13.742C12.8772 5.21747 12.0479 5.56115 11.4365 6.17272L10.0865 7.52272C9.47516 8.13429 8.64588 8.47797 7.78111 8.47815H5.87024ZM6.68546 11.739C6.46925 11.739 6.2619 11.6531 6.10902 11.5003C5.95613 11.3474 5.87024 11.14 5.87024 10.9238C5.87024 10.7076 5.95613 10.5002 6.10902 10.3474C6.2619 10.1945 6.46925 10.1086 6.68546 10.1086C6.90167 10.1086 7.10903 10.1945 7.26191 10.3474C7.41479 10.5002 7.50068 10.7076 7.50068 10.9238C7.50068 11.14 7.41479 11.3474 7.26191 11.5003C7.10903 11.6531 6.90167 11.739 6.68546 11.739ZM21.3594 15.8151C21.3594 17.3286 20.7582 18.7801 19.688 19.8502C18.6178 20.9204 17.1663 21.5216 15.6529 21.5216C14.1394 21.5216 12.6879 20.9204 11.6177 19.8502C10.5476 18.7801 9.94633 17.3286 9.94633 15.8151C9.94633 14.3016 10.5476 12.8502 11.6177 11.78C12.6879 10.7098 14.1394 10.1086 15.6529 10.1086C17.1663 10.1086 18.6178 10.7098 19.688 11.78C20.7582 12.8502 21.3594 14.3016 21.3594 15.8151Z" fill="black" fill-opacity="0.2"/>
<path d="M5.87024 8.47815C5.00541 8.47815 4.17599 8.82171 3.56446 9.43324C2.95293 10.0448 2.60938 10.8742 2.60938 11.739L2.60938 21.5216C2.60938 22.3865 2.95293 23.2159 3.56446 23.8274C4.17599 24.4389 5.00541 24.7825 5.87024 24.7825H25.4355C26.3003 24.7825 27.1297 24.4389 27.7412 23.8274C28.3528 23.2159 28.6963 22.3865 28.6963 21.5216V11.739C28.6963 10.8742 28.3528 10.0448 27.7412 9.43324C27.1297 8.82171 26.3003 8.47815 25.4355 8.47815H23.5246C22.6598 8.47797 21.8305 8.13429 21.2192 7.52272L19.8692 6.17272C19.2578 5.56115 18.4285 5.21747 17.5637 5.21729H13.742C12.8772 5.21747 12.0479 5.56115 11.4365 6.17272L10.0865 7.52272C9.47516 8.13429 8.64588 8.47797 7.78111 8.47815H5.87024ZM6.68546 11.739C6.46925 11.739 6.2619 11.6531 6.10902 11.5003C5.95613 11.3474 5.87024 11.14 5.87024 10.9238C5.87024 10.7076 5.95613 10.5002 6.10902 10.3474C6.2619 10.1945 6.46925 10.1086 6.68546 10.1086C6.90167 10.1086 7.10903 10.1945 7.26191 10.3474C7.41479 10.5002 7.50068 10.7076 7.50068 10.9238C7.50068 11.14 7.41479 11.3474 7.26191 11.5003C7.10903 11.6531 6.90167 11.739 6.68546 11.739ZM21.3594 15.8151C21.3594 17.3286 20.7582 18.7801 19.688 19.8502C18.6178 20.9204 17.1663 21.5216 15.6529 21.5216C14.1394 21.5216 12.6879 20.9204 11.6177 19.8502C10.5476 18.7801 9.94633 17.3286 9.94633 15.8151C9.94633 14.3016 10.5476 12.8502 11.6177 11.78C12.6879 10.7098 14.1394 10.1086 15.6529 10.1086C17.1663 10.1086 18.6178 10.7098 19.688 11.78C20.7582 12.8502 21.3594 14.3016 21.3594 15.8151Z" fill="black" fill-opacity="0.2"/>
<path d="M5.87024 8.47815C5.00541 8.47815 4.17599 8.82171 3.56446 9.43324C2.95293 10.0448 2.60938 10.8742 2.60938 11.739L2.60938 21.5216C2.60938 22.3865 2.95293 23.2159 3.56446 23.8274C4.17599 24.4389 5.00541 24.7825 5.87024 24.7825H25.4355C26.3003 24.7825 27.1297 24.4389 27.7412 23.8274C28.3528 23.2159 28.6963 22.3865 28.6963 21.5216V11.739C28.6963 10.8742 28.3528 10.0448 27.7412 9.43324C27.1297 8.82171 26.3003 8.47815 25.4355 8.47815H23.5246C22.6598 8.47797 21.8305 8.13429 21.2192 7.52272L19.8692 6.17272C19.2578 5.56115 18.4285 5.21747 17.5637 5.21729H13.742C12.8772 5.21747 12.0479 5.56115 11.4365 6.17272L10.0865 7.52272C9.47516 8.13429 8.64588 8.47797 7.78111 8.47815H5.87024ZM6.68546 11.739C6.46925 11.739 6.2619 11.6531 6.10902 11.5003C5.95613 11.3474 5.87024 11.14 5.87024 10.9238C5.87024 10.7076 5.95613 10.5002 6.10902 10.3474C6.2619 10.1945 6.46925 10.1086 6.68546 10.1086C6.90167 10.1086 7.10903 10.1945 7.26191 10.3474C7.41479 10.5002 7.50068 10.7076 7.50068 10.9238C7.50068 11.14 7.41479 11.3474 7.26191 11.5003C7.10903 11.6531 6.90167 11.739 6.68546 11.739ZM21.3594 15.8151C21.3594 17.3286 20.7582 18.7801 19.688 19.8502C18.6178 20.9204 17.1663 21.5216 15.6529 21.5216C14.1394 21.5216 12.6879 20.9204 11.6177 19.8502C10.5476 18.7801 9.94633 17.3286 9.94633 15.8151C9.94633 14.3016 10.5476 12.8502 11.6177 11.78C12.6879 10.7098 14.1394 10.1086 15.6529 10.1086C17.1663 10.1086 18.6178 10.7098 19.688 11.78C20.7582 12.8502 21.3594 14.3016 21.3594 15.8151Z" fill="black" fill-opacity="0.2"/>
</svg>
