<svg width="26" height="26" viewBox="0 0 26 26" fill="none" xmlns="http://www.w3.org/2000/svg">
<path d="M8.74869 5.84134C8.74869 4.78655 9.1677 3.77497 9.91355 3.02912C10.6594 2.28327 11.671 1.86426 12.7258 1.86426C13.7806 1.86426 14.7921 2.28327 15.538 3.02912C16.2838 3.77497 16.7029 4.78655 16.7029 5.84134C16.7029 6.89613 16.2838 7.90772 15.538 8.65356C14.7921 9.39941 13.7806 9.81842 12.7258 9.81842C11.671 9.81842 10.6594 9.39941 9.91355 8.65356C9.1677 7.90772 8.74869 6.89613 8.74869 5.84134ZM10.3395 11.4093C9.70665 11.4093 9.0997 11.6607 8.65219 12.1082C8.20468 12.5557 7.95327 13.1626 7.95327 13.7955V17.7726C7.95327 19.0383 8.45609 20.2522 9.3511 21.1473C10.2461 22.0423 11.46 22.5451 12.7258 22.5451C13.9915 22.5451 15.2054 22.0423 16.1004 21.1473C16.9955 20.2522 17.4983 19.0383 17.4983 17.7726V13.7955C17.4983 13.1626 17.2469 12.5557 16.7994 12.1082C16.3518 11.6607 15.7449 11.4093 15.112 11.4093H10.3395ZM6.45152 12.9524C6.39187 13.2294 6.36201 13.5121 6.36244 13.7955V17.7726C6.36228 18.624 6.53299 19.4668 6.86445 20.2511C7.19591 21.0353 7.68138 21.7451 8.29212 22.3383L8.13303 22.3828C6.91076 22.7098 5.60865 22.5381 4.51295 21.9054C3.41724 21.2727 2.61764 20.2308 2.2899 19.0087L1.67107 16.702C1.59 16.3992 1.56935 16.0835 1.61031 15.7728C1.65126 15.4621 1.753 15.1626 1.90974 14.8912C2.06647 14.6198 2.27513 14.382 2.52378 14.1913C2.77244 14.0005 3.05623 13.8606 3.35894 13.7796L6.45152 12.9524ZM17.1578 22.3383C17.7689 21.7452 18.2546 21.0355 18.5864 20.2512C18.9181 19.467 19.0891 18.6241 19.0891 17.7726V13.7955C19.088 13.5049 19.0583 13.2239 19 12.9524L22.091 13.7796C22.3939 13.8606 22.6778 14.0006 22.9266 14.1914C23.1754 14.3822 23.3841 14.6202 23.5409 14.8918C23.6976 15.1633 23.7993 15.4631 23.8402 15.774C23.881 16.0849 23.8602 16.4007 23.7789 16.7036L23.1616 19.0087C22.9959 19.6273 22.7073 20.2063 22.313 20.7111C21.9188 21.2158 21.427 21.6361 20.8669 21.9468C20.3068 22.2575 19.6899 22.4523 19.053 22.5195C18.416 22.5868 17.7705 22.5251 17.1578 22.3383ZM1.58994 8.22759C1.58994 7.38376 1.92515 6.57449 2.52183 5.97781C3.1185 5.38113 3.92777 5.04592 4.7716 5.04592C5.61543 5.04592 6.4247 5.38113 7.02138 5.97781C7.61806 6.57449 7.95327 7.38376 7.95327 8.22759C7.95327 9.07142 7.61806 9.88069 7.02138 10.4774C6.4247 11.074 5.61543 11.4093 4.7716 11.4093C3.92777 11.4093 3.1185 11.074 2.52183 10.4774C1.92515 9.88069 1.58994 9.07142 1.58994 8.22759ZM17.4983 8.22759C17.4983 7.38376 17.8335 6.57449 18.4302 5.97781C19.0268 5.38113 19.8361 5.04592 20.6799 5.04592C21.5238 5.04592 22.333 5.38113 22.9297 5.97781C23.5264 6.57449 23.8616 7.38376 23.8616 8.22759C23.8616 9.07142 23.5264 9.88069 22.9297 10.4774C22.333 11.074 21.5238 11.4093 20.6799 11.4093C19.8361 11.4093 19.0268 11.074 18.4302 10.4774C17.8335 9.88069 17.4983 9.07142 17.4983 8.22759Z" fill="#152560"/>
</svg>
