<svg width="33" height="32" viewBox="0 0 33 32" fill="none" xmlns="http://www.w3.org/2000/svg">
<path d="M16.1053 18.6665C16.8408 18.6665 17.4706 18.4056 17.9947 17.8838C18.5189 17.3621 18.7805 16.7341 18.7796 15.9998C18.7787 15.2656 18.5171 14.6381 17.9947 14.1172C17.4724 13.5963 16.8426 13.3349 16.1053 13.3332C15.3681 13.3314 14.7388 13.5927 14.2173 14.1172C13.6958 14.6416 13.4337 15.2692 13.4311 15.9998C13.4284 16.7305 13.6905 17.3585 14.2173 17.8838C14.7441 18.4092 15.3735 18.6701 16.1053 18.6665ZM10.7568 23.9998H21.4539V23.2332C21.4539 22.6998 21.3091 22.211 21.0193 21.7665C20.7296 21.3221 20.3285 20.9887 19.8159 20.7665C19.2365 20.5221 18.6401 20.3332 18.0268 20.1998C17.4135 20.0665 16.773 19.9998 16.1053 19.9998C15.4377 19.9998 14.7972 20.0665 14.1839 20.1998C13.5706 20.3332 12.9742 20.5221 12.3948 20.7665C11.8822 20.9887 11.4811 21.3221 11.1913 21.7665C10.9016 22.211 10.7568 22.6998 10.7568 23.2332V23.9998ZM24.1282 29.3332H8.08249C7.34706 29.3332 6.71771 29.0723 6.19444 28.5505C5.67117 28.0287 5.40909 27.4007 5.4082 26.6665V5.33317C5.4082 4.59984 5.67028 3.97228 6.19444 3.4505C6.7186 2.92873 7.34795 2.66739 8.08249 2.6665H18.7796L26.8025 10.6665V26.6665C26.8025 27.3998 26.5409 28.0278 26.0176 28.5505C25.4943 29.0732 24.8645 29.3341 24.1282 29.3332Z" fill="#222D49"/>
<path d="M16.1053 18.6665C16.8408 18.6665 17.4706 18.4056 17.9947 17.8838C18.5189 17.3621 18.7805 16.7341 18.7796 15.9998C18.7787 15.2656 18.5171 14.6381 17.9947 14.1172C17.4724 13.5963 16.8426 13.3349 16.1053 13.3332C15.3681 13.3314 14.7388 13.5927 14.2173 14.1172C13.6958 14.6416 13.4337 15.2692 13.4311 15.9998C13.4284 16.7305 13.6905 17.3585 14.2173 17.8838C14.7441 18.4092 15.3735 18.6701 16.1053 18.6665ZM10.7568 23.9998H21.4539V23.2332C21.4539 22.6998 21.3091 22.211 21.0193 21.7665C20.7296 21.3221 20.3285 20.9887 19.8159 20.7665C19.2365 20.5221 18.6401 20.3332 18.0268 20.1998C17.4135 20.0665 16.773 19.9998 16.1053 19.9998C15.4377 19.9998 14.7972 20.0665 14.1839 20.1998C13.5706 20.3332 12.9742 20.5221 12.3948 20.7665C11.8822 20.9887 11.4811 21.3221 11.1913 21.7665C10.9016 22.211 10.7568 22.6998 10.7568 23.2332V23.9998ZM24.1282 29.3332H8.08249C7.34706 29.3332 6.71771 29.0723 6.19444 28.5505C5.67117 28.0287 5.40909 27.4007 5.4082 26.6665V5.33317C5.4082 4.59984 5.67028 3.97228 6.19444 3.4505C6.7186 2.92873 7.34795 2.66739 8.08249 2.6665H18.7796L26.8025 10.6665V26.6665C26.8025 27.3998 26.5409 28.0278 26.0176 28.5505C25.4943 29.0732 24.8645 29.3341 24.1282 29.3332Z" fill="black" fill-opacity="0.2"/>
<path d="M16.1053 18.6665C16.8408 18.6665 17.4706 18.4056 17.9947 17.8838C18.5189 17.3621 18.7805 16.7341 18.7796 15.9998C18.7787 15.2656 18.5171 14.6381 17.9947 14.1172C17.4724 13.5963 16.8426 13.3349 16.1053 13.3332C15.3681 13.3314 14.7388 13.5927 14.2173 14.1172C13.6958 14.6416 13.4337 15.2692 13.4311 15.9998C13.4284 16.7305 13.6905 17.3585 14.2173 17.8838C14.7441 18.4092 15.3735 18.6701 16.1053 18.6665ZM10.7568 23.9998H21.4539V23.2332C21.4539 22.6998 21.3091 22.211 21.0193 21.7665C20.7296 21.3221 20.3285 20.9887 19.8159 20.7665C19.2365 20.5221 18.6401 20.3332 18.0268 20.1998C17.4135 20.0665 16.773 19.9998 16.1053 19.9998C15.4377 19.9998 14.7972 20.0665 14.1839 20.1998C13.5706 20.3332 12.9742 20.5221 12.3948 20.7665C11.8822 20.9887 11.4811 21.3221 11.1913 21.7665C10.9016 22.211 10.7568 22.6998 10.7568 23.2332V23.9998ZM24.1282 29.3332H8.08249C7.34706 29.3332 6.71771 29.0723 6.19444 28.5505C5.67117 28.0287 5.40909 27.4007 5.4082 26.6665V5.33317C5.4082 4.59984 5.67028 3.97228 6.19444 3.4505C6.7186 2.92873 7.34795 2.66739 8.08249 2.6665H18.7796L26.8025 10.6665V26.6665C26.8025 27.3998 26.5409 28.0278 26.0176 28.5505C25.4943 29.0732 24.8645 29.3341 24.1282 29.3332Z" fill="black" fill-opacity="0.2"/>
<path d="M16.1053 18.6665C16.8408 18.6665 17.4706 18.4056 17.9947 17.8838C18.5189 17.3621 18.7805 16.7341 18.7796 15.9998C18.7787 15.2656 18.5171 14.6381 17.9947 14.1172C17.4724 13.5963 16.8426 13.3349 16.1053 13.3332C15.3681 13.3314 14.7388 13.5927 14.2173 14.1172C13.6958 14.6416 13.4337 15.2692 13.4311 15.9998C13.4284 16.7305 13.6905 17.3585 14.2173 17.8838C14.7441 18.4092 15.3735 18.6701 16.1053 18.6665ZM10.7568 23.9998H21.4539V23.2332C21.4539 22.6998 21.3091 22.211 21.0193 21.7665C20.7296 21.3221 20.3285 20.9887 19.8159 20.7665C19.2365 20.5221 18.6401 20.3332 18.0268 20.1998C17.4135 20.0665 16.773 19.9998 16.1053 19.9998C15.4377 19.9998 14.7972 20.0665 14.1839 20.1998C13.5706 20.3332 12.9742 20.5221 12.3948 20.7665C11.8822 20.9887 11.4811 21.3221 11.1913 21.7665C10.9016 22.211 10.7568 22.6998 10.7568 23.2332V23.9998ZM24.1282 29.3332H8.08249C7.34706 29.3332 6.71771 29.0723 6.19444 28.5505C5.67117 28.0287 5.40909 27.4007 5.4082 26.6665V5.33317C5.4082 4.59984 5.67028 3.97228 6.19444 3.4505C6.7186 2.92873 7.34795 2.66739 8.08249 2.6665H18.7796L26.8025 10.6665V26.6665C26.8025 27.3998 26.5409 28.0278 26.0176 28.5505C25.4943 29.0732 24.8645 29.3341 24.1282 29.3332Z" fill="black" fill-opacity="0.2"/>
<path d="M16.1053 18.6665C16.8408 18.6665 17.4706 18.4056 17.9947 17.8838C18.5189 17.3621 18.7805 16.7341 18.7796 15.9998C18.7787 15.2656 18.5171 14.6381 17.9947 14.1172C17.4724 13.5963 16.8426 13.3349 16.1053 13.3332C15.3681 13.3314 14.7388 13.5927 14.2173 14.1172C13.6958 14.6416 13.4337 15.2692 13.4311 15.9998C13.4284 16.7305 13.6905 17.3585 14.2173 17.8838C14.7441 18.4092 15.3735 18.6701 16.1053 18.6665ZM10.7568 23.9998H21.4539V23.2332C21.4539 22.6998 21.3091 22.211 21.0193 21.7665C20.7296 21.3221 20.3285 20.9887 19.8159 20.7665C19.2365 20.5221 18.6401 20.3332 18.0268 20.1998C17.4135 20.0665 16.773 19.9998 16.1053 19.9998C15.4377 19.9998 14.7972 20.0665 14.1839 20.1998C13.5706 20.3332 12.9742 20.5221 12.3948 20.7665C11.8822 20.9887 11.4811 21.3221 11.1913 21.7665C10.9016 22.211 10.7568 22.6998 10.7568 23.2332V23.9998ZM24.1282 29.3332H8.08249C7.34706 29.3332 6.71771 29.0723 6.19444 28.5505C5.67117 28.0287 5.40909 27.4007 5.4082 26.6665V5.33317C5.4082 4.59984 5.67028 3.97228 6.19444 3.4505C6.7186 2.92873 7.34795 2.66739 8.08249 2.6665H18.7796L26.8025 10.6665V26.6665C26.8025 27.3998 26.5409 28.0278 26.0176 28.5505C25.4943 29.0732 24.8645 29.3341 24.1282 29.3332Z" fill="black" fill-opacity="0.2"/>
<path d="M16.1053 18.6665C16.8408 18.6665 17.4706 18.4056 17.9947 17.8838C18.5189 17.3621 18.7805 16.7341 18.7796 15.9998C18.7787 15.2656 18.5171 14.6381 17.9947 14.1172C17.4724 13.5963 16.8426 13.3349 16.1053 13.3332C15.3681 13.3314 14.7388 13.5927 14.2173 14.1172C13.6958 14.6416 13.4337 15.2692 13.4311 15.9998C13.4284 16.7305 13.6905 17.3585 14.2173 17.8838C14.7441 18.4092 15.3735 18.6701 16.1053 18.6665ZM10.7568 23.9998H21.4539V23.2332C21.4539 22.6998 21.3091 22.211 21.0193 21.7665C20.7296 21.3221 20.3285 20.9887 19.8159 20.7665C19.2365 20.5221 18.6401 20.3332 18.0268 20.1998C17.4135 20.0665 16.773 19.9998 16.1053 19.9998C15.4377 19.9998 14.7972 20.0665 14.1839 20.1998C13.5706 20.3332 12.9742 20.5221 12.3948 20.7665C11.8822 20.9887 11.4811 21.3221 11.1913 21.7665C10.9016 22.211 10.7568 22.6998 10.7568 23.2332V23.9998ZM24.1282 29.3332H8.08249C7.34706 29.3332 6.71771 29.0723 6.19444 28.5505C5.67117 28.0287 5.40909 27.4007 5.4082 26.6665V5.33317C5.4082 4.59984 5.67028 3.97228 6.19444 3.4505C6.7186 2.92873 7.34795 2.66739 8.08249 2.6665H18.7796L26.8025 10.6665V26.6665C26.8025 27.3998 26.5409 28.0278 26.0176 28.5505C25.4943 29.0732 24.8645 29.3341 24.1282 29.3332Z" fill="black" fill-opacity="0.2"/>
</svg>
