<svg width="33" height="32" viewBox="0 0 33 32" fill="none" xmlns="http://www.w3.org/2000/svg">
<path d="M16.1066 28C12.7637 28 9.92227 26.8333 7.58227 24.5C5.24227 22.1667 4.07227 19.3333 4.07227 16C4.07227 12.6667 5.24227 9.83333 7.58227 7.5C9.92227 5.16667 12.7637 4 16.1066 4C16.4186 4 16.7252 4.01111 17.0265 4.03333C17.3278 4.05556 17.6229 4.08889 17.9117 4.13333C16.998 4.77778 16.2679 5.61689 15.7215 6.65067C15.175 7.68444 14.9022 8.80089 14.9031 10C14.9031 12 15.6051 13.7 17.0091 15.1C18.4131 16.5 20.118 17.2 22.1237 17.2C23.3494 17.2 24.4748 16.9276 25.5 16.3827C26.5251 15.8378 27.3608 15.1102 28.0071 14.2C28.0517 14.4889 28.0851 14.7831 28.1074 15.0827C28.1297 15.3822 28.1408 15.688 28.1408 16C28.1408 19.3333 26.9708 22.1667 24.6308 24.5C22.2908 26.8333 19.4494 28 16.1066 28Z" fill="#222D49"/>
<path d="M16.1066 28C12.7637 28 9.92227 26.8333 7.58227 24.5C5.24227 22.1667 4.07227 19.3333 4.07227 16C4.07227 12.6667 5.24227 9.83333 7.58227 7.5C9.92227 5.16667 12.7637 4 16.1066 4C16.4186 4 16.7252 4.01111 17.0265 4.03333C17.3278 4.05556 17.6229 4.08889 17.9117 4.13333C16.998 4.77778 16.2679 5.61689 15.7215 6.65067C15.175 7.68444 14.9022 8.80089 14.9031 10C14.9031 12 15.6051 13.7 17.0091 15.1C18.4131 16.5 20.118 17.2 22.1237 17.2C23.3494 17.2 24.4748 16.9276 25.5 16.3827C26.5251 15.8378 27.3608 15.1102 28.0071 14.2C28.0517 14.4889 28.0851 14.7831 28.1074 15.0827C28.1297 15.3822 28.1408 15.688 28.1408 16C28.1408 19.3333 26.9708 22.1667 24.6308 24.5C22.2908 26.8333 19.4494 28 16.1066 28Z" fill="black" fill-opacity="0.2"/>
<path d="M16.1066 28C12.7637 28 9.92227 26.8333 7.58227 24.5C5.24227 22.1667 4.07227 19.3333 4.07227 16C4.07227 12.6667 5.24227 9.83333 7.58227 7.5C9.92227 5.16667 12.7637 4 16.1066 4C16.4186 4 16.7252 4.01111 17.0265 4.03333C17.3278 4.05556 17.6229 4.08889 17.9117 4.13333C16.998 4.77778 16.2679 5.61689 15.7215 6.65067C15.175 7.68444 14.9022 8.80089 14.9031 10C14.9031 12 15.6051 13.7 17.0091 15.1C18.4131 16.5 20.118 17.2 22.1237 17.2C23.3494 17.2 24.4748 16.9276 25.5 16.3827C26.5251 15.8378 27.3608 15.1102 28.0071 14.2C28.0517 14.4889 28.0851 14.7831 28.1074 15.0827C28.1297 15.3822 28.1408 15.688 28.1408 16C28.1408 19.3333 26.9708 22.1667 24.6308 24.5C22.2908 26.8333 19.4494 28 16.1066 28Z" fill="black" fill-opacity="0.2"/>
<path d="M16.1066 28C12.7637 28 9.92227 26.8333 7.58227 24.5C5.24227 22.1667 4.07227 19.3333 4.07227 16C4.07227 12.6667 5.24227 9.83333 7.58227 7.5C9.92227 5.16667 12.7637 4 16.1066 4C16.4186 4 16.7252 4.01111 17.0265 4.03333C17.3278 4.05556 17.6229 4.08889 17.9117 4.13333C16.998 4.77778 16.2679 5.61689 15.7215 6.65067C15.175 7.68444 14.9022 8.80089 14.9031 10C14.9031 12 15.6051 13.7 17.0091 15.1C18.4131 16.5 20.118 17.2 22.1237 17.2C23.3494 17.2 24.4748 16.9276 25.5 16.3827C26.5251 15.8378 27.3608 15.1102 28.0071 14.2C28.0517 14.4889 28.0851 14.7831 28.1074 15.0827C28.1297 15.3822 28.1408 15.688 28.1408 16C28.1408 19.3333 26.9708 22.1667 24.6308 24.5C22.2908 26.8333 19.4494 28 16.1066 28Z" fill="black" fill-opacity="0.2"/>
<path d="M16.1066 28C12.7637 28 9.92227 26.8333 7.58227 24.5C5.24227 22.1667 4.07227 19.3333 4.07227 16C4.07227 12.6667 5.24227 9.83333 7.58227 7.5C9.92227 5.16667 12.7637 4 16.1066 4C16.4186 4 16.7252 4.01111 17.0265 4.03333C17.3278 4.05556 17.6229 4.08889 17.9117 4.13333C16.998 4.77778 16.2679 5.61689 15.7215 6.65067C15.175 7.68444 14.9022 8.80089 14.9031 10C14.9031 12 15.6051 13.7 17.0091 15.1C18.4131 16.5 20.118 17.2 22.1237 17.2C23.3494 17.2 24.4748 16.9276 25.5 16.3827C26.5251 15.8378 27.3608 15.1102 28.0071 14.2C28.0517 14.4889 28.0851 14.7831 28.1074 15.0827C28.1297 15.3822 28.1408 15.688 28.1408 16C28.1408 19.3333 26.9708 22.1667 24.6308 24.5C22.2908 26.8333 19.4494 28 16.1066 28Z" fill="black" fill-opacity="0.2"/>
<path d="M16.1066 28C12.7637 28 9.92227 26.8333 7.58227 24.5C5.24227 22.1667 4.07227 19.3333 4.07227 16C4.07227 12.6667 5.24227 9.83333 7.58227 7.5C9.92227 5.16667 12.7637 4 16.1066 4C16.4186 4 16.7252 4.01111 17.0265 4.03333C17.3278 4.05556 17.6229 4.08889 17.9117 4.13333C16.998 4.77778 16.2679 5.61689 15.7215 6.65067C15.175 7.68444 14.9022 8.80089 14.9031 10C14.9031 12 15.6051 13.7 17.0091 15.1C18.4131 16.5 20.118 17.2 22.1237 17.2C23.3494 17.2 24.4748 16.9276 25.5 16.3827C26.5251 15.8378 27.3608 15.1102 28.0071 14.2C28.0517 14.4889 28.0851 14.7831 28.1074 15.0827C28.1297 15.3822 28.1408 15.688 28.1408 16C28.1408 19.3333 26.9708 22.1667 24.6308 24.5C22.2908 26.8333 19.4494 28 16.1066 28Z" fill="black" fill-opacity="0.2"/>
</svg>
