<svg width="27" height="28" viewBox="0 0 27 28" fill="none" xmlns="http://www.w3.org/2000/svg">
<g clip-path="url(#clip0_2065_5656)">
<path fill-rule="evenodd" clip-rule="evenodd" d="M3.29233 0.737662C2.9286 0.386357 2.44144 0.191968 1.93577 0.196362C1.43011 0.200756 0.946398 0.403582 0.588825 0.761155C0.231253 1.11873 0.0284268 1.60244 0.0240327 2.1081C0.0196386 2.61377 0.214028 3.10093 0.565333 3.46466L10.7733 13.6726L0.565333 23.8805C0.381134 24.0584 0.234212 24.2712 0.133137 24.5065C0.0320626 24.7418 -0.0211395 24.9949 -0.0233647 25.251C-0.0255899 25.507 0.0232063 25.761 0.120177 25.998C0.217147 26.235 0.360349 26.4503 0.541428 26.6314C0.722507 26.8125 0.937836 26.9557 1.17485 27.0527C1.41186 27.1496 1.66582 27.1984 1.92189 27.1962C2.17797 27.194 2.43103 27.1408 2.66633 27.0397C2.90162 26.9386 3.11443 26.7917 3.29233 26.6075L13.5003 16.3996L23.7082 26.6075C24.0719 26.9588 24.5591 27.1532 25.0647 27.1488C25.5704 27.1444 26.0541 26.9416 26.4117 26.584C26.7693 26.2265 26.9721 25.7427 26.9765 25.2371C26.9809 24.7314 26.7865 24.2443 26.4352 23.8805L16.2273 13.6726L26.4352 3.46466C26.7865 3.10093 26.9809 2.61377 26.9765 2.1081C26.9721 1.60244 26.7693 1.11873 26.4117 0.761155C26.0541 0.403582 25.5704 0.200756 25.0647 0.196362C24.5591 0.191968 24.0719 0.386357 23.7082 0.737662L13.5003 10.9456L3.29233 0.737662Z" fill="#0F1A44"/>
</g>
<defs>
<clipPath id="clip0_2065_5656">
<rect width="27" height="27" fill="white" transform="translate(0 0.172607)"/>
</clipPath>
</defs>
</svg>
