<svg width="19" height="20" viewBox="0 0 19 20" fill="none" xmlns="http://www.w3.org/2000/svg">
<path d="M0 20V15.2778L13.9333 0.638889C14.1444 0.435185 14.3777 0.277778 14.6332 0.166667C14.8886 0.0555557 15.1567 0 15.4375 0C15.7183 0 15.991 0.0555557 16.2555 0.166667C16.5201 0.277778 16.7488 0.444444 16.9417 0.666667L18.393 2.22222C18.6042 2.42593 18.7583 2.66667 18.8554 2.94444C18.9525 3.22222 19.0007 3.5 19 3.77778C19 4.07407 18.9518 4.35667 18.8554 4.62556C18.759 4.89444 18.6049 5.13963 18.393 5.36111L4.48611 20H0ZM15.4111 5.33333L16.8889 3.77778L15.4111 2.22222L13.9333 3.77778L15.4111 5.33333Z" fill="#152560"/>
</svg>
