<svg width="34" height="35" viewBox="0 0 34 35" fill="none" xmlns="http://www.w3.org/2000/svg">
<path d="M0 35.0035V26.7389L24.9141 1.1184C25.2916 0.76189 25.7087 0.486401 26.1655 0.291938C26.6222 0.0974756 27.1016 0.000244141 27.6037 0.000244141C28.1057 0.000244141 28.5933 0.0974756 29.0664 0.291938C29.5396 0.486401 29.9485 0.778095 30.2933 1.16702L32.8885 3.8895C33.266 4.24601 33.5415 4.66735 33.7152 5.1535C33.8888 5.63966 33.975 6.12582 33.9738 6.61197C33.9738 7.13054 33.8876 7.62512 33.7152 8.09572C33.5428 8.56632 33.2672 8.99544 32.8885 9.38307L8.02158 35.0035H0ZM27.5565 9.33445L30.1989 6.61197L27.5565 3.8895L24.9141 6.61197L27.5565 9.33445Z" fill="#0F1A44"/>
</svg>
