<svg width="44" height="36" viewBox="0 0 44 36" fill="none" xmlns="http://www.w3.org/2000/svg">
<g clip-path="url(#clip0_1067_5929)">
<path d="M42.6331 11.0474L23.7875 5.18847C22.7606 4.8692 21.6525 4.8692 20.6263 5.18847L1.78002 11.0474C0.18962 11.5417 0.18962 13.6699 1.78002 14.1642L5.06553 15.1856C4.34465 16.0873 3.90145 17.1873 3.85753 18.392C3.20692 18.7693 2.74885 19.4503 2.74885 20.2631C2.74885 21.0001 3.1326 21.6202 3.68525 22.0167L1.96041 29.8706C1.81042 30.5535 2.32389 31.2016 3.01504 31.2016H6.80592C7.49774 31.2016 8.01121 30.5535 7.86123 29.8706L6.13638 22.0167C6.68903 21.6202 7.07278 21.0001 7.07278 20.2631C7.07278 19.4721 6.63566 18.8104 6.01477 18.4261C6.06612 17.3993 6.58499 16.4914 7.41262 15.9157L20.6256 20.0238C21.2377 20.2139 22.4119 20.4511 23.7868 20.0238L42.6331 14.1649C44.2242 13.6699 44.2242 11.5424 42.6331 11.0474ZM24.4219 22.1152C22.4944 22.714 20.8519 22.3831 19.9905 22.1152L10.1928 19.0695L9.23475 26.8262C9.23475 29.243 15.0423 31.2016 22.2066 31.2016C29.3708 31.2016 35.1784 29.243 35.1784 26.8262L34.2203 19.0688L24.4219 22.1152Z" fill="black"/>
</g>
<defs>
<clipPath id="clip0_1067_5929">
<rect width="43.2393" height="35.0033" fill="white" transform="translate(0.586914 0.573776)"/>
</clipPath>
</defs>
</svg>
