<svg width="19" height="5" viewBox="0 0 19 5" fill="none" xmlns="http://www.w3.org/2000/svg">
<path d="M2.4858 4.1875C1.96875 4.1875 1.52557 4.00568 1.15625 3.64205C0.786932 3.27841 0.605114 2.83523 0.610795 2.3125C0.605114 1.80114 0.786932 1.36364 1.15625 1C1.52557 0.636364 1.96875 0.454545 2.4858 0.454545C2.9858 0.454545 3.42045 0.636364 3.78977 1C4.16477 1.36364 4.35511 1.80114 4.3608 2.3125C4.35511 2.65909 4.2642 2.97443 4.08807 3.25852C3.91761 3.54261 3.69034 3.76989 3.40625 3.94034C3.12784 4.10511 2.82102 4.1875 2.4858 4.1875ZM9.44673 4.1875C8.92969 4.1875 8.48651 4.00568 8.11719 3.64205C7.74787 3.27841 7.56605 2.83523 7.57173 2.3125C7.56605 1.80114 7.74787 1.36364 8.11719 1C8.48651 0.636364 8.92969 0.454545 9.44673 0.454545C9.94673 0.454545 10.3814 0.636364 10.7507 1C11.1257 1.36364 11.3161 1.80114 11.3217 2.3125C11.3161 2.65909 11.2251 2.97443 11.049 3.25852C10.8786 3.54261 10.6513 3.76989 10.3672 3.94034C10.0888 4.10511 9.78196 4.1875 9.44673 4.1875ZM16.4077 4.1875C15.8906 4.1875 15.4474 4.00568 15.0781 3.64205C14.7088 3.27841 14.527 2.83523 14.5327 2.3125C14.527 1.80114 14.7088 1.36364 15.0781 1C15.4474 0.636364 15.8906 0.454545 16.4077 0.454545C16.9077 0.454545 17.3423 0.636364 17.7116 1C18.0866 1.36364 18.277 1.80114 18.2827 2.3125C18.277 2.65909 18.1861 2.97443 18.0099 3.25852C17.8395 3.54261 17.6122 3.76989 17.3281 3.94034C17.0497 4.10511 16.7429 4.1875 16.4077 4.1875Z" fill="#091028"/>
</svg>
