<svg width="26" height="26" viewBox="0 0 26 26" fill="none" xmlns="http://www.w3.org/2000/svg">
<path d="M22.2717 18.3029V8.75787H7.42388V18.3029H22.2717ZM22.2717 3.4551C22.8342 3.4551 23.3737 3.67857 23.7715 4.07635C24.1693 4.47414 24.3928 5.01365 24.3928 5.57621V18.3029C24.3928 18.8654 24.1693 19.4049 23.7715 19.8027C23.3737 20.2005 22.8342 20.424 22.2717 20.424H7.42388C6.86133 20.424 6.32181 20.2005 5.92403 19.8027C5.52624 19.4049 5.30277 18.8654 5.30277 18.3029V5.57621C5.30277 5.01365 5.52624 4.47414 5.92403 4.07635C6.32181 3.67857 6.86133 3.4551 7.42388 3.4551H8.48444V1.33398H10.6055V3.4551H19.09V1.33398H21.2111V3.4551H22.2717ZM3.18166 22.5451H18.0294V24.6662H3.18166C2.6191 24.6662 2.07959 24.4427 1.68181 24.0449C1.28402 23.6472 1.06055 23.1076 1.06055 22.5451V9.81843H3.18166V22.5451ZM20.1505 16.1818H15.9083V11.9395H20.1505V16.1818Z" fill="#5C574F"/>
</svg>
