<svg width="18" height="18" viewBox="0 0 18 18" fill="none" xmlns="http://www.w3.org/2000/svg">
<path d="M11.3333 10.6666C12.4384 10.6666 13.4982 11.1056 14.2796 11.887C15.061 12.6684 15.5 13.7282 15.5 14.8333V15.6666C15.5 16.1087 15.3244 16.5326 15.0118 16.8451C14.6993 17.1577 14.2754 17.3333 13.8333 17.3333H2.16667C1.72464 17.3333 1.30072 17.1577 0.988155 16.8451C0.675595 16.5326 0.5 16.1087 0.5 15.6666V14.8333C0.5 13.7282 0.938987 12.6684 1.72039 11.887C2.50179 11.1056 3.5616 10.6666 4.66667 10.6666H11.3333ZM15.845 6.56746C15.9946 6.41641 16.1963 6.32827 16.4088 6.32106C16.6213 6.31385 16.8285 6.38812 16.988 6.52868C17.1475 6.66924 17.2473 6.86545 17.2668 7.07715C17.2864 7.28885 17.2244 7.50002 17.0933 7.66746L17.0233 7.74663L14.6667 10.1033C14.5232 10.2468 14.3323 10.333 14.1297 10.3457C13.9272 10.3584 13.727 10.2968 13.5667 10.1725L13.4883 10.1033L12.31 8.92496C12.159 8.77534 12.0708 8.57365 12.0636 8.36117C12.0564 8.14869 12.1307 7.94149 12.2712 7.78198C12.4118 7.62246 12.608 7.52271 12.8197 7.50312C13.0314 7.48354 13.2426 7.54561 13.41 7.67663L13.4883 7.74663L14.0775 8.33579L15.845 6.56746ZM8 0.666626C9.10507 0.666626 10.1649 1.10561 10.9463 1.88701C11.7277 2.66842 12.1667 3.72822 12.1667 4.83329C12.1667 5.93836 11.7277 6.99817 10.9463 7.77957C10.1649 8.56097 9.10507 8.99996 8 8.99996C6.89493 8.99996 5.83512 8.56097 5.05372 7.77957C4.27232 6.99817 3.83333 5.93836 3.83333 4.83329C3.83333 3.72822 4.27232 2.66842 5.05372 1.88701C5.83512 1.10561 6.89493 0.666626 8 0.666626Z" fill="#152560"/>
</svg>
