<svg width="18" height="18" viewBox="0 0 18 18" fill="none" xmlns="http://www.w3.org/2000/svg">
<path d="M11.3333 10.7351C12.4384 10.7351 13.4982 11.1741 14.2796 11.9555C15.061 12.7369 15.5 13.7967 15.5 14.9018V15.7351C15.5 16.1771 15.3244 16.6011 15.0118 16.9136C14.6993 17.2262 14.2754 17.4018 13.8333 17.4018H2.16667C1.72464 17.4018 1.30072 17.2262 0.988155 16.9136C0.675595 16.6011 0.5 16.1771 0.5 15.7351V14.9018C0.5 13.7967 0.938987 12.7369 1.72039 11.9555C2.50179 11.1741 3.5616 10.7351 4.66667 10.7351H11.3333ZM14.6667 5.73511C14.8877 5.73511 15.0996 5.82291 15.2559 5.97919C15.4122 6.13547 15.5 6.34743 15.5 6.56844V7.40178H16.3333C16.5543 7.40178 16.7663 7.48957 16.9226 7.64585C17.0789 7.80213 17.1667 8.01409 17.1667 8.23511C17.1667 8.45612 17.0789 8.66808 16.9226 8.82436C16.7663 8.98065 16.5543 9.06844 16.3333 9.06844H15.5V9.90178C15.5 10.1228 15.4122 10.3348 15.2559 10.491C15.0996 10.6473 14.8877 10.7351 14.6667 10.7351C14.4457 10.7351 14.2337 10.6473 14.0774 10.491C13.9211 10.3348 13.8333 10.1228 13.8333 9.90178V9.06844H13C12.779 9.06844 12.567 8.98065 12.4107 8.82436C12.2545 8.66808 12.1667 8.45612 12.1667 8.23511C12.1667 8.01409 12.2545 7.80213 12.4107 7.64585C12.567 7.48957 12.779 7.40178 13 7.40178H13.8333V6.56844C13.8333 6.34743 13.9211 6.13547 14.0774 5.97919C14.2337 5.82291 14.4457 5.73511 14.6667 5.73511ZM8 0.735107C9.10507 0.735107 10.1649 1.17409 10.9463 1.9555C11.7277 2.7369 12.1667 3.79671 12.1667 4.90177C12.1667 6.00684 11.7277 7.06665 10.9463 7.84805C10.1649 8.62946 9.10507 9.06844 8 9.06844C6.89493 9.06844 5.83512 8.62946 5.05372 7.84805C4.27232 7.06665 3.83333 6.00684 3.83333 4.90177C3.83333 3.79671 4.27232 2.7369 5.05372 1.9555C5.83512 1.17409 6.89493 0.735107 8 0.735107Z" fill="white"/>
</svg>
