<svg width="32" height="32" viewBox="0 0 32 32" fill="none" xmlns="http://www.w3.org/2000/svg">
<path d="M14.9954 20.0002H6.33945L3.67278 26.6668H0.800781L9.33411 5.3335H12.0008L20.5341 26.6668H17.6621L14.9954 20.0002ZM13.9288 17.3335L10.6674 9.18016L7.40611 17.3335H13.9288ZM28.0008 16.7135V16.0002H30.6674V26.6668H28.0008V25.9535C27.19 26.4211 26.2704 26.6671 25.3344 26.6668C24.3984 26.6665 23.479 26.4199 22.6685 25.9517C21.858 25.4835 21.185 24.8103 20.7171 23.9996C20.2492 23.189 20.0029 22.2695 20.0029 21.3335C20.0029 20.3975 20.2492 19.478 20.7171 18.6673C21.185 17.8567 21.858 17.1835 22.6685 16.7153C23.479 16.2471 24.3984 16.0005 25.3344 16.0002C26.2704 15.9998 27.19 16.2459 28.0008 16.7135ZM25.3341 24.0002C26.0414 24.0002 26.7196 23.7192 27.2197 23.2191C27.7198 22.719 28.0008 22.0407 28.0008 21.3335C28.0008 20.6263 27.7198 19.948 27.2197 19.4479C26.7196 18.9478 26.0414 18.6668 25.3341 18.6668C24.6269 18.6668 23.9486 18.9478 23.4485 19.4479C22.9484 19.948 22.6674 20.6263 22.6674 21.3335C22.6674 22.0407 22.9484 22.719 23.4485 23.2191C23.9486 23.7192 24.6269 24.0002 25.3341 24.0002Z" fill="#222D49"/>
<path d="M14.9954 20.0002H6.33945L3.67278 26.6668H0.800781L9.33411 5.3335H12.0008L20.5341 26.6668H17.6621L14.9954 20.0002ZM13.9288 17.3335L10.6674 9.18016L7.40611 17.3335H13.9288ZM28.0008 16.7135V16.0002H30.6674V26.6668H28.0008V25.9535C27.19 26.4211 26.2704 26.6671 25.3344 26.6668C24.3984 26.6665 23.479 26.4199 22.6685 25.9517C21.858 25.4835 21.185 24.8103 20.7171 23.9996C20.2492 23.189 20.0029 22.2695 20.0029 21.3335C20.0029 20.3975 20.2492 19.478 20.7171 18.6673C21.185 17.8567 21.858 17.1835 22.6685 16.7153C23.479 16.2471 24.3984 16.0005 25.3344 16.0002C26.2704 15.9998 27.19 16.2459 28.0008 16.7135ZM25.3341 24.0002C26.0414 24.0002 26.7196 23.7192 27.2197 23.2191C27.7198 22.719 28.0008 22.0407 28.0008 21.3335C28.0008 20.6263 27.7198 19.948 27.2197 19.4479C26.7196 18.9478 26.0414 18.6668 25.3341 18.6668C24.6269 18.6668 23.9486 18.9478 23.4485 19.4479C22.9484 19.948 22.6674 20.6263 22.6674 21.3335C22.6674 22.0407 22.9484 22.719 23.4485 23.2191C23.9486 23.7192 24.6269 24.0002 25.3341 24.0002Z" fill="black" fill-opacity="0.2"/>
<path d="M14.9954 20.0002H6.33945L3.67278 26.6668H0.800781L9.33411 5.3335H12.0008L20.5341 26.6668H17.6621L14.9954 20.0002ZM13.9288 17.3335L10.6674 9.18016L7.40611 17.3335H13.9288ZM28.0008 16.7135V16.0002H30.6674V26.6668H28.0008V25.9535C27.19 26.4211 26.2704 26.6671 25.3344 26.6668C24.3984 26.6665 23.479 26.4199 22.6685 25.9517C21.858 25.4835 21.185 24.8103 20.7171 23.9996C20.2492 23.189 20.0029 22.2695 20.0029 21.3335C20.0029 20.3975 20.2492 19.478 20.7171 18.6673C21.185 17.8567 21.858 17.1835 22.6685 16.7153C23.479 16.2471 24.3984 16.0005 25.3344 16.0002C26.2704 15.9998 27.19 16.2459 28.0008 16.7135ZM25.3341 24.0002C26.0414 24.0002 26.7196 23.7192 27.2197 23.2191C27.7198 22.719 28.0008 22.0407 28.0008 21.3335C28.0008 20.6263 27.7198 19.948 27.2197 19.4479C26.7196 18.9478 26.0414 18.6668 25.3341 18.6668C24.6269 18.6668 23.9486 18.9478 23.4485 19.4479C22.9484 19.948 22.6674 20.6263 22.6674 21.3335C22.6674 22.0407 22.9484 22.719 23.4485 23.2191C23.9486 23.7192 24.6269 24.0002 25.3341 24.0002Z" fill="black" fill-opacity="0.2"/>
<path d="M14.9954 20.0002H6.33945L3.67278 26.6668H0.800781L9.33411 5.3335H12.0008L20.5341 26.6668H17.6621L14.9954 20.0002ZM13.9288 17.3335L10.6674 9.18016L7.40611 17.3335H13.9288ZM28.0008 16.7135V16.0002H30.6674V26.6668H28.0008V25.9535C27.19 26.4211 26.2704 26.6671 25.3344 26.6668C24.3984 26.6665 23.479 26.4199 22.6685 25.9517C21.858 25.4835 21.185 24.8103 20.7171 23.9996C20.2492 23.189 20.0029 22.2695 20.0029 21.3335C20.0029 20.3975 20.2492 19.478 20.7171 18.6673C21.185 17.8567 21.858 17.1835 22.6685 16.7153C23.479 16.2471 24.3984 16.0005 25.3344 16.0002C26.2704 15.9998 27.19 16.2459 28.0008 16.7135ZM25.3341 24.0002C26.0414 24.0002 26.7196 23.7192 27.2197 23.2191C27.7198 22.719 28.0008 22.0407 28.0008 21.3335C28.0008 20.6263 27.7198 19.948 27.2197 19.4479C26.7196 18.9478 26.0414 18.6668 25.3341 18.6668C24.6269 18.6668 23.9486 18.9478 23.4485 19.4479C22.9484 19.948 22.6674 20.6263 22.6674 21.3335C22.6674 22.0407 22.9484 22.719 23.4485 23.2191C23.9486 23.7192 24.6269 24.0002 25.3341 24.0002Z" fill="black" fill-opacity="0.2"/>
<path d="M14.9954 20.0002H6.33945L3.67278 26.6668H0.800781L9.33411 5.3335H12.0008L20.5341 26.6668H17.6621L14.9954 20.0002ZM13.9288 17.3335L10.6674 9.18016L7.40611 17.3335H13.9288ZM28.0008 16.7135V16.0002H30.6674V26.6668H28.0008V25.9535C27.19 26.4211 26.2704 26.6671 25.3344 26.6668C24.3984 26.6665 23.479 26.4199 22.6685 25.9517C21.858 25.4835 21.185 24.8103 20.7171 23.9996C20.2492 23.189 20.0029 22.2695 20.0029 21.3335C20.0029 20.3975 20.2492 19.478 20.7171 18.6673C21.185 17.8567 21.858 17.1835 22.6685 16.7153C23.479 16.2471 24.3984 16.0005 25.3344 16.0002C26.2704 15.9998 27.19 16.2459 28.0008 16.7135ZM25.3341 24.0002C26.0414 24.0002 26.7196 23.7192 27.2197 23.2191C27.7198 22.719 28.0008 22.0407 28.0008 21.3335C28.0008 20.6263 27.7198 19.948 27.2197 19.4479C26.7196 18.9478 26.0414 18.6668 25.3341 18.6668C24.6269 18.6668 23.9486 18.9478 23.4485 19.4479C22.9484 19.948 22.6674 20.6263 22.6674 21.3335C22.6674 22.0407 22.9484 22.719 23.4485 23.2191C23.9486 23.7192 24.6269 24.0002 25.3341 24.0002Z" fill="black" fill-opacity="0.2"/>
<path d="M14.9954 20.0002H6.33945L3.67278 26.6668H0.800781L9.33411 5.3335H12.0008L20.5341 26.6668H17.6621L14.9954 20.0002ZM13.9288 17.3335L10.6674 9.18016L7.40611 17.3335H13.9288ZM28.0008 16.7135V16.0002H30.6674V26.6668H28.0008V25.9535C27.19 26.4211 26.2704 26.6671 25.3344 26.6668C24.3984 26.6665 23.479 26.4199 22.6685 25.9517C21.858 25.4835 21.185 24.8103 20.7171 23.9996C20.2492 23.189 20.0029 22.2695 20.0029 21.3335C20.0029 20.3975 20.2492 19.478 20.7171 18.6673C21.185 17.8567 21.858 17.1835 22.6685 16.7153C23.479 16.2471 24.3984 16.0005 25.3344 16.0002C26.2704 15.9998 27.19 16.2459 28.0008 16.7135ZM25.3341 24.0002C26.0414 24.0002 26.7196 23.7192 27.2197 23.2191C27.7198 22.719 28.0008 22.0407 28.0008 21.3335C28.0008 20.6263 27.7198 19.948 27.2197 19.4479C26.7196 18.9478 26.0414 18.6668 25.3341 18.6668C24.6269 18.6668 23.9486 18.9478 23.4485 19.4479C22.9484 19.948 22.6674 20.6263 22.6674 21.3335C22.6674 22.0407 22.9484 22.719 23.4485 23.2191C23.9486 23.7192 24.6269 24.0002 25.3341 24.0002Z" fill="black" fill-opacity="0.2"/>
</svg>
