<svg width="27" height="27" viewBox="0 0 27 27" fill="none" xmlns="http://www.w3.org/2000/svg">
<path fill-rule="evenodd" clip-rule="evenodd" d="M12.6698 24.9008C12.6698 24.9008 4.5 18.0203 4.5 11.25C4.5 8.86305 5.44821 6.57387 7.13604 4.88604C8.82387 3.19821 11.1131 2.25 13.5 2.25C15.8869 2.25 18.1761 3.19821 19.864 4.88604C21.5518 6.57387 22.5 8.86305 22.5 11.25C22.5 18.0203 14.3303 24.9008 14.3303 24.9008C13.8758 25.3193 13.1276 25.3148 12.6698 24.9008ZM13.5 15.1875C14.0171 15.1875 14.5291 15.0857 15.0068 14.8878C15.4845 14.6899 15.9186 14.3999 16.2842 14.0342C16.6499 13.6686 16.9399 13.2345 17.1378 12.7568C17.3357 12.2791 17.4375 11.7671 17.4375 11.25C17.4375 10.7329 17.3357 10.2209 17.1378 9.74319C16.9399 9.26547 16.6499 8.8314 16.2842 8.46577C15.9186 8.10014 15.4845 7.8101 15.0068 7.61223C14.5291 7.41435 14.0171 7.3125 13.5 7.3125C12.4557 7.3125 11.4542 7.72734 10.7158 8.46577C9.97734 9.20419 9.5625 10.2057 9.5625 11.25C9.5625 12.2943 9.97734 13.2958 10.7158 14.0342C11.4542 14.7727 12.4557 15.1875 13.5 15.1875Z" fill="#222D49"/>
<path fill-rule="evenodd" clip-rule="evenodd" d="M12.6698 24.9008C12.6698 24.9008 4.5 18.0203 4.5 11.25C4.5 8.86305 5.44821 6.57387 7.13604 4.88604C8.82387 3.19821 11.1131 2.25 13.5 2.25C15.8869 2.25 18.1761 3.19821 19.864 4.88604C21.5518 6.57387 22.5 8.86305 22.5 11.25C22.5 18.0203 14.3303 24.9008 14.3303 24.9008C13.8758 25.3193 13.1276 25.3148 12.6698 24.9008ZM13.5 15.1875C14.0171 15.1875 14.5291 15.0857 15.0068 14.8878C15.4845 14.6899 15.9186 14.3999 16.2842 14.0342C16.6499 13.6686 16.9399 13.2345 17.1378 12.7568C17.3357 12.2791 17.4375 11.7671 17.4375 11.25C17.4375 10.7329 17.3357 10.2209 17.1378 9.74319C16.9399 9.26547 16.6499 8.8314 16.2842 8.46577C15.9186 8.10014 15.4845 7.8101 15.0068 7.61223C14.5291 7.41435 14.0171 7.3125 13.5 7.3125C12.4557 7.3125 11.4542 7.72734 10.7158 8.46577C9.97734 9.20419 9.5625 10.2057 9.5625 11.25C9.5625 12.2943 9.97734 13.2958 10.7158 14.0342C11.4542 14.7727 12.4557 15.1875 13.5 15.1875Z" fill="black" fill-opacity="0.2"/>
<path fill-rule="evenodd" clip-rule="evenodd" d="M12.6698 24.9008C12.6698 24.9008 4.5 18.0203 4.5 11.25C4.5 8.86305 5.44821 6.57387 7.13604 4.88604C8.82387 3.19821 11.1131 2.25 13.5 2.25C15.8869 2.25 18.1761 3.19821 19.864 4.88604C21.5518 6.57387 22.5 8.86305 22.5 11.25C22.5 18.0203 14.3303 24.9008 14.3303 24.9008C13.8758 25.3193 13.1276 25.3148 12.6698 24.9008ZM13.5 15.1875C14.0171 15.1875 14.5291 15.0857 15.0068 14.8878C15.4845 14.6899 15.9186 14.3999 16.2842 14.0342C16.6499 13.6686 16.9399 13.2345 17.1378 12.7568C17.3357 12.2791 17.4375 11.7671 17.4375 11.25C17.4375 10.7329 17.3357 10.2209 17.1378 9.74319C16.9399 9.26547 16.6499 8.8314 16.2842 8.46577C15.9186 8.10014 15.4845 7.8101 15.0068 7.61223C14.5291 7.41435 14.0171 7.3125 13.5 7.3125C12.4557 7.3125 11.4542 7.72734 10.7158 8.46577C9.97734 9.20419 9.5625 10.2057 9.5625 11.25C9.5625 12.2943 9.97734 13.2958 10.7158 14.0342C11.4542 14.7727 12.4557 15.1875 13.5 15.1875Z" fill="black" fill-opacity="0.2"/>
<path fill-rule="evenodd" clip-rule="evenodd" d="M12.6698 24.9008C12.6698 24.9008 4.5 18.0203 4.5 11.25C4.5 8.86305 5.44821 6.57387 7.13604 4.88604C8.82387 3.19821 11.1131 2.25 13.5 2.25C15.8869 2.25 18.1761 3.19821 19.864 4.88604C21.5518 6.57387 22.5 8.86305 22.5 11.25C22.5 18.0203 14.3303 24.9008 14.3303 24.9008C13.8758 25.3193 13.1276 25.3148 12.6698 24.9008ZM13.5 15.1875C14.0171 15.1875 14.5291 15.0857 15.0068 14.8878C15.4845 14.6899 15.9186 14.3999 16.2842 14.0342C16.6499 13.6686 16.9399 13.2345 17.1378 12.7568C17.3357 12.2791 17.4375 11.7671 17.4375 11.25C17.4375 10.7329 17.3357 10.2209 17.1378 9.74319C16.9399 9.26547 16.6499 8.8314 16.2842 8.46577C15.9186 8.10014 15.4845 7.8101 15.0068 7.61223C14.5291 7.41435 14.0171 7.3125 13.5 7.3125C12.4557 7.3125 11.4542 7.72734 10.7158 8.46577C9.97734 9.20419 9.5625 10.2057 9.5625 11.25C9.5625 12.2943 9.97734 13.2958 10.7158 14.0342C11.4542 14.7727 12.4557 15.1875 13.5 15.1875Z" fill="black" fill-opacity="0.2"/>
<path fill-rule="evenodd" clip-rule="evenodd" d="M12.6698 24.9008C12.6698 24.9008 4.5 18.0203 4.5 11.25C4.5 8.86305 5.44821 6.57387 7.13604 4.88604C8.82387 3.19821 11.1131 2.25 13.5 2.25C15.8869 2.25 18.1761 3.19821 19.864 4.88604C21.5518 6.57387 22.5 8.86305 22.5 11.25C22.5 18.0203 14.3303 24.9008 14.3303 24.9008C13.8758 25.3193 13.1276 25.3148 12.6698 24.9008ZM13.5 15.1875C14.0171 15.1875 14.5291 15.0857 15.0068 14.8878C15.4845 14.6899 15.9186 14.3999 16.2842 14.0342C16.6499 13.6686 16.9399 13.2345 17.1378 12.7568C17.3357 12.2791 17.4375 11.7671 17.4375 11.25C17.4375 10.7329 17.3357 10.2209 17.1378 9.74319C16.9399 9.26547 16.6499 8.8314 16.2842 8.46577C15.9186 8.10014 15.4845 7.8101 15.0068 7.61223C14.5291 7.41435 14.0171 7.3125 13.5 7.3125C12.4557 7.3125 11.4542 7.72734 10.7158 8.46577C9.97734 9.20419 9.5625 10.2057 9.5625 11.25C9.5625 12.2943 9.97734 13.2958 10.7158 14.0342C11.4542 14.7727 12.4557 15.1875 13.5 15.1875Z" fill="black" fill-opacity="0.2"/>
<path fill-rule="evenodd" clip-rule="evenodd" d="M12.6698 24.9008C12.6698 24.9008 4.5 18.0203 4.5 11.25C4.5 8.86305 5.44821 6.57387 7.13604 4.88604C8.82387 3.19821 11.1131 2.25 13.5 2.25C15.8869 2.25 18.1761 3.19821 19.864 4.88604C21.5518 6.57387 22.5 8.86305 22.5 11.25C22.5 18.0203 14.3303 24.9008 14.3303 24.9008C13.8758 25.3193 13.1276 25.3148 12.6698 24.9008ZM13.5 15.1875C14.0171 15.1875 14.5291 15.0857 15.0068 14.8878C15.4845 14.6899 15.9186 14.3999 16.2842 14.0342C16.6499 13.6686 16.9399 13.2345 17.1378 12.7568C17.3357 12.2791 17.4375 11.7671 17.4375 11.25C17.4375 10.7329 17.3357 10.2209 17.1378 9.74319C16.9399 9.26547 16.6499 8.8314 16.2842 8.46577C15.9186 8.10014 15.4845 7.8101 15.0068 7.61223C14.5291 7.41435 14.0171 7.3125 13.5 7.3125C12.4557 7.3125 11.4542 7.72734 10.7158 8.46577C9.97734 9.20419 9.5625 10.2057 9.5625 11.25C9.5625 12.2943 9.97734 13.2958 10.7158 14.0342C11.4542 14.7727 12.4557 15.1875 13.5 15.1875Z" fill="black" fill-opacity="0.2"/>
</svg>
