<svg width="33" height="32" viewBox="0 0 33 32" fill="none" xmlns="http://www.w3.org/2000/svg">
<mask id="mask0_2068_6468" style="mask-type:alpha" maskUnits="userSpaceOnUse" x="0" y="0" width="33" height="32">
<rect x="0.0605469" width="32.0914" height="32" fill="#D9D9D9"/>
</mask>
<g mask="url(#mask0_2068_6468)">
<path d="M6.74655 28C6.01112 28 5.38155 27.7389 4.85784 27.2167C4.33412 26.6944 4.07227 26.0667 4.07227 25.3333V20H6.74655V25.3333H25.4666V6.66667H6.74655V12H4.07227V6.66667C4.07227 5.93333 4.33412 5.30556 4.85784 4.78333C5.38155 4.26111 6.01112 4 6.74655 4H25.4666C26.202 4 26.8316 4.26111 27.3553 4.78333C27.879 5.30556 28.1408 5.93333 28.1408 6.66667V25.3333C28.1408 26.0667 27.879 26.6944 27.3553 27.2167C26.8316 27.7389 26.202 28 25.4666 28H6.74655ZM14.1008 22.6667L12.2288 20.7333L15.6386 17.3333H4.07227V14.6667H15.6386L12.2288 11.2667L14.1008 9.33333L20.7866 16L14.1008 22.6667Z" fill="black"/>
</g>
</svg>
