<svg width="130" height="130" viewBox="0 0 130 130" fill="none" xmlns="http://www.w3.org/2000/svg">
<circle cx="65" cy="65" r="65" fill="#506BAE"/>
<path d="M37.6285 97.7408C35.1828 97.7408 33.2 96.0169 33.2 93.8911V32.8514C33.2 31.2386 34.3571 29.795 36.0927 29.2397C37.8336 28.6792 39.7849 29.1234 40.9893 30.3449C41.0419 30.3978 41.0945 30.4507 41.1471 30.5036L61.1699 50.836C62.0114 51.6927 61.7642 53.0993 60.707 53.6651C59.4658 54.3261 58.3876 55.1828 57.4514 56.2245C56.7677 56.9807 55.6001 57.023 54.8848 56.2986L45.0706 46.3306C43.9609 45.2043 42.0569 45.9922 42.0569 47.5786V93.8964C42.0569 96.0222 40.0741 97.7461 37.6285 97.7461V97.7408Z" fill="#9B9385"/>
<path d="M96.7922 96.4293C95.5247 96.4293 94.2835 95.9693 93.4262 95.1285C93.3736 95.0756 93.321 95.028 93.2684 94.9751L73.6716 75.7796C72.9142 75.0393 73.2246 73.786 74.2186 73.4211C75.8543 72.8183 77.3427 71.4699 77.9213 70.1796C78.1737 69.619 78.8943 69.471 79.3361 69.8993L91.1804 81.5012C91.6222 81.9349 92.3638 81.6176 92.3638 80.9989V34.0201C92.3638 31.9683 94.3466 30.3079 96.7922 30.3079C99.2379 30.3079 101.221 31.9683 101.221 34.0201V92.7171C101.221 94.2718 100.064 95.6626 98.328 96.202C97.8284 96.3553 97.3077 96.4346 96.7922 96.4346V96.4293Z" fill="#9B9385"/>
<path d="M67.8757 73.1515C73.2494 73.1515 77.6057 68.7715 77.6057 63.3686C77.6057 57.9657 73.2494 53.5858 67.8757 53.5858C62.5019 53.5858 58.1457 57.9657 58.1457 63.3686C58.1457 68.7715 62.5019 73.1515 67.8757 73.1515Z" fill="#DBCFBB"/>
<path d="M34.4285 101.814C31.9828 101.814 30 100.09 30 97.9642V36.9245C30 35.3117 31.1571 33.868 32.8927 33.3128C34.6336 32.7523 36.5849 33.1964 37.7893 34.418C37.8419 34.4709 37.8945 34.5237 37.9471 34.5766L57.9699 54.9091C58.8114 55.7657 58.5642 57.1724 57.507 57.7382C56.2658 58.3992 55.1876 59.2558 54.2514 60.2976C53.5677 61.0538 52.4001 61.0961 51.6848 60.3716L41.8706 50.4037C40.7609 49.2773 38.8569 50.0652 38.8569 51.6517V97.9695C38.8569 100.095 36.8741 101.819 34.4285 101.819V101.814Z" fill="#E7DFD1"/>
<path d="M93.4777 100.502C92.2102 100.502 90.969 100.042 90.1117 99.2015C90.0591 99.1487 90.0065 99.1011 89.9539 99.0482L70.3571 79.8527C69.5997 79.1123 69.91 77.8591 70.9041 77.4942C72.5398 76.8914 74.0282 75.5429 74.6067 74.2526C74.8592 73.6921 75.5797 73.544 76.0215 73.9724L87.8659 85.5743C88.3077 86.0079 89.0492 85.6906 89.0492 85.0719V38.0931C89.0492 36.0414 91.0321 34.3809 93.4777 34.3809C95.9234 34.3809 97.9062 36.0414 97.9062 38.0931V96.7902C97.9062 98.3449 96.7491 99.7356 95.0135 100.275C94.5138 100.428 93.9931 100.508 93.4777 100.508V100.502Z" fill="#E7DFD1"/>
<path d="M64.2051 77.2245C69.5789 77.2245 73.9351 72.8446 73.9351 67.4417C73.9351 62.0388 69.5789 57.6588 64.2051 57.6588C58.8314 57.6588 54.4751 62.0388 54.4751 67.4417C54.4751 72.8446 58.8314 77.2245 64.2051 77.2245Z" fill="#E7DFD1"/>
</svg>
