<svg width="130" height="130" viewBox="0 0 130 130" fill="none" xmlns="http://www.w3.org/2000/svg">
<circle cx="65" cy="65" r="65" fill="#F4F0EA"/>
<path d="M36.6285 97.7408C34.1828 97.7408 32.2 96.0169 32.2 93.8911V32.8514C32.2 31.2386 33.3571 29.795 35.0927 29.2397C36.8336 28.6792 38.7849 29.1234 39.9893 30.3449C40.0419 30.3978 40.0945 30.4507 40.1471 30.5036L60.1699 50.836C61.0114 51.6927 60.7642 53.0993 59.707 53.6651C58.4658 54.3261 57.3876 55.1828 56.4514 56.2245C55.7677 56.9807 54.6001 57.023 53.8848 56.2986L44.0706 46.3306C42.9609 45.2043 41.0569 45.9922 41.0569 47.5786V93.8964C41.0569 96.0222 39.0741 97.7461 36.6285 97.7461V97.7408Z" fill="#8A9CC9"/>
<path d="M95.7922 96.4293C94.5247 96.4293 93.2835 95.9693 92.4262 95.1285C92.3736 95.0756 92.321 95.028 92.2684 94.9751L72.6716 75.7796C71.9142 75.0393 72.2246 73.786 73.2186 73.4211C74.8543 72.8183 76.3427 71.4699 76.9213 70.1796C77.1737 69.619 77.8943 69.471 78.3361 69.8993L90.1804 81.5012C90.6222 81.9349 91.3638 81.6176 91.3638 80.9989V34.0201C91.3638 31.9683 93.3466 30.3079 95.7922 30.3079C98.2379 30.3079 100.221 31.9683 100.221 34.0201V92.7171C100.221 94.2718 99.0636 95.6626 97.328 96.202C96.8284 96.3553 96.3077 96.4346 95.7922 96.4346V96.4293Z" fill="#8A9CC9"/>
<path d="M66.8757 73.1515C72.2494 73.1515 76.6057 68.7715 76.6057 63.3686C76.6057 57.9657 72.2494 53.5858 66.8757 53.5858C61.5019 53.5858 57.1457 57.9657 57.1457 63.3686C57.1457 68.7715 61.5019 73.1515 66.8757 73.1515Z" fill="#C9D1E6"/>
<path d="M33.4285 101.814C30.9828 101.814 29 100.09 29 97.9642V36.9245C29 35.3117 30.1571 33.868 31.8927 33.3128C33.6336 32.7523 35.5849 33.1964 36.7893 34.418C36.8419 34.4709 36.8945 34.5237 36.9471 34.5766L56.9699 54.9091C57.8114 55.7657 57.5642 57.1724 56.507 57.7382C55.2658 58.3992 54.1876 59.2558 53.2514 60.2976C52.5677 61.0538 51.4001 61.0961 50.6848 60.3716L40.8706 50.4037C39.7609 49.2773 37.8569 50.0652 37.8569 51.6517V97.9695C37.8569 100.095 35.8741 101.819 33.4285 101.819V101.814Z" fill="#506BAE"/>
<path d="M92.4777 100.502C91.2102 100.502 89.969 100.042 89.1117 99.2015C89.0591 99.1487 89.0065 99.1011 88.9539 99.0482L69.3571 79.8527C68.5997 79.1123 68.91 77.8591 69.9041 77.4942C71.5398 76.8914 73.0282 75.5429 73.6068 74.2526C73.8592 73.6921 74.5798 73.544 75.0215 73.9724L86.8659 85.5743C87.3077 86.0079 88.0493 85.6906 88.0493 85.0719V38.0931C88.0493 36.0414 90.0321 34.3809 92.4777 34.3809C94.9234 34.3809 96.9062 36.0414 96.9062 38.0931V96.7902C96.9062 98.3449 95.7491 99.7356 94.0135 100.275C93.5138 100.428 92.9932 100.508 92.4777 100.508V100.502Z" fill="#506BAE"/>
<path d="M63.2051 77.2245C68.5789 77.2245 72.9352 72.8446 72.9352 67.4417C72.9352 62.0388 68.5789 57.6588 63.2051 57.6588C57.8314 57.6588 53.4751 62.0388 53.4751 67.4417C53.4751 72.8446 57.8314 77.2245 63.2051 77.2245Z" fill="#8A9CC9"/>
</svg>
