<svg width="44" height="44" viewBox="0 0 44 44" fill="none" xmlns="http://www.w3.org/2000/svg">
<path d="M21.7312 35.2243C22.4879 35.2243 23.1275 34.963 23.65 34.4406C24.1725 33.9181 24.4337 33.2785 24.4337 32.5218C24.4337 31.7651 24.1725 31.1255 23.65 30.6031C23.1275 30.0806 22.4879 29.8194 21.7312 29.8194C20.9746 29.8194 20.335 30.0806 19.8125 30.6031C19.29 31.1255 19.0288 31.7651 19.0288 32.5218C19.0288 33.2785 19.29 33.9181 19.8125 34.4406C20.335 34.963 20.9746 35.2243 21.7312 35.2243ZM19.7855 26.9007H23.7851C23.7851 25.7116 23.9202 24.7748 24.1905 24.0901C24.4607 23.4055 25.2264 22.4687 26.4876 21.2796C27.4244 20.3427 28.1631 19.4509 28.7036 18.6042C29.2441 17.7574 29.5143 16.7395 29.5143 15.5504C29.5143 13.5325 28.7757 11.9831 27.2983 10.9021C25.821 9.82116 24.0734 9.28067 22.0555 9.28067C20.0017 9.28067 18.3351 9.82116 17.056 10.9021C15.7768 11.9831 14.885 13.2803 14.3806 14.7937L17.9478 16.199C18.128 15.5504 18.5333 14.8477 19.1639 14.091C19.7945 13.3344 20.7584 12.956 22.0555 12.956C23.2086 12.956 24.0734 13.2713 24.6499 13.9019C25.2264 14.5324 25.5147 15.2261 25.5147 15.9828C25.5147 16.7034 25.2985 17.379 24.8661 18.0096C24.4337 18.6402 23.8932 19.2257 23.2446 19.7662C21.6592 21.1715 20.6863 22.2345 20.326 22.9551C19.9656 23.6758 19.7855 24.991 19.7855 26.9007ZM21.8393 43.8721C18.8486 43.8721 16.0381 43.3046 13.4077 42.1696C10.7773 41.0346 8.48919 39.4942 6.54342 37.5484C4.59765 35.6026 3.05725 33.3145 1.92221 30.6841C0.787182 28.0538 0.219666 25.2432 0.219666 22.2525C0.219666 19.2617 0.787182 16.4512 1.92221 13.8208C3.05725 11.1904 4.59765 8.90232 6.54342 6.95655C8.48919 5.01078 10.7773 3.47038 13.4077 2.33535C16.0381 1.20031 18.8486 0.632797 21.8393 0.632797C24.8301 0.632797 27.6406 1.20031 30.271 2.33535C32.9014 3.47038 35.1895 5.01078 37.1353 6.95655C39.081 8.90232 40.6214 11.1904 41.7565 13.8208C42.8915 16.4512 43.459 19.2617 43.459 22.2525C43.459 25.2432 42.8915 28.0538 41.7565 30.6841C40.6214 33.3145 39.081 35.6026 37.1353 37.5484C35.1895 39.4942 32.9014 41.0346 30.271 42.1696C27.6406 43.3046 24.8301 43.8721 21.8393 43.8721ZM21.8393 39.5482C26.6677 39.5482 30.7575 37.8727 34.1085 34.5216C37.4596 31.1706 39.1351 27.0809 39.1351 22.2525C39.1351 17.4241 37.4596 13.3344 34.1085 9.98331C30.7575 6.63226 26.6677 4.95673 21.8393 4.95673C17.0109 4.95673 12.9212 6.63226 9.57017 9.98331C6.21913 13.3344 4.5436 17.4241 4.5436 22.2525C4.5436 27.0809 6.21913 31.1706 9.57017 34.5216C12.9212 37.8727 17.0109 39.5482 21.8393 39.5482Z" fill="#1C1B1F"/>
</svg>
