<svg width="25" height="25" viewBox="0 0 25 25" fill="none" xmlns="http://www.w3.org/2000/svg">
<path d="M12.3541 5.66233L11.7981 6.19767C11.8702 6.2724 11.9565 6.33184 12.052 6.37244C12.1476 6.41304 12.2503 6.43397 12.3541 6.43397C12.4579 6.43397 12.5606 6.41304 12.6561 6.37244C12.7516 6.33184 12.838 6.2724 12.91 6.19767L12.3541 5.66233ZM9.70412 18.8627C8.14339 17.6324 6.4375 16.431 5.08369 14.9073C3.75769 13.4125 2.83113 11.6695 2.83113 9.40665H1.28687C1.28687 12.1513 2.42962 14.2453 3.92961 15.9327C5.40181 17.5902 7.27963 18.9183 8.74771 20.0754L9.70412 18.8627ZM2.83113 9.40665C2.83113 7.19321 4.08198 5.33598 5.78993 4.55458C7.4495 3.79583 9.67942 3.99659 11.7981 6.19767L12.91 5.12802C10.398 2.51615 7.47833 2.08479 5.14752 3.15033C2.86819 4.19322 1.28687 6.61463 1.28687 9.40665H2.83113ZM8.74771 20.0754C9.27585 20.4914 9.84208 20.9341 10.4155 21.2697C10.989 21.6053 11.6437 21.8771 12.3541 21.8771V20.3328C12.0349 20.3328 11.6602 20.2093 11.1949 19.9365C10.7285 19.6647 10.2456 19.2899 9.70412 18.8627L8.74771 20.0754ZM15.9604 20.0754C17.4285 18.9172 19.3063 17.5912 20.7785 15.9327C22.2785 14.2443 23.4213 12.1513 23.4213 9.40665H21.877C21.877 11.6695 20.9505 13.4125 19.6245 14.9073C18.2707 16.431 16.5648 17.6324 15.004 18.8627L15.9604 20.0754ZM23.4213 9.40665C23.4213 6.61463 21.841 4.19322 19.5606 3.15033C17.2298 2.08479 14.3122 2.51615 11.7981 5.12699L12.91 6.19767C15.0287 3.99762 17.2587 3.79583 18.9182 4.55458C20.6262 5.33598 21.877 7.19218 21.877 9.40665H23.4213ZM15.004 18.8627C14.4625 19.2899 13.9797 19.6647 13.5133 19.9365C13.0469 20.2083 12.6732 20.3328 12.3541 20.3328V21.8771C13.0644 21.8771 13.7192 21.6043 14.2926 21.2697C14.8671 20.9341 15.4323 20.4914 15.9604 20.0754L15.004 18.8627Z" fill="#0F1A44"/>
</svg>
