<svg width="33" height="33" viewBox="0 0 33 33" fill="none" xmlns="http://www.w3.org/2000/svg">
<path d="M17.8746 15.8125C17.8746 15.2655 18.0919 14.7409 18.4787 14.3541C18.8655 13.9673 19.3901 13.75 19.9371 13.75C20.4841 13.75 21.0087 13.9673 21.3955 14.3541C21.7823 14.7409 21.9996 15.2655 21.9996 15.8125C21.9996 16.3595 21.7823 16.8841 21.3955 17.2709C21.0087 17.6577 20.4841 17.875 19.9371 17.875C19.3901 17.875 18.8655 17.6577 18.4787 17.2709C18.0919 16.8841 17.8746 16.3595 17.8746 15.8125ZM15.3116 18.0166C15.2189 17.8683 15.09 17.746 14.937 17.6612C14.784 17.5764 14.612 17.5319 14.4371 17.5319C14.2622 17.5319 14.0901 17.5764 13.9372 17.6612C13.7842 17.746 13.6553 17.8683 13.5626 18.0166L10.1251 23.5166C10.0277 23.6727 9.97383 23.852 9.96909 24.0359C9.96435 24.2199 10.0089 24.4017 10.0981 24.5626C10.1873 24.7235 10.318 24.8576 10.4765 24.951C10.635 25.0444 10.8156 25.0937 10.9996 25.0938H21.9996C22.1911 25.0938 22.3788 25.0404 22.5417 24.9397C22.7046 24.839 22.8363 24.695 22.922 24.5237C23.0076 24.3524 23.0439 24.1606 23.0267 23.9699C23.0095 23.7791 22.9395 23.597 22.8246 23.4437L20.7621 20.6938C20.666 20.5657 20.5415 20.4617 20.3983 20.3901C20.2551 20.3185 20.0972 20.2812 19.9371 20.2812C19.777 20.2812 19.6191 20.3185 19.4759 20.3901C19.3327 20.4617 19.2081 20.5657 19.1121 20.6938L17.9516 22.2406L15.3116 18.0166Z" fill="#222D49"/>
<path d="M17.8746 15.8125C17.8746 15.2655 18.0919 14.7409 18.4787 14.3541C18.8655 13.9673 19.3901 13.75 19.9371 13.75C20.4841 13.75 21.0087 13.9673 21.3955 14.3541C21.7823 14.7409 21.9996 15.2655 21.9996 15.8125C21.9996 16.3595 21.7823 16.8841 21.3955 17.2709C21.0087 17.6577 20.4841 17.875 19.9371 17.875C19.3901 17.875 18.8655 17.6577 18.4787 17.2709C18.0919 16.8841 17.8746 16.3595 17.8746 15.8125ZM15.3116 18.0166C15.2189 17.8683 15.09 17.746 14.937 17.6612C14.784 17.5764 14.612 17.5319 14.4371 17.5319C14.2622 17.5319 14.0901 17.5764 13.9372 17.6612C13.7842 17.746 13.6553 17.8683 13.5626 18.0166L10.1251 23.5166C10.0277 23.6727 9.97383 23.852 9.96909 24.0359C9.96435 24.2199 10.0089 24.4017 10.0981 24.5626C10.1873 24.7235 10.318 24.8576 10.4765 24.951C10.635 25.0444 10.8156 25.0937 10.9996 25.0938H21.9996C22.1911 25.0938 22.3788 25.0404 22.5417 24.9397C22.7046 24.839 22.8363 24.695 22.922 24.5237C23.0076 24.3524 23.0439 24.1606 23.0267 23.9699C23.0095 23.7791 22.9395 23.597 22.8246 23.4437L20.7621 20.6938C20.666 20.5657 20.5415 20.4617 20.3983 20.3901C20.2551 20.3185 20.0972 20.2812 19.9371 20.2812C19.777 20.2812 19.6191 20.3185 19.4759 20.3901C19.3327 20.4617 19.2081 20.5657 19.1121 20.6938L17.9516 22.2406L15.3116 18.0166Z" fill="black" fill-opacity="0.2"/>
<path d="M17.8746 15.8125C17.8746 15.2655 18.0919 14.7409 18.4787 14.3541C18.8655 13.9673 19.3901 13.75 19.9371 13.75C20.4841 13.75 21.0087 13.9673 21.3955 14.3541C21.7823 14.7409 21.9996 15.2655 21.9996 15.8125C21.9996 16.3595 21.7823 16.8841 21.3955 17.2709C21.0087 17.6577 20.4841 17.875 19.9371 17.875C19.3901 17.875 18.8655 17.6577 18.4787 17.2709C18.0919 16.8841 17.8746 16.3595 17.8746 15.8125ZM15.3116 18.0166C15.2189 17.8683 15.09 17.746 14.937 17.6612C14.784 17.5764 14.612 17.5319 14.4371 17.5319C14.2622 17.5319 14.0901 17.5764 13.9372 17.6612C13.7842 17.746 13.6553 17.8683 13.5626 18.0166L10.1251 23.5166C10.0277 23.6727 9.97383 23.852 9.96909 24.0359C9.96435 24.2199 10.0089 24.4017 10.0981 24.5626C10.1873 24.7235 10.318 24.8576 10.4765 24.951C10.635 25.0444 10.8156 25.0937 10.9996 25.0938H21.9996C22.1911 25.0938 22.3788 25.0404 22.5417 24.9397C22.7046 24.839 22.8363 24.695 22.922 24.5237C23.0076 24.3524 23.0439 24.1606 23.0267 23.9699C23.0095 23.7791 22.9395 23.597 22.8246 23.4437L20.7621 20.6938C20.666 20.5657 20.5415 20.4617 20.3983 20.3901C20.2551 20.3185 20.0972 20.2812 19.9371 20.2812C19.777 20.2812 19.6191 20.3185 19.4759 20.3901C19.3327 20.4617 19.2081 20.5657 19.1121 20.6938L17.9516 22.2406L15.3116 18.0166Z" fill="black" fill-opacity="0.2"/>
<path d="M17.8746 15.8125C17.8746 15.2655 18.0919 14.7409 18.4787 14.3541C18.8655 13.9673 19.3901 13.75 19.9371 13.75C20.4841 13.75 21.0087 13.9673 21.3955 14.3541C21.7823 14.7409 21.9996 15.2655 21.9996 15.8125C21.9996 16.3595 21.7823 16.8841 21.3955 17.2709C21.0087 17.6577 20.4841 17.875 19.9371 17.875C19.3901 17.875 18.8655 17.6577 18.4787 17.2709C18.0919 16.8841 17.8746 16.3595 17.8746 15.8125ZM15.3116 18.0166C15.2189 17.8683 15.09 17.746 14.937 17.6612C14.784 17.5764 14.612 17.5319 14.4371 17.5319C14.2622 17.5319 14.0901 17.5764 13.9372 17.6612C13.7842 17.746 13.6553 17.8683 13.5626 18.0166L10.1251 23.5166C10.0277 23.6727 9.97383 23.852 9.96909 24.0359C9.96435 24.2199 10.0089 24.4017 10.0981 24.5626C10.1873 24.7235 10.318 24.8576 10.4765 24.951C10.635 25.0444 10.8156 25.0937 10.9996 25.0938H21.9996C22.1911 25.0938 22.3788 25.0404 22.5417 24.9397C22.7046 24.839 22.8363 24.695 22.922 24.5237C23.0076 24.3524 23.0439 24.1606 23.0267 23.9699C23.0095 23.7791 22.9395 23.597 22.8246 23.4437L20.7621 20.6938C20.666 20.5657 20.5415 20.4617 20.3983 20.3901C20.2551 20.3185 20.0972 20.2812 19.9371 20.2812C19.777 20.2812 19.6191 20.3185 19.4759 20.3901C19.3327 20.4617 19.2081 20.5657 19.1121 20.6938L17.9516 22.2406L15.3116 18.0166Z" fill="black" fill-opacity="0.2"/>
<path d="M17.8746 15.8125C17.8746 15.2655 18.0919 14.7409 18.4787 14.3541C18.8655 13.9673 19.3901 13.75 19.9371 13.75C20.4841 13.75 21.0087 13.9673 21.3955 14.3541C21.7823 14.7409 21.9996 15.2655 21.9996 15.8125C21.9996 16.3595 21.7823 16.8841 21.3955 17.2709C21.0087 17.6577 20.4841 17.875 19.9371 17.875C19.3901 17.875 18.8655 17.6577 18.4787 17.2709C18.0919 16.8841 17.8746 16.3595 17.8746 15.8125ZM15.3116 18.0166C15.2189 17.8683 15.09 17.746 14.937 17.6612C14.784 17.5764 14.612 17.5319 14.4371 17.5319C14.2622 17.5319 14.0901 17.5764 13.9372 17.6612C13.7842 17.746 13.6553 17.8683 13.5626 18.0166L10.1251 23.5166C10.0277 23.6727 9.97383 23.852 9.96909 24.0359C9.96435 24.2199 10.0089 24.4017 10.0981 24.5626C10.1873 24.7235 10.318 24.8576 10.4765 24.951C10.635 25.0444 10.8156 25.0937 10.9996 25.0938H21.9996C22.1911 25.0938 22.3788 25.0404 22.5417 24.9397C22.7046 24.839 22.8363 24.695 22.922 24.5237C23.0076 24.3524 23.0439 24.1606 23.0267 23.9699C23.0095 23.7791 22.9395 23.597 22.8246 23.4437L20.7621 20.6938C20.666 20.5657 20.5415 20.4617 20.3983 20.3901C20.2551 20.3185 20.0972 20.2812 19.9371 20.2812C19.777 20.2812 19.6191 20.3185 19.4759 20.3901C19.3327 20.4617 19.2081 20.5657 19.1121 20.6938L17.9516 22.2406L15.3116 18.0166Z" fill="black" fill-opacity="0.2"/>
<path d="M17.8746 15.8125C17.8746 15.2655 18.0919 14.7409 18.4787 14.3541C18.8655 13.9673 19.3901 13.75 19.9371 13.75C20.4841 13.75 21.0087 13.9673 21.3955 14.3541C21.7823 14.7409 21.9996 15.2655 21.9996 15.8125C21.9996 16.3595 21.7823 16.8841 21.3955 17.2709C21.0087 17.6577 20.4841 17.875 19.9371 17.875C19.3901 17.875 18.8655 17.6577 18.4787 17.2709C18.0919 16.8841 17.8746 16.3595 17.8746 15.8125ZM15.3116 18.0166C15.2189 17.8683 15.09 17.746 14.937 17.6612C14.784 17.5764 14.612 17.5319 14.4371 17.5319C14.2622 17.5319 14.0901 17.5764 13.9372 17.6612C13.7842 17.746 13.6553 17.8683 13.5626 18.0166L10.1251 23.5166C10.0277 23.6727 9.97383 23.852 9.96909 24.0359C9.96435 24.2199 10.0089 24.4017 10.0981 24.5626C10.1873 24.7235 10.318 24.8576 10.4765 24.951C10.635 25.0444 10.8156 25.0937 10.9996 25.0938H21.9996C22.1911 25.0938 22.3788 25.0404 22.5417 24.9397C22.7046 24.839 22.8363 24.695 22.922 24.5237C23.0076 24.3524 23.0439 24.1606 23.0267 23.9699C23.0095 23.7791 22.9395 23.597 22.8246 23.4437L20.7621 20.6938C20.666 20.5657 20.5415 20.4617 20.3983 20.3901C20.2551 20.3185 20.0972 20.2812 19.9371 20.2812C19.777 20.2812 19.6191 20.3185 19.4759 20.3901C19.3327 20.4617 19.2081 20.5657 19.1121 20.6938L17.9516 22.2406L15.3116 18.0166Z" fill="black" fill-opacity="0.2"/>
<path fill-rule="evenodd" clip-rule="evenodd" d="M9.625 3.09375C8.62215 3.09375 7.66037 3.49213 6.95125 4.20125C6.24213 4.91037 5.84375 5.87215 5.84375 6.875V26.125C5.84375 27.1278 6.24213 28.0896 6.95125 28.7987C7.66037 29.5079 8.62215 29.9062 9.625 29.9062H23.375C24.3778 29.9062 25.3396 29.5079 26.0487 28.7987C26.7579 28.0896 27.1562 27.1278 27.1562 26.125V10.956C27.1562 10.4321 26.9858 9.92338 26.6695 9.50537L22.5473 4.04937C22.323 3.75254 22.0329 3.51175 21.6998 3.34594C21.3668 3.18012 20.9998 3.0938 20.6277 3.09375H9.625ZM7.90625 6.875C7.90625 5.92625 8.67625 5.15625 9.625 5.15625H19.5938V11.2021C19.5938 11.7714 20.0557 12.2334 20.625 12.2334H25.0938V26.125C25.0938 27.0737 24.3237 27.8438 23.375 27.8438H9.625C8.67625 27.8438 7.90625 27.0737 7.90625 26.125V6.875Z" fill="#222D49"/>
<path fill-rule="evenodd" clip-rule="evenodd" d="M9.625 3.09375C8.62215 3.09375 7.66037 3.49213 6.95125 4.20125C6.24213 4.91037 5.84375 5.87215 5.84375 6.875V26.125C5.84375 27.1278 6.24213 28.0896 6.95125 28.7987C7.66037 29.5079 8.62215 29.9062 9.625 29.9062H23.375C24.3778 29.9062 25.3396 29.5079 26.0487 28.7987C26.7579 28.0896 27.1562 27.1278 27.1562 26.125V10.956C27.1562 10.4321 26.9858 9.92338 26.6695 9.50537L22.5473 4.04937C22.323 3.75254 22.0329 3.51175 21.6998 3.34594C21.3668 3.18012 20.9998 3.0938 20.6277 3.09375H9.625ZM7.90625 6.875C7.90625 5.92625 8.67625 5.15625 9.625 5.15625H19.5938V11.2021C19.5938 11.7714 20.0557 12.2334 20.625 12.2334H25.0938V26.125C25.0938 27.0737 24.3237 27.8438 23.375 27.8438H9.625C8.67625 27.8438 7.90625 27.0737 7.90625 26.125V6.875Z" fill="black" fill-opacity="0.2"/>
<path fill-rule="evenodd" clip-rule="evenodd" d="M9.625 3.09375C8.62215 3.09375 7.66037 3.49213 6.95125 4.20125C6.24213 4.91037 5.84375 5.87215 5.84375 6.875V26.125C5.84375 27.1278 6.24213 28.0896 6.95125 28.7987C7.66037 29.5079 8.62215 29.9062 9.625 29.9062H23.375C24.3778 29.9062 25.3396 29.5079 26.0487 28.7987C26.7579 28.0896 27.1562 27.1278 27.1562 26.125V10.956C27.1562 10.4321 26.9858 9.92338 26.6695 9.50537L22.5473 4.04937C22.323 3.75254 22.0329 3.51175 21.6998 3.34594C21.3668 3.18012 20.9998 3.0938 20.6277 3.09375H9.625ZM7.90625 6.875C7.90625 5.92625 8.67625 5.15625 9.625 5.15625H19.5938V11.2021C19.5938 11.7714 20.0557 12.2334 20.625 12.2334H25.0938V26.125C25.0938 27.0737 24.3237 27.8438 23.375 27.8438H9.625C8.67625 27.8438 7.90625 27.0737 7.90625 26.125V6.875Z" fill="black" fill-opacity="0.2"/>
<path fill-rule="evenodd" clip-rule="evenodd" d="M9.625 3.09375C8.62215 3.09375 7.66037 3.49213 6.95125 4.20125C6.24213 4.91037 5.84375 5.87215 5.84375 6.875V26.125C5.84375 27.1278 6.24213 28.0896 6.95125 28.7987C7.66037 29.5079 8.62215 29.9062 9.625 29.9062H23.375C24.3778 29.9062 25.3396 29.5079 26.0487 28.7987C26.7579 28.0896 27.1562 27.1278 27.1562 26.125V10.956C27.1562 10.4321 26.9858 9.92338 26.6695 9.50537L22.5473 4.04937C22.323 3.75254 22.0329 3.51175 21.6998 3.34594C21.3668 3.18012 20.9998 3.0938 20.6277 3.09375H9.625ZM7.90625 6.875C7.90625 5.92625 8.67625 5.15625 9.625 5.15625H19.5938V11.2021C19.5938 11.7714 20.0557 12.2334 20.625 12.2334H25.0938V26.125C25.0938 27.0737 24.3237 27.8438 23.375 27.8438H9.625C8.67625 27.8438 7.90625 27.0737 7.90625 26.125V6.875Z" fill="black" fill-opacity="0.2"/>
<path fill-rule="evenodd" clip-rule="evenodd" d="M9.625 3.09375C8.62215 3.09375 7.66037 3.49213 6.95125 4.20125C6.24213 4.91037 5.84375 5.87215 5.84375 6.875V26.125C5.84375 27.1278 6.24213 28.0896 6.95125 28.7987C7.66037 29.5079 8.62215 29.9062 9.625 29.9062H23.375C24.3778 29.9062 25.3396 29.5079 26.0487 28.7987C26.7579 28.0896 27.1562 27.1278 27.1562 26.125V10.956C27.1562 10.4321 26.9858 9.92338 26.6695 9.50537L22.5473 4.04937C22.323 3.75254 22.0329 3.51175 21.6998 3.34594C21.3668 3.18012 20.9998 3.0938 20.6277 3.09375H9.625ZM7.90625 6.875C7.90625 5.92625 8.67625 5.15625 9.625 5.15625H19.5938V11.2021C19.5938 11.7714 20.0557 12.2334 20.625 12.2334H25.0938V26.125C25.0938 27.0737 24.3237 27.8438 23.375 27.8438H9.625C8.67625 27.8438 7.90625 27.0737 7.90625 26.125V6.875Z" fill="black" fill-opacity="0.2"/>
<path fill-rule="evenodd" clip-rule="evenodd" d="M9.625 3.09375C8.62215 3.09375 7.66037 3.49213 6.95125 4.20125C6.24213 4.91037 5.84375 5.87215 5.84375 6.875V26.125C5.84375 27.1278 6.24213 28.0896 6.95125 28.7987C7.66037 29.5079 8.62215 29.9062 9.625 29.9062H23.375C24.3778 29.9062 25.3396 29.5079 26.0487 28.7987C26.7579 28.0896 27.1562 27.1278 27.1562 26.125V10.956C27.1562 10.4321 26.9858 9.92338 26.6695 9.50537L22.5473 4.04937C22.323 3.75254 22.0329 3.51175 21.6998 3.34594C21.3668 3.18012 20.9998 3.0938 20.6277 3.09375H9.625ZM7.90625 6.875C7.90625 5.92625 8.67625 5.15625 9.625 5.15625H19.5938V11.2021C19.5938 11.7714 20.0557 12.2334 20.625 12.2334H25.0938V26.125C25.0938 27.0737 24.3237 27.8438 23.375 27.8438H9.625C8.67625 27.8438 7.90625 27.0737 7.90625 26.125V6.875Z" fill="black" fill-opacity="0.2"/>
</svg>
