<svg width="43" height="43" viewBox="0 0 43 43" fill="none" xmlns="http://www.w3.org/2000/svg">
<path fill-rule="evenodd" clip-rule="evenodd" d="M14.0691 12.3111C14.0691 10.4453 14.8103 8.65593 16.1296 7.33662C17.4489 6.01731 19.2383 5.27612 21.1041 5.27612C22.9699 5.27612 24.7592 6.01731 26.0786 7.33662C27.3979 8.65593 28.1391 10.4453 28.1391 12.3111C28.1391 14.1769 27.3979 15.9663 26.0786 17.2856C24.7592 18.6049 22.9699 19.3461 21.1041 19.3461C19.2383 19.3461 17.4489 18.6049 16.1296 17.2856C14.8103 15.9663 14.0691 14.1769 14.0691 12.3111ZM14.0691 22.8636C11.7369 22.8636 9.50015 23.79 7.85101 25.4392C6.20187 27.0883 5.27539 29.325 5.27539 31.6573C5.27539 33.0566 5.83128 34.3986 6.82076 35.3881C7.81025 36.3776 9.15228 36.9335 10.5516 36.9335H31.6565C33.0559 36.9335 34.3979 36.3776 35.3874 35.3881C36.3769 34.3986 36.9328 33.0566 36.9328 31.6573C36.9328 29.325 36.0063 27.0883 34.3571 25.4392C32.708 23.79 30.4713 22.8636 28.1391 22.8636H14.0691Z" fill="white"/>
</svg>
