<svg width="430" height="935" viewBox="0 0 430 935" fill="none" xmlns="http://www.w3.org/2000/svg">
<rect width="435" height="946" fill="white"/>
<path d="M-110.599 148.07C-153.286 156.085 -206.322 185.162 -187.867 231.945C-174.004 267.097 -121.611 248.842 -96.0541 269.106C-74.8543 285.962 -61.7223 322.603 -27.9235 313.823C-4.27014 307.716 -2.13854 281.715 12.1282 266.406C28.7045 248.647 89.9 241.93 62.2949 205.479C29.4846 162.159 -40.4267 144.051 -91.5063 145.776C-97.3832 146.013 -103.845 146.772 -110.599 148.07Z" fill="#C9D1E6"/>
<path opacity="0.62" d="M-93.4948 148.888C-112.91 142.701 -114.285 133.649 -131.595 130.417C-135.162 129.742 -153.67 126.349 -164.809 135.883C-179.164 148.283 -173.43 175.821 -164.247 192.383C-147.403 222.867 -110.766 230.912 -100.854 233.139C-93.4855 234.756 -61.9657 240.937 -30.8284 224.782C-11.7659 214.862 21.2708 189.194 14.3966 159.573C9.97948 140.497 -10.2556 122.277 -23.8805 124.252C-35.605 125.93 -33.849 141.401 -50.7772 149.336C-67.4424 157.203 -87.7054 150.767 -93.4948 148.888Z" fill="#8A9CC9"/>
<path d="M-103.544 233.357C-93.483 260.586 -77.6329 286.203 -56.9297 307.748C-50.8767 314.028 -45.9056 318.535 -37.7769 321.96C-18.1277 330.229 2.60138 321.002 11.9852 304.514C18.4456 293.144 20.1985 279.713 21.1327 266.536C22.0669 253.36 23.0887 239.184 26.4497 226.135C29.3724 215.013 36.0374 202.288 26.329 191.446C15.6264 179.506 -0.922311 182.131 -14.9571 179.696C-47.8218 173.903 -43.2653 130.577 -73.0896 121.685C-119.142 107.982 -117.819 170.199 -113.284 197.157C-111.207 209.382 -107.931 221.487 -103.544 233.357Z" fill="#8A9CC9"/>
<path d="M40.9838 243.012C47.6499 240.619 45.5727 228.813 36.8304 229.174C24.9011 229.415 30.3415 247.579 40.9838 243.012Z" fill="white"/>
<path d="M40.0212 264.898C53.821 257.713 33.5272 236.67 26.57 251.47C22.6529 258.982 31.981 268.711 40.0212 264.898Z" fill="white"/>
<path d="M59.6691 255.435C57.8927 254.473 55.7328 255.022 54.8449 256.661C53.9569 258.301 54.6771 260.41 56.4535 261.372C58.2299 262.334 60.3898 261.785 61.2777 260.145C62.1657 258.506 61.4455 256.397 59.6691 255.435Z" fill="white"/>
<path d="M50.7495 244.671C49.619 244.058 48.2446 244.408 47.6795 245.451C47.1144 246.494 47.5728 247.837 48.7032 248.449C49.8336 249.061 51.2081 248.712 51.7731 247.668C52.3382 246.625 51.8799 245.283 50.7495 244.671Z" stroke="white" stroke-width="1.2727" stroke-miterlimit="10"/>
<path d="M55.2521 249.065L57.6492 244.778L60.0463 240.492L62.8829 244.89L65.661 249.257L60.4858 249.177L55.2521 249.065Z" stroke="white" stroke-width="2.0193" stroke-miterlimit="10"/>
<path d="M408.622 -5.24288C365.178 -6.49217 305.629 10.8593 309.765 61.0817C312.869 98.8168 368.645 92.0269 387.349 117.555C402.851 138.778 404.817 177.828 439.925 176.41C464.483 175.455 474.115 150.205 492.316 138.134C513.455 124.138 574.344 130.648 558.386 88.6749C539.416 38.7922 477.37 5.86367 427.677 -3.40863C421.948 -4.43664 415.505 -5.07519 408.622 -5.24288Z" fill="#C9D1E6"/>
<path opacity="0.62" d="M424.855 -0.75874C407.962 -11.0485 409.276 -20.294 393.549 -27.2093C390.31 -28.6437 373.475 -35.9754 359.97 -28.9423C342.532 -19.7671 340.026 8.69291 344.042 27.0411C351.378 60.8018 384.314 76.6295 393.211 80.9616C399.835 84.1441 428.387 97.0293 463.081 87.7478C484.33 82.0362 523.626 63.7579 525.64 32.9927C526.947 13.182 512.771 -9.18052 499.074 -10.1559C487.294 -11.0165 484.476 4.65755 465.861 8.86472C447.519 13.0623 429.882 2.34328 424.855 -0.75874Z" fill="#8A9CC9"/>
<path d="M390.556 80.5996C392.308 109.684 400.105 138.419 413.762 164.17C417.761 171.68 421.234 177.205 428.064 182.338C444.576 194.736 467.227 190.068 481.07 175.782C490.605 165.929 496.208 153.026 500.949 140.199C505.689 127.372 510.805 113.575 517.845 101.396C523.901 91.027 534.029 79.8775 527.84 67.0707C521.014 52.9656 504.312 52.0049 491.506 46.5807C461.546 33.7906 478.563 -8.06799 452.434 -23.27C412.08 -46.7152 395.218 15.0847 391.728 42.7141C390.165 55.2472 389.791 67.9207 390.556 80.5996Z" fill="#C9D1E6"/>
<path d="M366.331 87.1445C366.238 88.3774 366.282 89.6509 366.509 90.9181C366.893 92.7717 367.55 94.6158 368.608 96.218C370.392 99.0243 373.361 100.559 375.32 103.177C376.133 104.287 377.05 105.758 377.462 107.109C378.195 109.816 373.977 124.538 382.314 123.333C385.215 122.958 387.931 121.177 389.482 118.664C390.685 116.618 391.094 114.007 389.342 112.111C388.491 111.23 387.33 110.588 386.304 109.895C385.51 109.331 383.106 108.323 382.842 107.284C382.194 104.393 387.528 92.9109 386.294 86.3054C385.613 82.504 383.167 78.9923 379.389 77.759C375.794 76.5193 371.917 77.6576 369.372 80.3886C367.573 82.319 366.608 84.6755 366.331 87.1445Z" fill="#8A9CC9"/>
<path d="M360.329 111.993C358.899 110.66 356.659 110.739 355.326 112.169C353.993 113.6 354.072 115.84 355.502 117.173C356.932 118.506 359.172 118.427 360.505 116.997C361.838 115.566 361.76 113.326 360.329 111.993Z" stroke="white" stroke-width="2" stroke-miterlimit="10"/>
<path d="M357.74 95.3253C359.628 95.942 360.609 97.9113 359.992 99.8001C359.375 101.689 357.406 102.669 355.517 102.052" stroke="white" stroke-width="2" stroke-miterlimit="10"/>
<path d="M370.562 109.037L368.679 107.282L366.156 106.779L367.912 104.895L368.368 102.329L370.298 104.128L372.865 104.584L371.018 106.471L370.562 109.037Z" fill="white"/>
</svg>
