<svg width="20" height="20" viewBox="0 0 20 20" fill="none" xmlns="http://www.w3.org/2000/svg">
<mask id="mask0_1696_3412" style="mask-type:alpha" maskUnits="userSpaceOnUse" x="0" y="0" width="20" height="20">
<rect width="20" height="20" fill="#D9D9D9"/>
</mask>
<g mask="url(#mask0_1696_3412)">
<path d="M10 14.1668C10.2361 14.1668 10.434 14.087 10.5938 13.9272C10.7535 13.7675 10.8333 13.5696 10.8333 13.3335C10.8333 13.0974 10.7535 12.8995 10.5938 12.7397C10.434 12.58 10.2361 12.5002 10 12.5002C9.76389 12.5002 9.56597 12.58 9.40625 12.7397C9.24653 12.8995 9.16667 13.0974 9.16667 13.3335C9.16667 13.5696 9.24653 13.7675 9.40625 13.9272C9.56597 14.087 9.76389 14.1668 10 14.1668ZM9.16667 10.8335H10.8333V5.8335H9.16667V10.8335ZM4.16667 17.5002C3.70833 17.5002 3.31597 17.337 2.98958 17.0106C2.66319 16.6842 2.5 16.2918 2.5 15.8335V4.16683C2.5 3.7085 2.66319 3.31613 2.98958 2.98975C3.31597 2.66336 3.70833 2.50016 4.16667 2.50016H7.66667C7.84722 2.00016 8.14931 1.59738 8.57292 1.29183C8.99653 0.986274 9.47222 0.833496 10 0.833496C10.5278 0.833496 11.0035 0.986274 11.4271 1.29183C11.8507 1.59738 12.1528 2.00016 12.3333 2.50016H15.8333C16.2917 2.50016 16.684 2.66336 17.0104 2.98975C17.3368 3.31613 17.5 3.7085 17.5 4.16683V15.8335C17.5 16.2918 17.3368 16.6842 17.0104 17.0106C16.684 17.337 16.2917 17.5002 15.8333 17.5002H4.16667ZM4.16667 15.8335H15.8333V4.16683H4.16667V15.8335ZM10 3.54183C10.1806 3.54183 10.3299 3.4828 10.4479 3.36475C10.566 3.24669 10.625 3.09738 10.625 2.91683C10.625 2.73627 10.566 2.58697 10.4479 2.46891C10.3299 2.35086 10.1806 2.29183 10 2.29183C9.81944 2.29183 9.67014 2.35086 9.55208 2.46891C9.43403 2.58697 9.375 2.73627 9.375 2.91683C9.375 3.09738 9.43403 3.24669 9.55208 3.36475C9.67014 3.4828 9.81944 3.54183 10 3.54183Z" fill="white"/>
</g>
</svg>
