<svg width="50" height="50" viewBox="0 0 50 50" fill="none" xmlns="http://www.w3.org/2000/svg">
<ellipse cx="23.3246" cy="23.5" rx="12" ry="12.5" fill="white"/>
<mask id="mask0_172_2624" style="mask-type:alpha" maskUnits="userSpaceOnUse" x="0" y="0" width="50" height="50">
<rect width="50" height="50" fill="#D9D9D9"/>
</mask>
<g mask="url(#mask0_172_2624)">
<path d="M25 31.8248L31.851 24.9738L25 18.1227L23.5656 19.5571L27.9406 23.9321H17.7083V26.0154H27.9406L23.5656 30.3904L25 31.8248ZM25.0068 43.7238C22.4141 43.7238 19.9764 43.2317 17.6937 42.2477C15.4115 41.2637 13.426 39.9283 11.7375 38.2415C10.049 36.5547 8.71233 34.571 7.7276 32.2904C6.74253 30.0102 6.25 27.5736 6.25 24.9805C6.25 22.3878 6.74201 19.9501 7.72604 17.6675C8.71007 15.3852 10.0455 13.3998 11.7323 11.7113C13.4191 10.0227 15.4028 8.68608 17.6833 7.70136C19.9635 6.71629 22.4002 6.22375 24.9932 6.22375C27.5859 6.22375 30.0236 6.71577 32.3063 7.6998C34.5885 8.68383 36.574 10.0192 38.2625 11.706C39.951 13.3929 41.2877 15.3765 42.2724 17.6571C43.2575 19.9373 43.75 22.3739 43.75 24.967C43.75 27.5597 43.258 29.9974 42.274 32.28C41.2899 34.5623 39.9545 36.5477 38.2677 38.2363C36.5809 39.9248 34.5972 41.2614 32.3167 42.2462C30.0365 43.2312 27.5998 43.7238 25.0068 43.7238Z" fill="#506BAE"/>
</g>
</svg>
