<svg width="20" height="20" viewBox="0 0 20 20" fill="none" xmlns="http://www.w3.org/2000/svg">
<path fill-rule="evenodd" clip-rule="evenodd" d="M16.7398 3.26029L3.62314 8.00299L7.99293 10.5322L11.8461 6.678C12.0415 6.48267 12.3066 6.373 12.5829 6.3731C12.8592 6.37319 13.1242 6.48306 13.3195 6.67852C13.5148 6.87397 13.6245 7.13902 13.6244 7.41534C13.6243 7.69167 13.5144 7.95663 13.319 8.15195L9.4648 12.0061L11.9961 16.3749L16.7398 3.26029ZM17.0763 0.922787C18.3211 0.471745 19.5273 1.67799 19.0763 2.92279L13.5742 18.1363C13.1221 19.3842 11.4179 19.5363 10.7523 18.3874L7.40126 12.5978L1.61168 9.24675C0.462721 8.58112 0.614805 6.87695 1.86272 6.42487L17.0763 0.922787Z" fill="#152560"/>
</svg>
