<svg width="41" height="41" viewBox="0 0 41 41" fill="none" xmlns="http://www.w3.org/2000/svg">
<mask id="mask0_2293_4956" style="mask-type:luminance" maskUnits="userSpaceOnUse" x="0" y="0" width="41" height="41">
<path d="M32.2855 12.3507C33.4663 14.0436 34.2658 15.9726 34.6287 18.0045H39.0623V23.058H34.6287C34.2658 25.0899 33.4663 27.0189 32.2855 28.7118L35.4218 31.8482L31.8481 35.422L28.7117 32.2856C27.0188 33.4664 25.0898 34.2659 23.0579 34.6288V39.0624H18.0044V34.6288C15.9725 34.2659 14.0435 33.4664 12.3506 32.2856L9.21418 35.422L5.64044 31.8482L8.77684 28.7118C7.59602 27.0189 6.79654 25.0899 6.43358 23.058H2V18.0045H6.43358C6.79654 15.9726 7.59602 14.0436 8.77684 12.3507L5.64044 9.2143L9.21418 5.64057L12.3506 8.77696C14.0435 7.59614 15.9725 6.79666 18.0044 6.4337V2.00012H23.0579V6.4337C25.0898 6.79666 27.0188 7.59614 28.7117 8.77696L31.8481 5.64057L35.4218 9.2143L32.2855 12.3507Z" fill="white" stroke="white" stroke-width="2.05902" stroke-linejoin="round"/>
<path d="M20.5312 25.1641C21.7599 25.1641 22.9383 24.676 23.8071 23.8072C24.6759 22.9383 25.164 21.76 25.164 20.5313C25.164 19.3026 24.6759 18.1242 23.8071 17.2554C22.9383 16.3866 21.7599 15.8985 20.5312 15.8985C19.3025 15.8985 18.1242 16.3866 17.2553 17.2554C16.3865 18.1242 15.8984 19.3026 15.8984 20.5313C15.8984 21.76 16.3865 22.9383 17.2553 23.8072C18.1242 24.676 19.3025 25.1641 20.5312 25.1641Z" fill="black" stroke="black" stroke-width="2.05902" stroke-linejoin="round"/>
</mask>
<g mask="url(#mask0_2293_4956)">
<path d="M-1.70703 -1.70612H42.7677V42.7686H-1.70703V-1.70612Z" fill="#0F1A44"/>
</g>
</svg>
