<svg width="25" height="25" viewBox="0 0 25 25" fill="none" xmlns="http://www.w3.org/2000/svg">
<mask id="mask0_2142_8284" style="mask-type:luminance" maskUnits="userSpaceOnUse" x="2" y="2" width="20" height="20">
<path d="M19.3265 3.36926H4.9134C4.06053 3.36926 3.36914 4.06065 3.36914 4.91352V19.3266C3.36914 20.1795 4.06053 20.8709 4.9134 20.8709H19.3265C20.1794 20.8709 20.8708 20.1795 20.8708 19.3266V4.91352C20.8708 4.06065 20.1794 3.36926 19.3265 3.36926Z" stroke="white" stroke-width="1.37268" stroke-linejoin="round"/>
</mask>
<g mask="url(#mask0_2142_8284)">
<path d="M0 -6.10352e-05H24.7082V24.7081H0V-6.10352e-05Z" fill="#152560"/>
</g>
<path d="M10.6726 10.1246L13.3967 7.28832C14.1436 6.54142 15.3718 6.55737 16.1393 7.32539C16.9068 8.0934 16.9232 9.32109 16.1763 10.068L15.1931 11.1093M8.11219 13.0263C7.84966 13.2888 7.3066 13.8139 7.3066 13.8139C6.55917 14.5608 6.53858 15.8924 7.3066 16.6605C8.07358 17.4274 9.30178 17.4444 10.0492 16.697L12.7074 14.2838" stroke="#152560" stroke-width="1.37268" stroke-linecap="round" stroke-linejoin="round"/>
<path d="M10.7883 12.8106C10.4462 12.4709 10.2393 12.0185 10.2061 11.5376C10.1866 11.2679 10.2252 10.9971 10.3193 10.7435C10.4134 10.49 10.5609 10.2596 10.7518 10.068M12.6713 11.5407C13.4388 12.3082 13.4552 13.5364 12.7083 14.2838" stroke="#152560" stroke-width="1.37268" stroke-linecap="round" stroke-linejoin="round"/>
</svg>
