<svg width="430" height="435" viewBox="0 0 430 435" fill="none" xmlns="http://www.w3.org/2000/svg">
<path d="M0 0H430V435C379.5 380.74 48.5 380.74 0 435V0Z" fill="#506BAE"/>
<circle cx="215" cy="219" r="134" fill="#F4F0EA"/>
<path d="M156.512 286.497C151.47 286.497 147.383 282.943 147.383 278.56V152.725C147.383 149.4 149.768 146.424 153.346 145.279C156.935 144.123 160.958 145.039 163.441 147.557C163.549 147.666 163.658 147.775 163.766 147.884L205.044 189.8C206.779 191.567 206.269 194.466 204.09 195.633C201.531 196.995 199.308 198.761 197.378 200.909C195.968 202.468 193.561 202.555 192.087 201.062L171.855 180.512C169.567 178.19 165.642 179.815 165.642 183.085V278.571C165.642 282.954 161.554 286.507 156.512 286.507V286.497Z" fill="#8A9CC9"/>
<path d="M278.481 283.793C275.868 283.793 273.309 282.845 271.542 281.111C271.434 281.002 271.325 280.904 271.217 280.795L230.817 241.223C229.256 239.696 229.896 237.113 231.945 236.361C235.317 235.118 238.385 232.338 239.578 229.678C240.098 228.522 241.584 228.217 242.495 229.1L266.912 253.018C267.823 253.912 269.352 253.258 269.352 251.982V155.134C269.352 150.904 273.439 147.481 278.481 147.481C283.523 147.481 287.611 150.904 287.611 155.134V276.14C287.611 279.345 285.225 282.212 281.647 283.324C280.617 283.64 279.544 283.804 278.481 283.804V283.793Z" fill="#8A9CC9"/>
<path d="M218.867 235.805C229.946 235.805 238.926 226.775 238.926 215.637C238.926 204.499 229.946 195.469 218.867 195.469C207.789 195.469 198.809 204.499 198.809 215.637C198.809 226.775 207.789 235.805 218.867 235.805Z" fill="#C9D1E6"/>
<path d="M149.915 294.893C144.873 294.893 140.785 291.34 140.785 286.957V161.122C140.785 157.797 143.171 154.82 146.749 153.676C150.337 152.52 154.36 153.436 156.843 155.954C156.951 156.063 157.06 156.172 157.168 156.281L198.446 198.197C200.181 199.963 199.671 202.863 197.492 204.03C194.933 205.392 192.71 207.158 190.78 209.306C189.371 210.865 186.964 210.952 185.489 209.459L165.257 188.909C162.969 186.587 159.044 188.212 159.044 191.482V286.968C159.044 291.351 154.956 294.904 149.915 294.904V294.893Z" fill="#506BAE"/>
<path d="M271.647 292.19C269.034 292.19 266.475 291.241 264.708 289.508C264.6 289.399 264.491 289.301 264.383 289.192L223.983 249.62C222.422 248.093 223.062 245.51 225.111 244.758C228.483 243.515 231.551 240.735 232.744 238.075C233.264 236.919 234.75 236.614 235.661 237.497L260.078 261.415C260.989 262.309 262.518 261.655 262.518 260.379V163.531C262.518 159.301 266.605 155.878 271.647 155.878C276.689 155.878 280.777 159.301 280.777 163.531V284.537C280.777 287.742 278.391 290.609 274.813 291.721C273.783 292.037 272.71 292.201 271.647 292.201V292.19Z" fill="#506BAE"/>
<path d="M211.301 244.202C222.379 244.202 231.36 235.172 231.36 224.034C231.36 212.896 222.379 203.866 211.301 203.866C200.223 203.866 191.242 212.896 191.242 224.034C191.242 235.172 200.223 244.202 211.301 244.202Z" fill="#8A9CC9"/>
</svg>
