<svg width="33" height="32" viewBox="0 0 33 32" fill="none" xmlns="http://www.w3.org/2000/svg">
<mask id="mask0_2068_6462" style="mask-type:alpha" maskUnits="userSpaceOnUse" x="0" y="0" width="33" height="32">
<rect x="0.0605469" width="32.0914" height="32" fill="#D9D9D9"/>
</mask>
<g mask="url(#mask0_2068_6462)">
<path d="M8.08369 29.3332C6.96941 29.3332 6.02227 28.9443 5.24227 28.1665C4.46227 27.3887 4.07227 26.4443 4.07227 25.3332V21.3332H8.08369V2.6665H28.1408V25.3332C28.1408 26.4443 27.7508 27.3887 26.9708 28.1665C26.1908 28.9443 25.2437 29.3332 24.1294 29.3332H8.08369ZM24.1294 26.6665C24.5083 26.6665 24.8258 26.5387 25.0821 26.2832C25.3384 26.0276 25.4666 25.7109 25.4666 25.3332V5.33317H10.758V21.3332H22.7923V25.3332C22.7923 25.7109 22.9204 26.0276 23.1767 26.2832C23.433 26.5387 23.7506 26.6665 24.1294 26.6665ZM12.0951 11.9998V9.33317H24.1294V11.9998H12.0951ZM12.0951 15.9998V13.3332H24.1294V15.9998H12.0951ZM8.08369 26.6665H20.118V23.9998H6.74655V25.3332C6.74655 25.7109 6.87469 26.0276 7.13098 26.2832C7.38727 26.5387 7.70484 26.6665 8.08369 26.6665ZM8.08369 26.6665H6.74655H20.118H8.08369Z" fill="black"/>
</g>
</svg>
