<svg width="172" height="98" viewBox="0 0 172 98" fill="none" xmlns="http://www.w3.org/2000/svg">
<path d="M112.573 120.893C109.83 111.293 105.921 101.967 101.67 93.601C87.887 66.4464 70.8125 37.4404 45.5094 19.4745C25.6235 5.34864 -1.94253 0.274305 -24.5028 11.7259C-50.1488 24.686 -64.1375 60.9607 -53.3031 87.6352C-41.6458 111.224 -3.72544 112.938 2.03462 139.613C4.22893 149.762 1.48608 161.282 4.29753 171.636C6.56042 179.865 11.6348 187.682 17.6691 193.579C30.2178 205.716 48.3208 210.174 65.3953 207.225C82.1955 204.276 97.8985 194.676 107.293 180.345C118.95 162.585 118.264 140.984 112.573 120.893Z" fill="#506BAE"/>
<path opacity="0.56" d="M152.001 112.733C151.11 107.796 151.727 102.653 155.636 96.6869C159.887 90.1725 165.784 84.8239 169.213 77.8295C174.904 66.2408 171.339 51.635 163.384 41.9663C145.761 20.7089 110.721 22.6975 86.7891 29.2804C62.446 36.0005 39.1315 49.4406 20.2741 66.1722C6.76541 78.1038 -6.12615 90.9268 -17.7834 104.641C-24.8463 112.938 -47.2008 136.596 -36.5036 148.665C-33.2807 152.299 -27.8635 153.396 -23.2006 153.876C-16.1376 154.699 -10.5833 155.453 -4.2061 159.088C6.55973 165.259 15.1998 173.282 28.0914 174.448C41.6001 175.613 54.9717 171.431 68.4804 171.293C79.1091 171.156 89.5321 173.625 99.5436 176.985C108.938 180.139 116.961 185.008 127.041 183.705C138.63 182.196 149.396 174.585 155.841 164.985C161.327 156.756 163.727 145.99 161.053 136.322C158.378 127.476 153.373 120.344 152.001 112.733Z" fill="#8A9CC9"/>
<path d="M10.7441 37.0978C26.5157 32.2292 42.9045 40.4578 58.7447 37.0978C79.3163 32.7092 75.1334 3.84028 94.8136 0.000244141C137.397 1.16597 145.626 61.0295 141.031 92.9841C139.866 100.87 137.465 107.247 130.883 112.321C110.517 127.819 83.5678 118.561 60.8704 126.447C50.7217 130.013 44.8245 137.419 42.493 147.705C39.8873 159.156 39.8187 172.802 29.6015 180.551C13.2813 192.894 -4.54747 175.682 -8.04465 159.293C-15.1761 140.505 -2.62746 124.939 5.39548 109.167C18.6299 85.0297 -26.7648 48.6865 10.7441 37.0978Z" fill="#8A9CC9"/>
<path d="M71.909 10.0113C71.4976 8.09131 69.3719 6.51415 67.4518 6.58272C63.6804 6.71987 61.4175 10.217 58.4004 12.0685C55.246 13.9885 52.2974 15.7714 48.5945 16.5257C45.4402 17.2114 42.2173 17.2114 39.063 16.3885C34.8801 15.2914 31.3143 12.8228 26.9257 12.6171C22.88 12.4799 19.3142 16.9371 20.6857 20.8457C24.5943 32.1601 41.6001 34.423 51.7488 31.6801C56.686 30.3087 62.1032 27.6344 65.669 23.9315C69.029 20.5714 72.9376 15.0171 71.909 10.0113Z" fill="#C9D1E6"/>
<path d="M0.525727 83.5209C0.525727 83.2466 0.457171 83.0409 0.457171 82.7666C-0.0228338 80.0923 -2.56005 78.1037 -5.16579 78.0351C-8.5944 77.898 -11.2687 80.8466 -11.4058 84.2066C-11.543 87.8409 -8.38869 90.8581 -4.82293 90.8581C-3.79435 90.8581 -2.56 90.5838 -1.59999 90.0352C0.0457392 89.0752 0.868571 87.3609 0.937143 85.5095C0.868571 84.7552 0.800015 84.138 0.525727 83.5209Z" fill="#C9D1E6"/>
<path d="M167.98 93.6009C158.311 91.6123 155.225 108.001 160.437 113.624C163.18 116.573 167.705 114.79 168.871 111.43C169.831 108.687 169.42 105.738 170.311 102.927C170.791 101.418 171.477 100.184 171.408 98.5381C171.34 96.4809 170.105 94.0123 167.98 93.6009Z" fill="#394C7C"/>
<path d="M153.169 22.3548C149.397 17.6919 140.003 16.5947 134.586 18.1719C131.363 19.1319 132.048 23.7948 135.34 23.9319C137.946 24.0691 140.414 24.0691 142.951 24.9605C145.351 25.852 147.271 27.4977 149.671 28.3205C153.374 29.692 155.157 24.8234 153.169 22.3548Z" fill="#506BAE"/>
<path d="M138.768 10.6286C137.74 8.98291 135.82 9.53148 134.517 10.4229C132.871 11.5886 131.294 12.823 129.717 14.0573C127.934 15.3601 129.442 18.0344 131.5 17.0744C133.214 16.2516 134.928 15.4287 136.711 14.6058C138.082 13.9201 139.865 12.4115 138.768 10.6286Z" fill="#506BAE"/>
</svg>
