<svg width="216" height="200" viewBox="0 0 216 200" fill="none" xmlns="http://www.w3.org/2000/svg">
<path d="M119.456 87.142C76.0615 89.5725 18.1942 111.9 26.5636 161.592C32.8487 198.929 87.8504 187.445 108.648 211.299C125.889 231.134 131.152 269.878 166.014 265.496C190.403 262.466 197.864 236.492 214.979 222.925C234.858 207.19 296.08 208.526 276.628 168.053C253.506 119.954 188.896 92.3926 138.597 87.3576C132.802 86.8179 126.328 86.7268 119.456 87.142Z" fill="#8A9CC9"/>
<path opacity="0.62" d="M136.011 90.2366C118.307 81.4128 118.835 72.0893 102.579 66.5294C99.2308 65.3741 81.8361 59.4929 68.9737 67.6434C52.3745 78.261 52.286 106.831 57.8395 124.774C68.0053 157.793 102.163 170.777 111.393 174.341C118.263 176.952 147.803 187.375 181.587 175.192C202.277 167.703 239.885 146.166 239.29 115.341C238.916 95.4904 222.899 74.4073 209.169 74.5941C197.359 74.7331 195.876 90.5895 177.684 96.3564C159.763 102.091 141.283 92.9021 136.011 90.2366Z" fill="#506BAE"/>
<path d="M108.717 174.205C112.923 203.037 123.123 231.009 138.91 255.512C143.53 262.657 147.458 267.868 154.697 272.405C172.199 283.362 194.375 276.795 206.959 261.389C215.627 250.764 220.118 237.433 223.756 224.251C227.394 211.069 231.325 196.889 237.309 184.157C242.467 173.314 251.615 161.347 244.365 149.11C236.369 135.633 219.646 136.089 206.428 131.767C175.493 121.558 188.907 78.4096 161.586 65.4726C119.393 45.5254 107.82 108.53 106.679 136.356C106.183 148.976 106.882 161.636 108.717 174.205Z" fill="#8A9CC9"/>
<path d="M85.1334 182.776C85.1448 184.012 85.2972 185.277 85.6303 186.521C86.1698 188.335 86.9803 190.117 88.1704 191.624C90.1851 194.269 93.273 195.548 95.4467 197.99C96.3509 199.028 97.3891 200.415 97.9139 201.727C98.873 204.362 95.9154 219.388 104.121 217.483C106.98 216.863 109.535 214.859 110.868 212.223C111.893 210.083 112.08 207.447 110.174 205.706C109.252 204.9 108.041 204.358 106.96 203.755C106.121 203.26 103.64 202.459 103.289 201.447C102.399 198.62 106.742 186.728 104.954 180.251C103.954 176.52 101.22 173.228 97.3513 172.319C93.6635 171.388 89.8972 172.85 87.5921 175.787C85.9627 177.862 85.201 180.292 85.1334 182.776Z" fill="#506BAE"/>
<path d="M108.857 47.482C107.319 46.2748 105.093 46.5429 103.886 48.0807C102.679 49.6186 102.947 51.844 104.485 53.0512C106.023 54.2584 108.248 53.9904 109.455 52.4525C110.663 50.9146 110.395 48.6893 108.857 47.482Z" fill="white"/>
<path d="M124.782 46.4808C123.803 45.7125 122.387 45.8831 121.618 46.8618C120.85 47.8404 121.021 49.2565 121.999 50.0248C122.978 50.793 124.394 50.6224 125.162 49.6438C125.931 48.6651 125.76 47.249 124.782 46.4808Z" stroke="white" stroke-width="1.2727" stroke-miterlimit="10"/>
<path d="M196.456 63.0602C194.918 61.8529 192.693 62.121 191.486 63.6589C190.279 65.1967 190.547 67.4221 192.085 68.6293C193.622 69.8365 195.848 69.5685 197.055 68.0306C198.262 66.4927 197.994 64.2674 196.456 63.0602Z" stroke="white" stroke-width="2" stroke-miterlimit="10"/>
<path d="M185.169 82.7567C183.848 81.3113 183.949 79.0988 185.344 77.7389C186.789 76.4188 189.001 76.519 190.361 77.9138" stroke="white" stroke-width="2" stroke-miterlimit="10"/>
<path d="M154.808 49.9236L156.907 54.0258L161.183 52.2272L163.241 56.38L167.467 54.5417L169.616 58.6836L173.841 56.8452" stroke="white" stroke-width="3.0845" stroke-miterlimit="10"/>
<path d="M118.774 59.0316L119.129 61.6017L119.474 64.0815L117.113 63.1282L114.752 62.1748L116.808 60.5978L118.774 59.0316Z" stroke="white" stroke-miterlimit="10"/>
<path d="M180.547 64.5642L181.303 67.0402L183.339 68.7203L180.863 69.4769L179.183 71.513L178.427 69.037L176.391 67.3569L178.867 66.6002L180.547 64.5642Z" fill="white"/>
<path d="M77.2631 191.654C79.1974 192.108 80.3406 193.988 79.8859 195.922C79.4313 197.856 77.552 198.999 75.6177 198.545" stroke="white" stroke-width="2" stroke-miterlimit="10"/>
<path d="M91.2018 204.232L89.1767 202.642L86.6207 202.354L88.2104 200.329L88.4478 197.733L90.5236 199.363L93.1193 199.6L91.4392 201.636L91.2018 204.232Z" fill="white"/>
</svg>
