<svg width="430" height="430" viewBox="0 0 430 430" fill="none" xmlns="http://www.w3.org/2000/svg">
<rect width="430" height="430" fill="white"/>
<path fill-rule="evenodd" clip-rule="evenodd" d="M86.0434 209.001C86.0434 209.001 73.2986 198.114 91.1787 160.524C109.059 122.933 145.269 131.173 168.415 116.387C202.613 94.5404 188.596 77.4439 231.239 74.6881C284.93 71.2183 287.97 127.29 314.832 127.29C316.599 127.29 358.428 110.482 364.551 156.494C367.634 179.666 314.832 215.001 314.832 215.001C314.832 215.001 292.857 234.921 291.65 244.757C286.588 286.009 297.143 333.256 178.863 355.007C163.566 357.82 138.165 347.644 124.151 328.848C113.173 314.122 69.1331 324.57 65.0222 276.157C62.9501 251.756 86.0434 209.001 86.0434 209.001Z" fill="#506BAE"/>
<path d="M178.52 185.988C178.979 185.927 179.401 186.249 179.463 186.708C179.748 188.842 180.433 190.981 181.519 193.128C181.728 193.541 181.562 194.046 181.149 194.255C180.736 194.464 180.231 194.298 180.022 193.885C178.853 191.574 178.112 189.256 177.8 186.931C177.739 186.472 178.061 186.05 178.52 185.988Z" fill="white"/>
<path fill-rule="evenodd" clip-rule="evenodd" d="M276.219 237.209C276.084 237.552 275.787 238.026 275.443 238.474L275.74 238.782L276.084 239.148L276.16 239.222C276.193 239.251 276.22 239.269 276.239 239.274C276.35 239.29 276.427 239.393 276.412 239.505C276.396 239.615 276.294 239.694 276.183 239.677C276.082 239.675 275.716 239.532 275.28 239.178C275.201 239.114 275.122 239.04 275.042 238.959C274.791 239.239 274.537 239.481 274.317 239.63C273.994 239.853 273.714 239.871 273.581 239.781C273.449 239.693 273.323 239.398 273.537 238.801C273.57 238.693 273.686 238.636 273.792 238.669C273.899 238.703 273.958 238.817 273.924 238.925C273.891 239.035 273.887 239.137 273.887 239.218L274.011 239.133C274.054 239.102 274.099 239.067 274.14 239.025C274.29 238.878 274.458 238.698 274.626 238.504C274.36 238.195 274.088 237.832 273.869 237.413C273.762 237.208 273.676 236.991 273.595 236.763C273.539 236.636 273.597 236.486 273.725 236.43C273.853 236.373 274.002 236.432 274.058 236.559C274.303 237.071 274.615 237.512 274.923 237.89L275.026 238.013C275.306 237.646 275.548 237.274 275.657 236.991C275.718 236.837 275.893 236.76 276.047 236.819C276.203 236.881 276.28 237.055 276.219 237.209Z" fill="white"/>
<path fill-rule="evenodd" clip-rule="evenodd" d="M151.437 131.414L150.926 131.321C148.071 130.791 145.883 130.139 141.794 128.722C141.326 128.559 141.077 128.047 141.24 127.578C141.402 127.11 141.914 126.861 142.383 127.024L143.402 127.375C146.988 128.598 149.001 129.16 151.749 129.644C160.996 131.275 167.92 126.527 168.487 117.472C168.518 116.977 168.945 116.601 169.44 116.632C169.935 116.663 170.311 117.089 170.28 117.585C169.643 127.768 161.69 133.222 151.437 131.414Z" fill="#F4F0EA"/>
<path fill-rule="evenodd" clip-rule="evenodd" d="M174.544 141.111L175.06 142.257L176.236 142.595C176.299 142.613 176.336 142.679 176.318 142.743C176.312 142.763 176.302 142.781 176.287 142.795L175.394 143.685L175.444 144.965C175.446 145.031 175.395 145.087 175.329 145.089C175.306 145.09 175.284 145.085 175.265 145.074L174.253 144.497C174.221 144.479 174.183 144.477 174.149 144.49L173.067 144.92C173.006 144.944 172.936 144.914 172.912 144.853C172.904 144.832 172.901 144.809 172.905 144.787L173.133 143.526L172.372 142.521C172.332 142.468 172.342 142.393 172.395 142.353C172.411 142.341 172.431 142.333 172.451 142.33L173.662 142.16L174.333 141.096C174.368 141.04 174.442 141.023 174.498 141.059C174.518 141.071 174.534 141.089 174.544 141.111Z" fill="#F4F0EA"/>
<path d="M164.94 176.295C165.339 176.059 165.853 176.192 166.088 176.591L167.038 178.192C170.807 184.517 172.315 186.571 173.918 187.499C175.235 188.263 176.597 188.026 179.09 186.564L179.423 186.364C180.991 185.386 188.165 180.458 190.939 178.688C191.33 178.439 191.848 178.554 192.097 178.944C192.347 179.335 192.232 179.853 191.841 180.102L191.414 180.377C188.323 182.381 181.379 187.15 180.15 187.885C177.132 189.69 175.175 190.096 173.214 189.028L173.077 188.951C170.97 187.73 169.332 185.388 164.644 177.443C164.408 177.044 164.541 176.53 164.94 176.295Z" fill="white"/>
<path d="M292.737 112.292C293.199 112.259 293.6 112.607 293.633 113.069C293.666 113.531 293.318 113.932 292.856 113.965C289.547 114.201 286.948 115.483 285.793 118.656C285.724 118.847 285.666 119.031 285.619 119.206L285.588 119.326L285.639 119.221C287.093 116.252 289.896 114.19 293.145 113.667L293.358 113.635C293.817 113.571 294.24 113.891 294.304 114.349C294.368 114.808 294.048 115.232 293.59 115.296C290.571 115.717 287.989 117.723 286.863 120.6L286.79 120.794C286.255 122.264 284.97 122.969 284.143 121.711C283.639 120.943 283.672 119.58 284.217 118.082C285.6 114.282 288.773 112.575 292.737 112.292Z" fill="white"/>
<path d="M288.917 106.045C289.379 106.012 289.78 106.359 289.813 106.821C289.846 107.283 289.498 107.685 289.036 107.718C283.772 108.093 279.156 111.512 277.319 116.558C276.775 118.054 276.674 119.333 276.869 119.98L276.892 120.053L276.93 119.999C277.023 119.857 277.129 119.653 277.232 119.388L277.276 119.271C279.216 113.941 283.92 110.209 289.437 109.439C289.895 109.375 290.319 109.695 290.383 110.153C290.447 110.612 290.127 111.036 289.668 111.1C284.842 111.773 280.718 114.994 278.941 119.609L278.852 119.845C278.133 121.822 276.577 122.675 275.583 121.162C274.901 120.125 274.949 118.167 275.743 115.984C277.808 110.311 282.999 106.467 288.917 106.045Z" fill="white"/>
<path d="M283.77 97.7142C284.232 97.6812 284.633 98.029 284.666 98.491C284.699 98.953 284.351 99.3542 283.889 99.3871C276.382 99.9228 269.798 104.799 267.178 111.996C266.287 114.445 266.212 116.521 266.699 117.384L266.744 117.457C266.816 117.567 266.792 117.57 266.81 117.555L266.821 117.548C267.068 117.412 267.394 116.951 267.691 116.186L267.75 116.029C270.426 108.678 276.913 103.53 284.521 102.468C284.98 102.404 285.404 102.724 285.468 103.182C285.532 103.641 285.212 104.065 284.753 104.129C277.844 105.093 271.943 109.718 269.424 116.34L269.326 116.602C268.396 119.16 266.529 120.184 265.342 118.378C264.457 117.032 264.522 114.391 265.602 111.422C268.45 103.598 275.608 98.2965 283.77 97.7142Z" fill="white"/>
<path d="M274.58 89.8854C275.034 89.7964 275.475 90.0927 275.564 90.5472C275.653 91.0017 275.357 91.4423 274.902 91.5313C268.105 92.8624 262.639 98.0539 261.054 104.921C260.517 107.245 260.679 109.134 261.206 109.855L261.276 109.946L261.281 109.958L261.291 109.951C261.48 109.781 261.7 109.346 261.871 108.672L261.907 108.524C263.537 101.462 268.922 95.9949 275.799 94.159C276.247 94.0396 276.706 94.3055 276.826 94.753C276.945 95.2005 276.679 95.6601 276.232 95.7795C270.036 97.4335 265.167 102.312 263.605 108.633L263.541 108.901C262.966 111.392 261.315 112.581 259.977 111.004C258.999 109.851 258.759 107.404 259.42 104.543C261.155 97.0261 267.139 91.3425 274.58 89.8854Z" fill="white"/>
<path d="M181.619 193.313L182.103 193.137C186.678 191.495 190.539 190.77 191.52 191.768C192.379 192.643 193.146 194.227 193.872 196.552C194.011 196.994 193.764 197.464 193.322 197.602C192.88 197.74 192.41 197.494 192.272 197.052C191.643 195.042 191.002 193.689 190.396 193.021L190.371 192.994L190.349 192.995C190.234 192.972 190.062 192.96 189.843 192.964C189.36 192.974 188.699 193.059 187.91 193.215C186.288 193.537 184.236 194.135 182.199 194.886C178.793 196.143 175.956 197.619 174.388 198.952C173.813 199.442 172.762 198.078 173.773 197.297C175.593 195.891 178.352 194.518 181.619 193.313Z" fill="white"/>
<path d="M179.316 177.47C179.316 180.267 182.275 183.296 182.904 183.469C183.351 183.591 175.654 188.606 175.654 188.606C172.873 188.971 171.24 186.621 171.24 183.119C171.24 182.656 179.316 177.007 179.316 177.47Z" fill="white"/>
<path fill-rule="evenodd" clip-rule="evenodd" d="M170.241 178.94C171.215 178.751 171.877 177.939 171.719 177.128C171.561 176.316 170.644 175.811 169.669 176C168.695 176.19 168.033 177.002 168.191 177.813C168.349 178.625 169.267 179.13 170.241 178.94Z" fill="#FFB61D"/>
<path d="M269.507 85.235C269.963 85.1555 270.398 85.461 270.477 85.9173C270.557 86.3735 270.251 86.8079 269.795 86.8873C267.625 87.2653 265.436 88.5788 263.18 90.6681C260.25 93.3811 258.315 97.1297 257.248 102.128C256.388 106.155 257.182 111.186 259.429 115.61C261.985 120.642 266.508 121.886 271.781 122.849C277.194 123.838 278.69 123.227 283.805 121.409L284.276 121.238C284.975 120.973 288.243 119.694 289.029 119.457C290.683 118.956 291.811 118.998 292.629 119.87C292.946 120.208 292.929 120.738 292.591 121.055C292.275 121.352 291.789 121.356 291.468 121.077L291.406 121.018C291.165 120.761 290.666 120.731 289.662 121.019L289.515 121.062C288.759 121.291 285.214 122.682 284.755 122.849C279.231 124.866 277.357 125.573 271.479 124.499C265.655 123.435 260.714 121.843 257.934 116.369C255.517 111.613 254.666 106.191 255.608 101.778C256.747 96.4433 258.856 92.3866 262.041 89.4375C264.534 87.1289 267.017 85.6686 269.507 85.235Z" fill="white"/>
<path d="M308.958 151.963C304.178 151.719 300.413 155.411 300.373 160.368C300.34 164.544 302.692 167.982 305.924 168.649C307.23 168.918 309.739 168.594 311.6 167.551C314.425 166.035 316.585 162.92 316.858 160.266C317.301 155.941 313.8 152.211 308.958 151.963Z" fill="white"/>
<path d="M222.328 151.09C223.855 154.174 226.226 161.298 225.201 161.264C222.352 161.168 218.54 156.79 215.874 150.87L215.664 150.394C213.336 145.019 211.942 141.642 213.561 140.995C215.235 140.326 219.176 144.724 222.328 151.09Z" fill="white"/>
<path fill-rule="evenodd" clip-rule="evenodd" d="M213.561 140.928C215.235 140.259 219.234 144.456 222.386 150.822C223.913 153.906 224.948 156.865 225.219 158.986C225.219 158.986 220.062 148.12 216.916 144.14C215.708 142.611 213.561 140.928 213.561 140.928Z" fill="#E7EAEE"/>
<path d="M212.682 168.295C212.805 167.848 213.266 167.586 213.713 167.708C214.16 167.831 214.422 168.293 214.299 168.739C214.141 169.314 211.92 170.821 207.073 173.808L204.014 175.681C197.974 179.357 193.944 181.71 193.441 181.71C190.106 181.71 187.101 178.564 184.908 173.601C182.992 169.267 181.998 164.108 182.447 160.727C182.587 159.672 186.102 156.941 191.53 153.281L192.308 152.76C197.11 149.561 201.214 147.189 202.699 146.889C203.153 146.797 203.596 147.091 203.687 147.545C203.744 147.829 190.508 158.986 189.215 166.392C188.34 171.406 191.649 179.952 193.292 180.029L193.441 180.032C193.307 180.032 193.35 180.001 193.366 179.993L193.517 179.915C193.628 179.856 193.76 179.785 193.913 179.701L194.61 179.311C194.877 179.16 195.175 178.989 195.5 178.801L196.333 178.318C197.922 177.39 199.904 176.209 201.926 174.985L203.85 173.816C206.189 172.387 208.302 171.069 209.89 170.046L210.708 169.515C211.215 169.182 211.643 168.895 211.985 168.656L212.109 168.569C212.298 168.436 212.455 168.322 212.578 168.228C212.578 168.228 212.715 168.173 212.682 168.295Z" fill="white"/>
<path d="M213.91 138.211C216.815 137.05 221.242 142.022 224.793 149.018L225.036 149.505C226.639 152.742 227.732 155.865 228.03 158.201C228.386 160.993 227.578 162.842 225.457 162.936C225.401 163.157 225.258 163.342 225.067 163.453L225.035 163.469L224.952 163.552C224.869 163.638 224.771 163.744 224.62 163.912L223.578 165.075C223.2 165.492 222.932 165.774 222.569 166.142C222.145 166.572 221.735 166.961 221.334 167.309C219.711 168.719 217.311 169.558 216.057 169.558C215.391 169.558 214.719 169.401 214.044 169.105C213.326 169.856 211.112 171.319 207.074 173.808L204.015 175.68C197.975 179.357 193.945 181.71 193.441 181.71C192.299 181.71 191.195 181.339 190.149 180.654C190.14 180.661 190.131 180.669 190.121 180.676L189.694 180.951C188.178 181.934 185.733 183.582 183.491 185.093C183.776 187.131 184.425 189.173 185.44 191.223C189.042 190.11 191.895 189.732 192.718 190.57C193.578 191.445 194.344 193.029 195.07 195.353C195.208 195.795 194.963 196.266 194.521 196.404C194.079 196.542 193.608 196.296 193.47 195.854C192.841 193.844 192.2 192.491 191.594 191.822L191.569 191.797L191.548 191.798C191.433 191.774 191.26 191.762 191.041 191.766C190.558 191.776 189.897 191.861 189.108 192.017C187.486 192.339 185.434 192.937 183.397 193.688C178.741 195.406 175.147 197.534 174.408 199.147C174.192 199.619 174.22 200.31 174.479 201.368L174.526 201.558C174.565 201.708 174.606 201.858 174.659 202.046L174.962 203.117C174.974 203.164 174.987 203.212 175.003 203.272C175.119 203.72 174.85 204.178 174.401 204.295C173.953 204.411 173.495 204.142 173.379 203.694L173.23 203.151L172.982 202.276C172.954 202.173 172.928 202.077 172.903 201.98C172.51 200.465 172.447 199.403 172.884 198.449C173.624 196.832 175.941 195.158 179.166 193.635L178.464 191.822L178.291 191.364C178.025 190.649 177.716 189.679 177.526 188.971C175.007 190.33 173.252 190.559 171.494 189.601L171.357 189.524C171.01 189.323 170.675 189.09 170.337 188.807L160.509 194.776C160.6 194.973 160.691 195.173 160.784 195.373C161.225 196.319 160.448 196.988 159.255 197.51L159.126 197.564C158.101 197.989 157.175 198.087 156.624 197.482C154.339 194.974 151.92 188.974 153.221 187.6C153.471 187.337 154.131 186.944 155.379 186.29L155.477 186.238C155.502 186.22 155.529 186.204 155.558 186.188L164.746 181.211C164.767 181.199 164.789 181.188 164.811 181.178C164.244 180.242 163.623 179.201 162.938 178.039C162.919 178.01 162.903 177.98 162.889 177.95C162.882 177.935 162.876 177.921 162.87 177.906C162.866 177.896 162.862 177.887 162.858 177.877C162.853 177.861 162.848 177.845 162.843 177.829C162.84 177.819 162.837 177.809 162.834 177.8C162.809 177.703 162.802 177.605 162.812 177.509C162.813 177.497 162.814 177.486 162.815 177.475C162.817 177.461 162.82 177.447 162.822 177.432C162.825 177.42 162.827 177.407 162.83 177.394C162.834 177.38 162.839 177.366 162.843 177.351C162.846 177.341 162.849 177.33 162.853 177.32C162.857 177.308 162.86 177.295 162.865 177.283C162.871 177.268 162.878 177.252 162.885 177.237C162.897 177.21 162.911 177.184 162.927 177.158L162.958 177.111C162.96 177.109 162.961 177.106 162.963 177.103C162.99 177.066 163.021 177.031 163.054 176.998C163.059 176.993 163.063 176.987 163.068 176.982C164.958 175.187 167.537 173.315 170.772 171.3L171.164 171.057C173.646 169.528 180.655 165.619 181.767 164.916L181.884 164.838C182.06 164.709 182.27 164.658 182.472 164.68C182.312 163.226 182.295 161.874 182.447 160.727C182.588 159.672 186.103 156.94 191.531 153.281L192.309 152.76C196.859 149.729 200.783 147.441 202.445 146.954C202.401 146.203 202.415 145.518 202.494 144.92C202.756 142.957 210.1 138.718 213.456 138.441C213.597 138.352 213.749 138.275 213.91 138.211ZM155.54 188.105C155.002 188.398 154.64 188.609 154.498 188.707L154.474 188.724C154.48 188.727 154.479 188.74 154.478 188.765L154.473 188.871C154.471 189.032 154.493 189.244 154.539 189.497C154.653 190.117 154.905 190.923 155.26 191.802C155.926 193.454 156.848 195.115 157.642 196.093L157.743 196.215L157.811 196.208C158.023 196.179 158.305 196.094 158.583 195.972C158.777 195.888 158.953 195.793 159.087 195.703L158.679 194.818C157.628 192.537 156.702 190.446 155.812 188.334L155.684 188.027L155.54 188.105ZM165.677 182.595C165.636 182.629 165.593 182.659 165.545 182.685L157.165 187.224C157.994 189.203 158.847 191.151 159.802 193.244L169.122 187.583C168.196 186.502 167.132 184.948 165.677 182.595ZM181.959 186.124C180.755 186.934 179.707 187.636 179.033 188.074C179.148 188.651 179.577 190.027 179.947 191.005L180.636 192.776L180.701 192.95C181.378 192.664 182.085 192.385 182.817 192.115L183.301 191.938C183.479 191.874 183.656 191.813 183.832 191.752C182.927 189.881 182.302 188.004 181.959 186.124ZM166.065 186.169C166.396 185.844 166.928 185.849 167.252 186.179C167.576 186.51 167.571 187.042 167.24 187.366C166.554 188.04 165.702 188.606 164.288 189.399L162.816 190.215L162.355 190.479C162.119 190.617 161.915 190.741 161.73 190.861C161.529 190.991 161.354 191.114 161.203 191.231C160.837 191.514 160.31 191.446 160.026 191.08C159.744 190.713 159.811 190.187 160.178 189.904C160.368 189.757 160.58 189.608 160.817 189.454C161.101 189.27 161.414 189.082 161.797 188.864L163.245 188.06C164.668 187.27 165.484 186.739 166.065 186.169ZM180.704 176.922C179.854 177.252 178.838 177.848 177.563 178.749L177.349 178.902C176.404 179.579 172.747 182.399 171.856 183.065L171.781 183.12C171.783 185.91 172.479 187.19 173.774 187.811L173.879 187.859C174.188 187.996 174.408 188.065 175.037 188.237C175.048 188.24 175.059 188.243 175.069 188.247C175.723 188.027 176.474 187.663 177.37 187.137L177.703 186.937C178.575 186.394 181.182 184.627 183.802 182.862C182.943 182.267 182.284 181.59 181.807 180.839C181.035 179.623 180.832 178.585 180.823 177.017L180.822 176.877L180.704 176.922ZM182.702 166.302C181.388 167.13 174.425 171.017 172.044 172.485C168.996 174.364 166.539 176.107 164.714 177.747L165.317 178.765C167.96 183.2 169.493 185.534 170.725 186.853C170.316 185.883 170.105 184.653 170.105 183.11C170.105 183.039 170.113 182.97 170.13 182.904C170.048 182.583 170.163 182.23 170.446 182.021L171.018 181.597C172.11 180.772 175.451 178.198 176.372 177.538C178.361 176.113 179.827 175.314 181.162 175.037C181.799 174.905 182.295 175.282 182.438 175.866L182.462 175.972C182.495 176.146 182.501 176.317 182.5 176.69V176.808C182.493 178.204 182.632 179.009 183.223 179.939C183.627 180.576 184.221 181.157 185.049 181.677C185.136 181.732 185.209 181.801 185.268 181.878C186.604 180.98 187.856 180.145 188.779 179.547C187.324 178.139 186.013 176.1 184.908 173.6C183.879 171.271 183.118 168.704 182.702 166.302ZM202.629 148.654C201 149.249 196.92 151.671 192.469 154.672L191.756 155.156C189.753 156.523 187.903 157.855 186.505 158.941L186.116 159.246C185.493 159.74 184.988 160.166 184.622 160.508C184.439 160.679 184.293 160.825 184.191 160.942L184.12 161.026C184.102 161.045 184.099 161.033 184.11 160.948L184.084 161.164C183.278 168.241 188.395 179.798 193.293 180.029L193.441 180.033C193.309 180.033 193.35 180.002 193.366 179.993L193.518 179.915C193.629 179.856 193.762 179.785 193.914 179.701L194.611 179.311C194.878 179.16 195.176 178.989 195.501 178.802L196.334 178.318C197.923 177.39 199.906 176.209 201.928 174.985L203.851 173.816C206.189 172.387 208.303 171.07 209.891 170.047L210.709 169.514C211.216 169.182 211.644 168.894 211.986 168.656L212.11 168.569C212.292 168.441 212.444 168.329 212.564 168.237C210.405 166.652 208.277 163.726 206.389 159.927L206.253 159.65C204.433 155.925 203.117 151.891 202.629 148.654ZM212.105 140.439C210.878 140.829 209.344 141.529 207.821 142.402C205.799 143.562 204.194 144.86 204.156 145.141C203.765 148.085 205.266 153.81 207.76 158.914C210.427 164.374 213.6 167.882 216.057 167.882C216.292 167.881 216.965 167.742 217.639 167.507C218.598 167.171 219.498 166.683 220.234 166.044C220.601 165.726 220.979 165.366 221.375 164.965L221.853 164.471C222.134 164.174 222.424 163.854 222.877 163.346L223.508 162.641C223.518 162.63 223.528 162.62 223.537 162.609C220.377 161.455 217.07 157.388 214.598 152.109L214.346 151.558C212.319 147.059 211.426 142.936 212.105 140.439ZM223.533 150.249C220.382 143.884 216.208 139.1 214.533 139.768C212.914 140.415 213.336 145.019 215.664 150.394L215.875 150.87C218.541 156.79 222.352 161.168 225.201 161.263C226.227 161.298 226.627 160.46 226.366 158.413C226.096 156.291 225.06 153.333 223.533 150.249Z" fill="#F4F0EA"/>
<path d="M148.492 271.342C152.686 294.723 168.404 312.3 188.46 316.444C192.142 317.204 198.517 317.305 205.119 316.45C213.624 315.349 221.902 312.824 229.181 308.732C249.18 297.984 264.354 276.048 266.321 256.846C268.049 239.979 261.605 224.396 249.94 213.28C249.94 213.28 213.295 231.279 195.307 241.509C179.653 250.411 148.492 271.342 148.492 271.342Z" fill="#DBCFBB"/>
<path d="M233.834 201.617C226.317 197.909 216.9 194.979 207.666 194.507C173.797 192.776 147.161 219.832 146.883 254.729C146.883 254.729 184.683 230.652 204.321 219.035C214.092 213.256 233.834 201.617 233.834 201.617Z" fill="#DBCFBB"/>
<path fill-rule="evenodd" clip-rule="evenodd" d="M303.495 183.832C303.381 189.662 297.211 199.367 287.294 210.349C280.109 218.304 271.749 225.993 264.74 231.175L264.303 231.494L264.593 232.782C266.298 240.253 268.523 248.374 267.682 256.564C265.641 276.442 250.093 298.868 229.547 309.886C222.053 314.09 213.535 316.683 204.798 317.811L203.965 317.914C197.45 318.682 191.216 318.554 187.406 317.769C172.618 314.72 160.098 304.383 152.529 289.422C152.503 289.372 152.483 289.32 152.469 289.268C151.472 289.836 150.131 290.471 149.519 290.679L147.842 291.246C129.763 297.327 111.84 302.414 104.518 299.239C101.731 298.03 100.779 295.706 101.944 292.583C103.077 289.547 106.218 285.636 111.488 280.769L111.777 280.503C116.771 275.925 127.86 267.561 145.045 255.409L145.05 255.186C145.888 219.18 173.856 191.731 209.012 193.972C219.765 194.657 228.329 198.478 232.605 200.825L234.486 199.816C252.128 190.383 266.283 183.752 277.083 179.783C294.844 173.256 303.628 176.308 303.495 183.832ZM277.662 183.651C257.801 190.949 226.414 207.362 182.714 233.765L181.386 234.568C147.358 255.168 124.825 270.817 112.911 281.739L112.324 282.281L111.767 282.803C102.823 291.254 101.237 295.988 105.186 297.7C111.945 300.631 130.096 295.69 147.871 289.859L149.519 289.316C151.104 288.791 152.156 288.489 152.806 288.35C152.835 288.33 152.866 288.311 152.898 288.295C153.121 288.182 153.369 288.178 153.584 288.263C153.631 288.272 153.661 288.286 153.677 288.306C153.822 288.385 153.945 288.507 154.025 288.665C161.373 303.188 173.481 312.039 187.744 314.979C191.447 315.743 197.693 315.854 204.193 315.051L204.583 315.001C213.119 313.899 221.433 312.515 228.74 308.416C248.818 297.648 264.031 275.706 266.014 256.392C266.861 248.138 265.78 240.036 262.905 232.494C262.668 232.661 262.432 232.823 262.199 232.982C261.757 233.283 261.922 232.796 262.693 231.52C262.734 231.354 262.826 231.202 262.958 231.088L263.195 230.712C263.278 230.581 263.365 230.445 263.457 230.303L264.451 229.465C273.819 221.541 281.018 214.794 286.049 209.224L286.623 208.585C295.931 198.169 301.717 188.969 301.812 183.801C301.917 178.132 294.437 177.486 277.662 183.651ZM193.451 289.706C195.701 296.583 192.297 301.006 186.305 301.235C180.769 301.446 175.727 297.957 175.984 293C176.206 288.715 179.14 284.135 182.752 282.453C187.12 280.418 191.22 282.886 193.451 289.706ZM183.637 284.353C180.746 285.699 178.26 289.58 178.077 293.108C177.895 296.622 181.779 299.309 186.225 299.14C190.873 298.962 193.259 295.862 191.458 290.358C189.583 284.627 186.732 282.911 183.637 284.353ZM239.199 275.692C242.07 281.117 241.319 286.447 236.904 288.836L236.781 288.901L236.716 288.965C230.796 294.827 223.401 295.538 218.578 291.289L218.413 291.141C212.857 286.052 214.181 277.309 223.021 270.455C228.71 266.044 235.659 269.002 239.199 275.692ZM224.122 271.875C216.097 278.097 214.968 285.549 219.627 289.816C222.967 292.876 227.903 293.045 232.514 290.075L232.604 290.015L232.57 290.008C232.251 289.924 231.995 289.666 231.922 289.331L231.908 289.245C231.849 288.753 232.201 288.306 232.694 288.247C233.821 288.114 234.8 287.842 235.629 287.452L235.742 287.397L235.88 287.255C236.421 286.685 236.949 286.066 237.461 285.396L237.631 285.171C237.823 284.913 238.127 284.788 238.425 284.812L238.448 284.815L238.46 284.792C239.536 282.665 239.281 279.782 237.705 276.714L237.611 276.533C234.532 270.715 228.777 268.265 224.122 271.875ZM277.562 207.389C277.1 209.03 275.695 211.281 273.54 213.947C269.784 218.596 264.142 224.006 259.21 227.705L260.304 226.502C260.294 226.492 260.284 226.479 260.277 226.465L259.899 225.771C257.431 221.267 254.682 216.823 250.238 213.201C238.736 217.943 225.548 224.425 213.533 231.203L209.595 233.429C180.593 249.858 165.334 259.694 149.017 271.785C149.633 274.559 150.409 277.265 151.338 279.888C151.484 280.299 149.579 281.839 149.23 281.649C145.975 283.83 140.878 285.414 137.976 285.497C135.148 285.577 133.514 284.432 134.355 282.149C135.059 280.24 137.712 277.516 142.486 273.866L143.03 273.453L144.13 272.626C162.095 259.176 179.881 248.261 212.709 229.742L214.083 228.971C236.599 216.403 262.673 205.08 274.615 204.035C277.07 203.821 278.184 205.179 277.562 207.389ZM146.832 273.412L143.068 276.252C139.71 278.799 137.29 280.682 135.982 281.89L135.886 281.979C134.29 283.476 136.096 283.872 137.928 283.82C140.703 283.741 144.953 281.637 148.551 279.722C147.886 277.662 147.312 275.556 146.832 273.412ZM205.71 264.306C206.159 264.42 206.43 264.877 206.316 265.326C206.202 265.775 205.746 266.046 205.297 265.932C203.042 265.36 201.71 265.579 201.278 266.187C200.991 266.59 201.15 267.276 201.686 267.715C202.105 268.058 202.663 268.222 203.047 268.138C203.381 268.065 203.568 267.808 203.568 267.164C203.568 266.701 203.943 266.326 204.406 266.326C204.869 266.326 205.245 266.701 205.245 267.164C205.245 268.565 204.544 269.529 203.404 269.777C202.487 269.977 201.418 269.663 200.624 269.013C199.452 268.054 199.069 266.398 199.911 265.214C200.835 263.916 202.859 263.583 205.71 264.306ZM168.872 261.228C170.166 261.615 170.723 262.608 170.898 264.098L170.916 264.26L170.937 264.505C170.94 264.546 170.943 264.588 170.946 264.633L170.99 265.484L171.003 265.675C171.01 265.76 171.017 265.829 171.026 265.89L171.048 266.018L171.062 266.075L171.085 266.095C171.344 266.349 171.413 266.746 171.246 267.074L171.203 267.149C170.952 267.538 170.433 267.65 170.043 267.399C169.508 267.053 169.386 266.698 169.321 265.678L169.268 264.68C169.262 264.589 169.255 264.511 169.247 264.423C169.151 263.446 168.913 262.991 168.391 262.834C166.926 262.396 166.085 262.844 165.819 263.823C165.582 264.695 165.925 265.612 166.526 265.867L166.679 265.923C167.071 266.091 167.279 266.534 167.147 266.949C167.006 267.39 166.535 267.634 166.093 267.493C164.496 266.984 163.738 265.087 164.201 263.383C164.718 261.481 166.516 260.522 168.872 261.228ZM229.375 248.387C231.698 251.652 231.266 255.806 227.54 257.686C227.126 257.894 226.622 257.728 226.413 257.315C226.205 256.901 226.371 256.397 226.784 256.188C229.482 254.827 229.79 251.864 228.009 249.359C226.278 246.926 223.869 246.658 222.213 249.287C220.458 252.075 220.586 253.711 221.849 254.448C222.853 255.032 224.468 254.91 224.912 254.431L224.955 254.379C225.224 254.002 225.747 253.913 226.124 254.182C226.502 254.451 226.59 254.974 226.321 255.352C225.389 256.661 222.729 256.902 221.005 255.896C218.797 254.609 218.586 251.9 220.794 248.394C223.158 244.639 227.014 245.068 229.375 248.387ZM194.606 243.578C195.042 243.578 195.4 243.911 195.441 244.336L195.445 244.417C195.445 244.564 195.582 244.729 196.074 245.09L196.54 245.424C197.047 245.795 197.292 246.024 197.524 246.39C198.052 247.226 198.352 248.077 198.352 249.078C198.352 251.641 194.502 255.127 190.299 256.678C185.261 258.538 181.133 257.159 180.01 251.989C179.912 251.537 180.199 251.09 180.651 250.992C181.104 250.893 181.551 251.18 181.649 251.633C182.521 255.645 185.53 256.651 189.718 255.105C193.335 253.77 196.675 250.746 196.675 249.078C196.675 248.433 196.478 247.875 196.106 247.287L196.055 247.216C195.97 247.108 195.837 246.991 195.596 246.813L195.043 246.414C194.124 245.736 193.768 245.279 193.768 244.417C193.768 243.954 194.143 243.578 194.606 243.578ZM198.543 197.097L198.013 197.156C169.397 200.598 147.929 223.486 146.758 254.2L149.829 252.04C158.642 245.853 168.871 238.787 180.518 230.84L182.787 229.469C189.562 225.381 196.04 221.535 202.223 217.926C202.111 217.728 202.079 217.486 202.155 217.252C202.588 215.932 202.987 215.046 203.719 214.157C206.011 211.378 209.15 210.02 211.374 211.765C211.593 211.937 211.703 212.196 211.694 212.455L213.67 211.327C219.891 207.786 225.778 204.515 231.334 201.511L229.164 200.893C225.946 199.987 221.942 198.913 217.954 198.086C217.99 200.74 216.004 202.859 212.704 204.317C209.898 205.556 206.242 206.222 203.643 206.067C198.78 205.777 196.043 201.512 198.543 197.097ZM248.741 233.516C250.793 239.123 249.1 244.221 243.976 244.188C236.675 244.14 229.546 237.765 230.698 232.055C231.212 229.507 233.127 227.253 236.458 226.129C241.777 224.332 246.652 227.808 248.741 233.516ZM236.995 227.718C234.242 228.647 232.74 230.415 232.342 232.387C231.427 236.919 237.635 242.469 243.987 242.511C247.625 242.534 248.877 238.767 247.166 234.092C245.356 229.146 241.309 226.261 236.995 227.718ZM175.33 207.865L175.39 207.951L175.793 208.593C175.991 208.919 176.168 209.239 176.336 209.583C178.194 213.381 178.146 218.359 175.003 225.27C173.579 228.4 169.951 232.607 166.784 235.118C162.739 238.324 159.719 239.052 156.114 238.656L155.045 238.53L154.914 238.518C154.842 238.513 154.797 238.513 154.747 238.514L154.673 238.518C154.617 238.52 154.598 238.517 154.595 238.51L154.595 238.504L154.568 238.548C154.325 238.897 153.852 239.011 153.473 238.8C153.068 238.575 152.922 238.064 153.148 237.66C153.449 237.118 153.953 236.873 154.594 236.842C154.764 236.834 154.943 236.84 155.157 236.858L155.407 236.882L156.099 236.966C159.382 237.364 161.995 236.773 165.742 233.803C168.717 231.445 172.175 227.434 173.476 224.575C176.417 218.108 176.46 213.654 174.83 210.32C174.721 210.098 174.608 209.888 174.485 209.676L174.31 209.382L173.958 208.826C173.712 208.434 173.831 207.916 174.223 207.67C174.591 207.44 175.069 207.53 175.33 207.865ZM274.762 205.706C269.4 206.175 260.996 208.824 251.308 212.763L251.591 213.013C254.287 215.432 259.727 221.169 261.43 225.261L263.126 223.38C267.311 218.725 270.348 215.229 272.236 212.893L272.618 212.414C274.422 210.124 275.588 208.211 275.947 206.935L275.999 206.741C276.222 205.819 275.963 205.601 274.762 205.706ZM194.463 208.431C196.55 209.44 197.397 211.686 196.024 213.723C195.765 214.107 195.244 214.208 194.86 213.949C194.476 213.691 194.374 213.169 194.633 212.785C195.388 211.665 194.962 210.535 193.733 209.94C192.438 209.314 191.019 209.674 190.286 211.041C189.612 212.301 189.565 214.006 190.104 215.122C190.577 216.103 191.265 216.291 192.316 215.5C192.686 215.221 193.211 215.296 193.49 215.666C193.769 216.036 193.694 216.561 193.324 216.84C191.411 218.281 189.516 217.764 188.593 215.851C187.82 214.248 187.882 211.978 188.808 210.249C189.99 208.044 192.398 207.432 194.463 208.431ZM205.014 215.224C204.623 215.698 204.343 216.199 204.084 216.841C206.245 215.586 208.37 214.359 210.457 213.162L210.397 213.126L210.338 213.085C209.058 212.08 206.801 213.056 205.014 215.224ZM201.437 196.84L200.704 196.892L200.655 196.954C197.756 200.617 198.872 203.591 202.831 204.013C205.675 204.316 213.223 202.207 214.108 201.466C214.971 200.745 216.061 199.087 216.229 197.743C213.668 197.262 211.162 196.908 208.926 196.793C206.642 196.677 204.39 196.679 202.174 196.797L201.437 196.84Z" fill="#F4F0EA"/>
<path d="M277.154 183.859C294.915 177.332 294.508 179.268 277.733 185.433C257.872 192.731 182.905 238.461 182.905 238.461C148.877 259.06 146.331 255.88 179.314 235.835L181.347 234.602C181.73 234.37 219.281 210.67 246.113 197.991C249.133 196.564 275.132 184.602 277.154 183.859Z" fill="white"/>
<path d="M307.822 151.365C313.325 151.647 317.367 155.955 316.851 160.987C316.56 163.825 314.381 167.275 311.178 169.089L310.968 169.205C308.428 170.63 305.499 170.63 304.484 170.421C300.63 169.627 297.94 165.646 297.977 160.957C298.021 155.361 302.318 151.084 307.822 151.365ZM315.378 162.193C315.032 162.712 314.618 163.227 314.135 163.734C312.834 165.098 310.218 166.951 306.268 169.32C307.555 169.239 309.13 168.863 310.402 168.15C312.766 166.882 314.662 164.493 315.378 162.193ZM314.858 156.797C314.623 157.786 314.049 158.895 313.146 160.128C311.691 162.115 308.083 164.755 302.287 168.108C302.881 168.568 303.541 168.914 304.249 169.125L305.091 168.63C309.268 166.152 312.001 164.235 313.268 162.906C314.588 161.522 315.309 160.132 315.455 158.732C315.463 158.66 315.483 158.593 315.513 158.531C315.371 157.924 315.15 157.342 314.858 156.797ZM311.594 153.601C311.56 155.183 311.061 156.52 310.092 157.584C309.061 158.717 307.823 159.785 306.422 160.787C304.939 161.848 303.353 162.782 301.768 163.58C301.306 163.813 300.871 164.021 300.47 164.202L300.003 164.409L299.764 164.509C300.143 165.561 300.692 166.494 301.372 167.253L301.73 167.048C307.361 163.788 310.856 161.227 312.179 159.42C313.517 157.593 313.994 156.19 313.695 155.237C313.688 155.216 313.685 155.195 313.681 155.174C313.091 154.553 312.387 154.021 311.594 153.601ZM308.336 152.611C308.364 153.645 308.022 154.597 307.32 155.441C306.256 156.72 303.592 158.491 299.278 160.816C299.245 160.833 299.212 160.846 299.178 160.857C299.177 160.893 299.175 160.93 299.175 160.967C299.169 161.796 299.257 162.596 299.426 163.351L299.564 163.294C299.62 163.27 299.682 163.243 299.748 163.213L300.211 163.003C300.531 162.855 300.871 162.69 301.229 162.51C302.763 161.737 304.297 160.835 305.725 159.813C307.061 158.857 308.236 157.843 309.206 156.778C310.05 155.851 310.447 154.66 310.395 153.17C310.394 153.139 310.397 153.108 310.401 153.077C309.753 152.849 309.062 152.691 308.336 152.611ZM307.134 152.555C303.153 152.638 299.995 155.475 299.314 159.432L299.524 159.318C303.224 157.284 305.53 155.72 306.399 154.675C306.936 154.029 307.176 153.332 307.134 152.555Z" fill="#F4F0EA"/>
<path fill-rule="evenodd" clip-rule="evenodd" d="M351.066 139.888C351.178 139.9 351.256 140.001 351.244 140.112C351.243 140.276 351.138 140.364 350.996 140.422C350.869 140.473 350.665 140.453 350.547 140.469C349.249 140.569 348.23 139.615 347.781 138.385C347.35 137.203 347.465 135.79 348.247 134.918C348.337 134.815 348.493 134.805 348.596 134.895C348.699 134.985 349.282 135.142 349.192 135.244C348.547 135.997 348.111 136.454 348.719 138.241C349.328 140.028 350.983 139.878 351.066 139.888Z" fill="#E7EAEE"/>
<path d="M143.478 152.876C143.712 152.535 144.178 152.449 144.519 152.683L144.894 152.944C145.314 153.242 145.685 153.525 146.013 153.793C146.799 153.433 147.682 153.243 148.818 153.184C149.231 153.162 149.583 153.48 149.604 153.893C149.626 154.305 149.309 154.657 148.896 154.679C148.242 154.713 147.702 154.795 147.223 154.937C147.947 155.766 148.217 156.49 148.231 157.253V157.4C148.231 157.814 147.897 158.149 147.483 158.149C147.096 158.149 146.777 157.854 146.738 157.477L146.734 157.4V157.274C146.723 156.785 146.516 156.295 145.839 155.624C145.535 155.843 145.232 156.105 144.909 156.419L144.114 157.223C143.823 157.516 143.349 157.518 143.056 157.227C142.762 156.935 142.76 156.462 143.051 156.168L143.713 155.495C144.039 155.169 144.354 154.883 144.668 154.633C144.376 154.412 144.045 154.174 143.671 153.917C143.33 153.683 143.243 153.217 143.478 152.876Z" fill="#F4F0EA"/>
<path d="M257.233 316.755C260.136 316.782 262.404 317.043 266.676 317.729C267.166 317.808 267.5 318.27 267.421 318.76C267.342 319.249 266.882 319.582 266.392 319.504L264.991 319.284C261.456 318.741 259.419 318.55 256.713 318.55C247.323 318.55 241.329 324.428 242.343 333.443C242.398 333.936 242.043 334.381 241.55 334.436C241.057 334.492 240.612 334.137 240.557 333.644C239.416 323.505 246.302 316.753 256.713 316.753L257.233 316.755ZM246.651 322.375C246.91 322.052 247.381 322 247.703 322.26C248.026 322.519 248.077 322.99 247.818 323.312C246.864 324.499 246.181 325.636 245.765 326.719C245.368 327.754 245.232 329.812 245.391 332.834C245.413 333.247 245.096 333.599 244.683 333.621C244.27 333.643 243.917 333.326 243.896 332.913L243.866 332.302C243.746 329.409 243.904 327.386 244.366 326.182C244.842 324.944 245.605 323.676 246.651 322.375ZM250.783 320.584C251.018 320.243 251.485 320.158 251.825 320.393C252.165 320.628 252.25 321.094 252.016 321.434L251.68 321.926C250.262 324.012 249.355 325.574 248.966 326.587C248.549 327.673 248.246 329.21 248.068 331.187C248.03 331.599 247.666 331.903 247.254 331.866C246.842 331.829 246.538 331.464 246.575 331.052C246.766 328.949 247.093 327.284 247.568 326.05C248.04 324.819 249.109 323.008 250.783 320.584ZM255.875 319.783C256.242 319.593 256.694 319.736 256.884 320.103C257.074 320.47 256.931 320.922 256.564 321.112C255.043 321.9 253.881 323.22 253.072 325.103C252.203 327.124 251.493 328.928 250.94 330.512C250.803 330.903 250.376 331.109 249.986 330.972C249.595 330.836 249.389 330.41 249.526 330.019C250.091 328.399 250.815 326.564 251.697 324.512C252.638 322.324 254.033 320.737 255.875 319.783ZM261.392 320.499C261.578 320.13 262.028 319.981 262.398 320.167C262.767 320.353 262.915 320.803 262.729 321.173C261.824 322.967 261.043 324.308 260.376 325.205C259.704 326.108 258.744 327.104 257.494 328.199C257.183 328.471 256.71 328.44 256.438 328.13C256.165 327.819 256.196 327.346 256.507 327.073C257.683 326.042 258.574 325.12 259.175 324.311C259.781 323.497 260.523 322.222 261.392 320.499ZM259.171 319.674C259.482 319.401 259.955 319.432 260.228 319.743C260.5 320.054 260.469 320.527 260.158 320.8C258.982 321.83 258.092 322.753 257.49 323.561C256.884 324.376 256.142 325.65 255.274 327.374C255.088 327.743 254.637 327.891 254.268 327.705C253.899 327.519 253.75 327.069 253.936 326.7C254.84 324.906 255.622 323.564 256.289 322.668C256.961 321.764 257.921 320.769 259.171 319.674ZM263.612 320.326C263.683 320.241 263.813 320.231 263.898 320.303L263.986 320.381C264.073 320.453 264.081 320.582 264.01 320.667C263.936 320.752 263.808 320.762 263.724 320.689L263.633 320.612C263.549 320.539 263.538 320.411 263.612 320.326Z" fill="#F4F0EA"/>
<path fill-rule="evenodd" clip-rule="evenodd" d="M237.612 315.977L238.128 317.124L239.304 317.462C239.368 317.48 239.405 317.546 239.386 317.61C239.381 317.629 239.37 317.647 239.356 317.662L238.462 318.551L238.512 319.832C238.515 319.898 238.463 319.953 238.397 319.956C238.375 319.957 238.352 319.951 238.333 319.94L237.321 319.364C237.29 319.346 237.252 319.344 237.218 319.357L236.136 319.787C236.074 319.811 236.005 319.781 235.98 319.72C235.972 319.699 235.97 319.676 235.974 319.654L236.201 318.393L235.44 317.388C235.4 317.335 235.411 317.26 235.464 317.22C235.48 317.208 235.499 317.2 235.519 317.197L236.731 317.026L237.401 315.963C237.437 315.907 237.511 315.89 237.567 315.925C237.587 315.938 237.602 315.956 237.612 315.977Z" fill="#F4F0EA"/>
<path fill-rule="evenodd" clip-rule="evenodd" d="M279.275 155.452C279.551 155.696 279.895 156.137 280.199 156.614L280.589 156.441L281.051 156.243C281.144 156.2 281.204 156.167 281.223 156.14C281.276 156.041 281.399 156.003 281.499 156.056C281.596 156.108 281.636 156.231 281.583 156.33C281.546 156.424 281.287 156.719 280.805 157.008C280.717 157.06 280.621 157.109 280.517 157.156C280.695 157.489 280.835 157.81 280.9 158.067C280.999 158.447 280.92 158.716 280.79 158.811C280.662 158.904 280.341 158.922 279.854 158.517C279.764 158.448 279.749 158.321 279.818 158.232C279.886 158.143 280.013 158.127 280.103 158.195C280.196 158.264 280.289 158.303 280.365 158.331L280.328 158.185C280.314 158.133 280.296 158.079 280.271 158.026C280.184 157.835 280.072 157.617 279.947 157.392C279.566 157.536 279.132 157.667 278.663 157.73C278.434 157.761 278.201 157.767 277.959 157.765C277.82 157.774 277.699 157.668 277.69 157.529C277.681 157.39 277.787 157.269 277.926 157.26C278.49 157.206 279.012 157.063 279.472 156.903L279.623 156.848C279.374 156.459 279.107 156.105 278.878 155.906C278.754 155.796 278.742 155.605 278.85 155.48C278.962 155.355 279.152 155.342 279.275 155.452Z" fill="#F4F0EA"/>
<path d="M119.209 261.757C119.655 267.566 115.917 269.076 112.499 267.936C109.061 267.07 109.061 256.215 110.066 255.814C111.242 255.348 112.68 255.116 113.587 255.057C115.797 254.914 117.132 255.846 117.814 257.291C118.447 257.774 118.686 258.543 118.64 259.455C118.62 259.889 119.189 261.458 119.209 261.757ZM113.765 265.736C114.574 264.966 115.59 264.134 116.046 262.576C115.678 260.021 114.587 258.695 113.392 257.776C111.472 258.168 111.412 264.036 113.095 265.293C113.325 265.463 113.548 265.613 113.765 265.736Z" fill="white"/>
<path fill-rule="evenodd" clip-rule="evenodd" d="M111.082 262.155C110.929 261.242 111.033 260.22 111.492 259.13C111.7 258.636 112.247 258.233 112.932 257.963C113.732 257.647 114.711 257.49 115.328 257.45C116.832 257.353 117.741 257.982 118.204 258.959C118.635 259.286 118.798 259.806 118.766 260.423C118.752 260.716 119.139 261.777 119.152 261.979C119.454 265.909 116.91 266.93 114.584 266.16C113.7 266.61 112.848 266.684 112.206 266.207C111.631 265.781 111.189 264.883 111.088 263.3C111.061 262.891 111.059 262.51 111.082 262.155ZM115.208 259.567C113.873 259.829 113.817 263.682 114.982 264.503C115.141 264.614 115.296 264.712 115.447 264.793C116.01 264.285 116.43 263.874 116.668 263.034C116.907 262.194 116.035 260.168 115.208 259.567Z" fill="#FFB61D"/>
<path d="M189.819 345.98C190.053 345.639 190.519 345.552 190.86 345.786L191.235 346.048C191.655 346.346 192.026 346.628 192.354 346.897C193.141 346.537 194.024 346.347 195.16 346.287C195.573 346.266 195.925 346.583 195.946 346.996C195.968 347.409 195.651 347.761 195.238 347.782C194.583 347.817 194.044 347.898 193.564 348.041C194.289 348.87 194.559 349.594 194.573 350.357V350.504C194.573 350.918 194.239 351.253 193.825 351.253C193.437 351.253 193.118 350.958 193.08 350.58L193.076 350.504V350.378C193.065 349.889 192.857 349.399 192.181 348.728C191.877 348.946 191.574 349.209 191.251 349.523L190.456 350.326C190.165 350.62 189.691 350.621 189.397 350.33C189.104 350.039 189.102 349.565 189.393 349.272L190.055 348.599C190.381 348.273 190.695 347.987 191.01 347.737C190.718 347.516 190.387 347.278 190.013 347.021C189.672 346.787 189.585 346.321 189.819 345.98Z" fill="#F4F0EA"/>
<path d="M189.819 345.98C190.053 345.639 190.519 345.552 190.86 345.786L191.235 346.048C191.655 346.346 192.026 346.628 192.354 346.897C193.141 346.537 194.024 346.347 195.16 346.287C195.573 346.266 195.925 346.583 195.946 346.996C195.968 347.409 195.651 347.761 195.238 347.782C194.583 347.817 194.044 347.898 193.564 348.041C194.289 348.87 194.559 349.594 194.573 350.357V350.504C194.573 350.918 194.239 351.253 193.825 351.253C193.437 351.253 193.118 350.958 193.08 350.58L193.076 350.504V350.378C193.065 349.889 192.857 349.399 192.181 348.728C191.877 348.946 191.574 349.209 191.251 349.523L190.456 350.326C190.165 350.62 189.691 350.621 189.397 350.33C189.104 350.039 189.102 349.565 189.393 349.272L190.055 348.599C190.381 348.273 190.695 347.987 191.01 347.737C190.718 347.516 190.387 347.278 190.013 347.021C189.672 346.787 189.585 346.321 189.819 345.98Z" fill="#F4F0EA"/>
<path fill-rule="evenodd" clip-rule="evenodd" d="M216.45 325.273L216.966 326.419L218.142 326.757C218.206 326.775 218.242 326.842 218.224 326.905C218.219 326.925 218.208 326.943 218.194 326.957L217.3 327.847L217.35 329.127C217.353 329.193 217.301 329.249 217.235 329.251C217.213 329.252 217.19 329.247 217.171 329.236L216.159 328.66C216.128 328.642 216.09 328.639 216.056 328.652L214.974 329.082C214.912 329.107 214.843 329.076 214.818 329.015C214.81 328.994 214.808 328.971 214.812 328.949L215.039 327.689L214.278 326.683C214.238 326.631 214.249 326.555 214.301 326.515C214.318 326.503 214.337 326.495 214.357 326.492L215.569 326.322L216.239 325.258C216.275 325.202 216.349 325.185 216.405 325.221C216.424 325.233 216.44 325.251 216.45 325.273Z" fill="#F4F0EA"/>
<path fill-rule="evenodd" clip-rule="evenodd" d="M151.539 317.394L152.416 318.295L153.637 318.21C153.703 318.206 153.76 318.256 153.764 318.322C153.766 318.342 153.762 318.362 153.753 318.381L153.218 319.522L153.703 320.708C153.728 320.77 153.699 320.84 153.637 320.865C153.617 320.873 153.594 320.876 153.572 320.872L152.424 320.676C152.388 320.67 152.352 320.681 152.324 320.705L151.455 321.479C151.405 321.523 151.329 321.518 151.285 321.469C151.271 321.452 151.261 321.432 151.257 321.41L151.04 320.147L149.981 319.463C149.925 319.427 149.909 319.353 149.945 319.297C149.956 319.28 149.971 319.266 149.989 319.256L151.07 318.681L151.336 317.453C151.35 317.388 151.414 317.347 151.478 317.361C151.501 317.366 151.522 317.378 151.539 317.394Z" fill="#F4F0EA"/>
<path fill-rule="evenodd" clip-rule="evenodd" d="M137.842 235.284L138.358 236.431L139.535 236.768C139.598 236.786 139.635 236.853 139.617 236.916C139.611 236.936 139.601 236.954 139.586 236.968L138.692 237.858L138.743 239.138C138.745 239.204 138.694 239.26 138.627 239.263C138.605 239.263 138.583 239.258 138.564 239.247L137.552 238.671C137.52 238.653 137.482 238.65 137.448 238.664L136.366 239.093C136.305 239.118 136.235 239.088 136.211 239.026C136.202 239.005 136.2 238.983 136.204 238.961L136.432 237.7L135.671 236.694C135.631 236.642 135.641 236.567 135.694 236.527C135.71 236.514 135.729 236.506 135.75 236.504L136.961 236.333L137.632 235.269C137.667 235.213 137.741 235.197 137.797 235.232C137.817 235.244 137.833 235.263 137.842 235.284Z" fill="#F4F0EA"/>
<path fill-rule="evenodd" clip-rule="evenodd" d="M137.722 236.426L137.941 236.913L138.441 237.056C138.468 237.064 138.483 237.092 138.475 237.119C138.473 237.128 138.469 237.135 138.462 237.141L138.083 237.519L138.104 238.063C138.105 238.091 138.083 238.115 138.055 238.116C138.046 238.116 138.036 238.114 138.028 238.109L137.598 237.865C137.585 237.857 137.569 237.856 137.554 237.862L137.095 238.044C137.069 238.054 137.039 238.042 137.029 238.016C137.025 238.007 137.024 237.997 137.026 237.988L137.123 237.452L136.799 237.025C136.782 237.003 136.787 236.971 136.809 236.954C136.816 236.949 136.824 236.945 136.833 236.944L137.348 236.872L137.632 236.42C137.647 236.396 137.679 236.389 137.703 236.404C137.711 236.409 137.718 236.417 137.722 236.426Z" fill="#E7EAEE"/>
<path fill-rule="evenodd" clip-rule="evenodd" d="M76.5046 285.591L77.0205 286.737L78.1967 287.075C78.2603 287.093 78.2971 287.159 78.2788 287.223C78.2732 287.243 78.2627 287.261 78.2482 287.275L77.3546 288.165L77.4046 289.445C77.4072 289.511 77.3557 289.567 77.2896 289.569C77.2672 289.57 77.2451 289.565 77.2256 289.554L76.2139 288.977C76.1823 288.959 76.1442 288.957 76.1104 288.97L75.0284 289.4C74.9669 289.424 74.8972 289.394 74.8728 289.333C74.8646 289.312 74.8623 289.289 74.8663 289.267L75.094 288.006L74.3329 287.001C74.2929 286.948 74.3033 286.873 74.3561 286.833C74.3724 286.821 74.3915 286.813 74.4117 286.81L75.6234 286.64L76.294 285.576C76.3292 285.52 76.4032 285.503 76.4592 285.538C76.4791 285.551 76.4949 285.569 76.5046 285.591Z" fill="#F4F0EA"/>
<path fill-rule="evenodd" clip-rule="evenodd" d="M128.347 182.633L128.721 182.894C129.142 183.192 130.712 184.672 131.041 184.941C131.826 184.58 132.708 184.391 133.844 184.332C134.257 184.31 134.609 184.628 134.631 185.041C134.652 185.453 134.335 185.806 133.922 185.827C133.268 185.861 132.728 185.941 132.249 186.084C132.975 186.913 133.244 187.639 133.258 188.401L133.258 188.548C133.258 188.962 132.923 189.297 132.509 189.297C132.121 189.297 131.803 189.003 131.764 188.625L131.76 188.548L131.76 188.423C131.749 187.934 131.543 187.442 130.866 186.771C130.561 186.989 130.258 187.253 129.935 187.567L129.14 188.371C128.849 188.664 128.375 188.666 128.082 188.375C127.788 188.084 127.786 187.61 128.077 187.316L128.739 186.644C129.066 186.317 129.38 186.031 129.694 185.78C129.142 184.519 127.071 183.167 127.305 182.826C127.54 182.485 128.006 182.398 128.347 182.633Z" fill="#F4F0EA"/>
<path fill-rule="evenodd" clip-rule="evenodd" d="M272.811 268.986L273.831 269.721L275.019 269.425C275.083 269.409 275.148 269.448 275.164 269.513C275.169 269.532 275.169 269.553 275.163 269.573L274.834 270.79L275.518 271.874C275.553 271.93 275.536 272.004 275.48 272.039C275.461 272.051 275.44 272.057 275.417 272.057L274.253 272.064C274.217 272.065 274.182 272.081 274.16 272.11L273.438 273.023C273.396 273.075 273.321 273.084 273.269 273.043C273.252 273.029 273.238 273.01 273.231 272.989L272.798 271.783L271.636 271.293C271.575 271.268 271.546 271.197 271.572 271.136C271.58 271.118 271.592 271.101 271.609 271.089L272.573 270.335L272.622 269.079C272.624 269.012 272.68 268.961 272.746 268.963C272.769 268.964 272.792 268.972 272.811 268.986Z" fill="#F4F0EA"/>
<path fill-rule="evenodd" clip-rule="evenodd" d="M284.53 222.059L284.839 223.277L285.938 223.814C285.998 223.843 286.022 223.915 285.993 223.974C285.985 223.993 285.971 224.008 285.954 224.02L284.92 224.741L284.747 226.011C284.738 226.076 284.677 226.122 284.612 226.113C284.59 226.11 284.569 226.101 284.552 226.087L283.655 225.343C283.627 225.32 283.59 225.311 283.555 225.318L282.414 225.554C282.35 225.567 282.286 225.525 282.273 225.461C282.268 225.439 282.27 225.416 282.278 225.395L282.721 224.193L282.146 223.071C282.116 223.012 282.139 222.939 282.198 222.909C282.216 222.9 282.236 222.895 282.257 222.896L283.48 222.939L284.325 222.008C284.369 221.959 284.445 221.955 284.494 221.999C284.511 222.015 284.524 222.036 284.53 222.059Z" fill="#F4F0EA"/>
<path fill-rule="evenodd" clip-rule="evenodd" d="M257.844 173.007L258.153 174.226L259.253 174.763C259.312 174.792 259.337 174.864 259.308 174.923C259.299 174.941 259.285 174.957 259.269 174.969L258.234 175.69L258.061 176.959C258.052 177.025 257.992 177.071 257.926 177.062C257.904 177.059 257.883 177.05 257.866 177.035L256.97 176.292C256.942 176.269 256.905 176.26 256.869 176.267L255.729 176.502C255.664 176.516 255.601 176.474 255.587 176.409C255.583 176.387 255.584 176.365 255.592 176.344L256.035 175.142L255.46 174.019C255.43 173.96 255.454 173.888 255.512 173.858C255.531 173.849 255.551 173.844 255.571 173.845L256.794 173.887L257.639 172.956C257.684 172.907 257.759 172.904 257.808 172.948C257.826 172.964 257.838 172.985 257.844 173.007Z" fill="#F4F0EA"/>
<path fill-rule="evenodd" clip-rule="evenodd" d="M336.681 184.949L337.136 184.908C337.65 184.867 338.116 184.843 338.54 184.838C338.91 184.057 339.464 183.345 340.296 182.569C340.599 182.288 341.073 182.304 341.355 182.607C341.637 182.909 341.62 183.383 341.318 183.665C340.838 184.112 340.476 184.52 340.201 184.937C341.29 185.106 341.962 185.488 342.463 186.064L342.558 186.176C342.824 186.493 342.782 186.965 342.465 187.231C342.169 187.48 341.735 187.46 341.463 187.195L341.411 187.139L341.33 187.043C341.007 186.675 340.533 186.431 339.583 186.352C339.49 186.715 339.427 187.112 339.382 187.561L339.289 188.687C339.255 189.099 338.893 189.405 338.481 189.371C338.069 189.337 337.763 188.975 337.797 188.563L337.872 187.622C337.912 187.162 337.969 186.74 338.049 186.346C337.684 186.365 337.277 186.396 336.825 186.44C336.413 186.479 336.047 186.178 336.007 185.766C335.968 185.355 336.269 184.989 336.681 184.949Z" fill="#F4F0EA"/>
<path fill-rule="evenodd" clip-rule="evenodd" d="M276.219 236.636C276.084 236.979 275.787 237.453 275.443 237.901L275.74 238.209L276.084 238.575L276.16 238.649C276.193 238.678 276.22 238.696 276.239 238.701C276.35 238.717 276.427 238.82 276.412 238.932C276.396 239.042 276.294 239.121 276.183 239.104C276.082 239.102 275.716 238.959 275.28 238.605C275.201 238.541 275.122 238.467 275.042 238.386C274.791 238.666 274.537 238.908 274.317 239.057C273.994 239.28 273.714 239.298 273.581 239.208C273.449 239.12 273.323 238.825 273.537 238.228C273.57 238.12 273.686 238.063 273.792 238.096C273.899 238.13 273.958 238.244 273.924 238.352C273.891 238.462 273.887 238.564 273.887 238.645L274.011 238.56C274.054 238.529 274.099 238.494 274.14 238.452C274.29 238.305 274.458 238.125 274.626 237.931C274.36 237.622 274.088 237.259 273.869 236.84C273.762 236.635 273.676 236.418 273.595 236.19C273.539 236.063 273.597 235.913 273.725 235.857C273.853 235.8 274.002 235.859 274.058 235.986C274.303 236.498 274.615 236.939 274.923 237.317L275.026 237.44C275.306 237.073 275.548 236.701 275.657 236.418C275.718 236.264 275.893 236.187 276.047 236.246C276.203 236.308 276.28 236.482 276.219 236.636Z" fill="#E7EAEE"/>
<path d="M268.909 84.037C269.366 83.9575 269.799 84.2633 269.879 84.7196C269.958 85.1757 269.653 85.6098 269.197 85.6893C267.027 86.0673 264.416 87.3647 262.159 89.454C259.229 92.1669 257.068 95.9959 256.001 100.994C255.141 105.021 255.931 110.323 258.178 114.746C260.734 119.778 264.844 123.2 270.117 124.163C275.53 125.152 280.11 124.538 285.225 122.72L285.695 122.549C286.394 122.284 289.663 121.004 290.449 120.766C292.103 120.266 293.231 120.309 294.049 121.181C294.366 121.518 294.348 122.049 294.011 122.366C293.694 122.663 293.208 122.666 292.888 122.388L292.826 122.328C292.585 122.071 292.085 122.041 291.081 122.329L290.935 122.372C290.179 122.601 286.634 123.993 286.175 124.16C280.65 126.177 275.693 126.887 269.815 125.813C263.991 124.75 259.463 120.979 256.683 115.506C254.266 110.749 253.418 105.057 254.36 100.643C255.499 95.3091 257.835 91.1716 261.02 88.2225C263.513 85.9142 266.42 84.4706 268.909 84.037ZM291.843 111.426C292.305 111.393 292.706 111.74 292.739 112.202C292.772 112.664 292.424 113.066 291.962 113.099C288.653 113.335 285.751 115.483 284.597 118.655C284.527 118.846 284.47 119.031 284.423 119.206L284.392 119.326L284.442 119.221C285.896 116.252 288.7 114.19 291.949 113.667L292.161 113.635C292.62 113.571 293.043 113.891 293.107 114.349C293.171 114.808 292.852 115.232 292.394 115.296C289.375 115.717 286.793 117.723 285.667 120.6L285.594 120.794C285.058 122.264 283.773 122.969 282.946 121.711C282.442 120.943 282.475 119.58 283.021 118.082C284.403 114.282 287.88 111.708 291.843 111.426ZM288.319 105.445C288.781 105.412 289.182 105.761 289.215 106.223C289.248 106.684 288.9 107.085 288.439 107.118C283.174 107.494 278.558 110.913 276.722 115.959C276.177 117.454 276.077 118.733 276.272 119.381L276.295 119.453L276.332 119.399C276.426 119.257 276.531 119.053 276.635 118.789L276.679 118.672C278.619 113.342 283.322 109.61 288.839 108.84C289.297 108.776 289.721 109.095 289.785 109.554C289.849 110.012 289.53 110.437 289.071 110.501C284.245 111.174 280.12 114.395 278.343 119.01L278.255 119.246C277.536 121.222 275.98 122.076 274.985 120.562C274.304 119.525 274.351 117.567 275.146 115.385C277.211 109.711 282.401 105.867 288.319 105.445ZM283.771 96.5165C284.233 96.4835 284.634 96.8309 284.667 97.2928C284.7 97.7548 284.352 98.1564 283.89 98.1893C276.382 98.7251 269.798 103.601 267.179 110.798C266.287 113.247 266.213 115.323 266.7 116.186L266.744 116.259C266.816 116.368 266.792 116.371 266.811 116.356L266.821 116.349C267.068 116.214 267.394 115.752 267.691 114.987L267.751 114.831C270.427 107.48 276.913 102.332 284.522 101.269C284.98 101.205 285.405 101.526 285.469 101.984C285.533 102.443 285.213 102.866 284.754 102.931C277.845 103.895 271.944 108.52 269.425 115.141L269.327 115.404C268.396 117.961 266.53 118.986 265.343 117.18C264.458 115.833 264.522 113.193 265.603 110.224C268.45 102.4 275.609 97.0988 283.771 96.5165ZM274.581 88.0887C275.036 87.9998 275.476 88.2955 275.565 88.7499C275.654 89.2044 275.358 89.6452 274.903 89.7342C268.106 91.0654 262.64 96.257 261.055 103.124C260.518 105.448 260.681 107.338 261.207 108.058L261.277 108.148L261.282 108.161L261.292 108.154C261.481 107.984 261.701 107.549 261.872 106.875L261.908 106.727C263.539 99.6652 268.923 94.1982 275.8 92.3622C276.247 92.2427 276.708 92.5084 276.827 92.9559C276.947 93.4034 276.68 93.8628 276.232 93.9823C270.037 95.6364 265.169 100.515 263.607 106.837L263.542 107.104C262.967 109.595 261.316 110.784 259.979 109.208C259 108.055 258.76 105.607 259.421 102.746C261.157 95.2289 267.141 89.5459 274.581 88.0887Z" fill="#F4F0EA"/>
<path fill-rule="evenodd" clip-rule="evenodd" d="M288.319 105.446C288.781 105.413 289.182 105.76 289.215 106.222C289.248 106.684 288.9 107.086 288.438 107.118C283.174 107.494 278.558 110.913 276.722 115.959C276.177 117.455 276.076 118.733 276.271 119.381L276.295 119.453L276.332 119.4C276.426 119.258 276.531 119.054 276.634 118.789L276.679 118.672C278.619 113.342 283.322 109.61 288.839 108.839C289.298 108.775 289.721 109.095 289.785 109.554C289.849 110.013 289.53 110.437 289.071 110.501C284.245 111.174 280.12 114.395 278.343 119.01L278.255 119.246C277.535 121.222 275.98 122.076 274.985 120.563C274.304 119.526 274.351 117.568 275.146 115.385C277.211 109.712 282.401 105.868 288.319 105.446Z" fill="#F4F0EA"/>
<path d="M236.091 214.63C253.672 206.407 268.371 202.063 277.523 201.265C280.326 201.021 281.597 202.566 280.887 205.079C280.36 206.946 278.755 209.506 276.295 212.539C272.007 217.826 266.353 222.349 260.722 226.557C269.73 218.243 272.028 214.765 274.806 211.34L275.242 210.795C277.302 208.191 278.634 206.015 279.044 204.563L279.102 204.342C279.358 203.294 279.062 203.046 277.69 203.166C268.745 203.945 254.102 208.298 236.585 216.51C219.04 224.736 218.538 222.84 236.091 214.63Z" fill="white"/>
<path d="M155.683 188.027L155.812 188.333C156.702 190.445 157.628 192.537 158.678 194.818L159.087 195.703C158.953 195.792 158.777 195.888 158.583 195.973C158.305 196.094 158.023 196.179 157.811 196.208L157.743 196.215L157.641 196.092C156.847 195.115 155.926 193.454 155.26 191.803C154.905 190.923 154.653 190.117 154.539 189.497C154.492 189.244 154.471 189.032 154.473 188.871L154.478 188.765C154.479 188.739 154.479 188.726 154.473 188.724L154.498 188.707C154.64 188.609 155.002 188.397 155.54 188.105L155.683 188.027Z" fill="white"/>
<path fill-rule="evenodd" clip-rule="evenodd" d="M177.909 180.377C178.459 179.704 179.172 179.804 180.076 180.352L180.308 180.499L180.958 180.929C181.14 181.046 181.218 181.086 181.324 181.128C181.57 181.226 181.69 181.505 181.592 181.751C181.495 181.997 181.216 182.116 180.97 182.019L180.882 181.983C180.716 181.911 180.591 181.837 180.254 181.614L179.788 181.303C179.711 181.253 179.645 181.211 179.579 181.172C179.039 180.844 178.793 180.809 178.651 180.983C178.561 181.093 178.583 181.328 178.761 181.808L178.957 182.311C179.345 183.343 179.348 183.804 178.655 184.198C178.059 184.537 177.754 184.379 176.898 183.54L176.69 183.334C176.142 182.787 175.855 182.596 175.669 182.635C175.608 182.648 175.536 182.692 175.449 182.785C175.346 182.895 175.317 183.245 175.38 183.866L175.476 184.677C175.589 185.669 175.544 185.925 175.134 186.199C174.571 186.577 173.821 186.15 172.431 184.902C172.234 184.725 172.217 184.422 172.394 184.225C172.571 184.028 172.874 184.012 173.071 184.189C173.665 184.722 174.114 185.07 174.427 185.248L174.498 185.286L174.556 185.316L174.558 185.256L174.554 185.112C174.548 184.995 174.533 184.852 174.504 184.611L174.443 184.113C174.326 183.104 174.363 182.542 174.75 182.13C174.965 181.9 175.206 181.754 175.471 181.698C176.087 181.567 176.524 181.83 177.25 182.54L177.617 182.901C178.012 183.281 178.158 183.378 178.182 183.365C178.271 183.314 178.258 183.155 178.015 182.532L177.909 182.262C177.57 181.392 177.505 180.87 177.909 180.377Z" fill="#F4F0EA"/>
<path d="M233.384 100.039C233.687 99.7575 234.161 99.7741 234.443 100.077C234.725 100.379 234.708 100.853 234.406 101.135C234.132 101.391 233.897 101.634 233.694 101.873C234.261 101.823 234.878 101.843 235.583 101.93C235.993 101.981 236.284 102.354 236.234 102.764C236.185 103.16 235.836 103.445 235.442 103.418C235.479 103.457 235.517 103.494 235.551 103.534L235.646 103.646C235.912 103.963 235.87 104.436 235.553 104.702C235.257 104.95 234.823 104.93 234.551 104.665L234.499 104.609L234.419 104.513C234.335 104.418 234.241 104.332 234.133 104.254C234.338 104.82 234.378 105.329 234.299 105.835L234.273 105.981C234.201 106.388 233.813 106.66 233.406 106.588C233.024 106.521 232.761 106.175 232.789 105.796L232.799 105.72L232.82 105.597C232.876 105.234 232.823 104.85 232.56 104.351C232.524 104.564 232.495 104.79 232.47 105.031L232.378 106.157C232.343 106.569 231.981 106.875 231.569 106.841C231.157 106.807 230.851 106.445 230.885 106.033L230.961 105.092C230.977 104.903 230.997 104.721 231.019 104.544L230.249 105.09C229.911 105.329 229.444 105.248 229.206 104.911C228.967 104.573 229.047 104.106 229.384 103.868L229.465 103.81C229.264 103.693 229.12 103.486 229.095 103.237C229.056 102.825 229.358 102.459 229.769 102.419L230.224 102.378C230.478 102.358 230.721 102.341 230.952 102.329C230.778 102.15 230.591 101.959 230.386 101.758C230.091 101.469 230.087 100.995 230.377 100.7C230.666 100.405 231.14 100.4 231.435 100.69L231.759 101.012C231.897 101.151 232.026 101.288 232.15 101.42C232.472 100.964 232.876 100.513 233.384 100.039Z" fill="#F4F0EA"/>
<path d="M200.817 107.629C201.025 107.408 201.362 107.402 201.57 107.616L201.798 107.853C202.07 108.141 202.305 108.409 202.509 108.659C203.004 108.592 203.544 108.601 204.189 108.683C204.483 108.721 204.696 108.969 204.665 109.236C204.633 109.504 204.37 109.689 204.076 109.652C203.738 109.609 203.439 109.588 203.165 109.593C203.568 110.292 203.665 110.858 203.576 111.42L203.557 111.528C203.503 111.831 203.226 112.035 202.937 111.984C202.666 111.936 202.481 111.681 202.502 111.4L202.51 111.343L202.526 111.252C202.586 110.865 202.487 110.447 202.019 109.795C201.71 109.906 201.404 110.064 201.063 110.272L200.411 110.688C200.172 110.84 199.837 110.782 199.663 110.559C199.488 110.336 199.54 110.031 199.779 109.879L200.323 109.531C200.681 109.305 201.016 109.122 201.349 108.981C201.192 108.806 201.016 108.618 200.818 108.415C200.61 108.202 200.61 107.85 200.817 107.629Z" fill="#E7EAEE"/>
<path fill-rule="evenodd" clip-rule="evenodd" d="M104.876 232.393L105.392 233.54L106.568 233.877C106.631 233.895 106.668 233.962 106.65 234.025C106.644 234.045 106.634 234.063 106.619 234.077L105.726 234.967L105.776 236.247C105.778 236.313 105.727 236.369 105.661 236.371C105.638 236.372 105.616 236.367 105.597 236.356L104.585 235.78C104.553 235.762 104.515 235.759 104.482 235.772L103.399 236.202C103.338 236.227 103.268 236.197 103.244 236.135C103.236 236.114 103.233 236.092 103.237 236.07L103.465 234.809L102.704 233.803C102.664 233.751 102.674 233.675 102.727 233.636C102.743 233.623 102.763 233.615 102.783 233.612L103.995 233.442L104.665 232.378C104.7 232.322 104.774 232.305 104.83 232.341C104.85 232.353 104.866 232.371 104.876 232.393Z" fill="#F4F0EA"/>
<path fill-rule="evenodd" clip-rule="evenodd" d="M119.166 183.653L119.764 184.981L121.126 185.372C121.2 185.393 121.242 185.47 121.221 185.543C121.215 185.566 121.202 185.587 121.186 185.603L120.151 186.634L120.209 188.116C120.212 188.193 120.152 188.257 120.075 188.26C120.05 188.261 120.024 188.255 120.001 188.242L118.83 187.575C118.793 187.554 118.749 187.551 118.71 187.567L117.457 188.064C117.385 188.093 117.305 188.058 117.276 187.987C117.267 187.963 117.264 187.936 117.269 187.911L117.533 186.45L116.651 185.286C116.605 185.225 116.617 185.138 116.678 185.092C116.697 185.078 116.719 185.068 116.742 185.065L118.146 184.867L118.922 183.636C118.963 183.571 119.049 183.551 119.114 183.592C119.137 183.607 119.155 183.628 119.166 183.653Z" fill="#F4F0EA"/>
<path d="M137.215 300.998C137.66 300.675 138.283 300.774 138.606 301.219C138.93 301.664 124.839 313.141 119.372 318.401L118.737 319.017C115.615 322.072 113.313 324.717 112.015 326.809C110.64 329.025 110.552 330.228 111.44 330.72C114.808 332.587 119.65 333.496 126.585 332.347L127.298 332.226C129.938 331.763 149.796 327.432 149.481 327.547L149.359 327.584C148.733 327.75 140.647 330.546 137.856 331.257L137.519 331.342C133.253 332.415 129.914 333.151 126.911 333.648C119.572 334.864 114.328 334.598 110.474 332.462C108.25 331.23 108.427 328.813 110.323 325.758C111.813 323.356 114.435 320.387 117.991 316.965C123.53 311.635 131.322 305.277 137.215 300.998Z" fill="white"/>
<path fill-rule="evenodd" clip-rule="evenodd" d="M251.23 174.72C251.473 174.558 251.799 174.627 251.959 174.874L255.554 180.445C255.713 180.692 255.645 181.023 255.402 181.185C255.159 181.346 254.833 181.277 254.674 181.031L251.078 175.459C250.919 175.212 250.987 174.881 251.23 174.72Z" fill="#F4F0EA"/>
<path fill-rule="evenodd" clip-rule="evenodd" d="M251.405 170.603C251.683 170.439 252.051 170.522 252.227 170.788L254.701 174.535C254.876 174.801 254.793 175.149 254.514 175.313C254.236 175.477 253.868 175.395 253.693 175.129L251.218 171.381C251.043 171.116 251.126 170.767 251.405 170.603Z" fill="#F4F0EA"/>
</svg>
