<svg width="430" height="430" viewBox="0 0 430 430" fill="none" xmlns="http://www.w3.org/2000/svg">
<path fill-rule="evenodd" clip-rule="evenodd" d="M194.621 165.233C193.7 163.944 191.379 162.72 189.348 162.821C187.316 162.922 185.403 163.761 183.58 164.654C184.973 165.669 186.539 166.45 188.191 166.953C188.714 167.113 189.897 167.582 192.45 166.527" fill="#7DBE57"/>
<path fill-rule="evenodd" clip-rule="evenodd" d="M52.3769 305.341C-0.000350952 234.276 140.308 215.163 223.652 160.607C269.068 130.878 289.84 98.3574 329.093 99.2405C409.34 101.046 412.624 252.63 395.583 279.86C331.327 382.539 74.0562 334.755 52.3769 305.341Z" fill="#DBCFBB"/>
<path fill-rule="evenodd" clip-rule="evenodd" d="M218.44 209.089C235.943 209.089 253.752 210.743 269.461 218.594C271.313 219.519 273.449 221.239 272.782 223.219C272.531 223.963 271.918 224.514 271.31 225C264.191 230.687 254.73 232.132 245.724 233.153C242.224 233.55 238.72 233.913 235.211 234.207C207.363 236.539 179.164 234.492 151.928 228.161C150.325 227.788 148.457 227.154 148.012 225.548C147.47 223.596 149.428 221.928 151.162 220.917C164.578 213.097 179.91 208.685 195.377 208.194C192.625 208.622 231.994 209.19 218.44 209.089Z" fill="#F18F01"/>
<path fill-rule="evenodd" clip-rule="evenodd" d="M318.863 153.526C315.251 160.798 312.231 168.505 311.399 176.594C311.363 176.943 311.335 177.315 311.497 177.625C311.824 178.252 312.688 178.284 313.39 178.237C329.657 177.166 346.469 180.367 360.27 189.107C364.987 192.095 369.32 195.695 374.212 198.382C374.428 198.5 374.673 198.62 374.909 198.551C375.147 198.482 375.291 198.245 375.411 198.026C378.383 192.622 381.017 187.028 383.29 181.289C384.096 179.254 384.863 177.171 385.063 174.99C385.566 169.499 381.953 163.895 376.769 162.126C363.482 157.59 350.195 153.054 336.909 148.518C334.48 147.689 332.019 146.853 329.461 146.667C326.903 146.482 324.195 147.018 322.223 148.669C320.705 149.939 319.746 151.748 318.863 153.526Z" fill="#506BAE"/>
<path d="M270.017 326.198C269.991 327.568 273.277 328.585 274.281 327.649C275.285 326.714 275.404 325.193 275.457 323.824C276.172 305.369 276.315 287.475 275.935 269.011L324.428 281.559L322.261 330.584C322.194 331.973 324.347 332.49 325.396 331.574C326.446 330.659 326.618 329.121 326.715 327.734C327.714 313.453 327.89 299.106 328.677 284.836C329.093 277.275 338.822 277.275 348.276 267.951C352.984 263.309 357.001 256.903 357.001 256.903C357.748 274.242 359.19 291.625 357.89 308.932C357.791 310.247 359.83 310.781 360.836 309.925C361.803 309.104 362.003 307.726 362.104 306.453L362.116 306.295C363.455 288.178 365.003 249.41 366.933 224.015C367.664 214.4 369.735 205.188 370.947 199.722C371.482 197.31 369.807 197.351 366.456 195.846C365.084 195.23 362.017 199.748 360.627 212.572L360.557 213.247C360.055 218.349 359.617 227.977 359.242 242.133C358.636 245.377 354.98 246.127 348.276 244.383L348.013 244.313C341.142 242.481 330.602 239.135 316.393 234.276L316.295 232.936C314.746 211.415 315.274 196.375 317.877 187.816L317.958 187.553C322.05 174.525 315.219 179.911 314.443 180.952C309.246 187.92 308.127 196.825 308.16 204.853L308.259 228.989C308.259 231.509 308.138 234.14 306.758 236.229C305.572 238.022 303.633 239.142 301.735 240.172L278.28 252.856C276.118 254.033 273.966 255.281 272.265 257.047C270.393 258.991 269.119 261.7 269.551 264.36C269.84 266.133 270.565 267.514 271.726 268.502L271.301 280.916C270.655 300.251 270.227 315.344 270.017 326.198Z" fill="#506BAE"/>
<path d="M155.396 327.344C155.422 328.715 153.283 329.159 152.279 328.223C151.275 327.287 151.156 325.767 151.103 324.397C150.387 305.943 149.671 287.475 150.051 269.011C133.856 273.858 117.662 278.704 101.467 283.551C102.22 299.229 102.972 314.906 103.725 330.584C103.792 331.973 101.639 332.49 100.59 331.574C99.5406 330.659 99.3686 329.121 99.2716 327.734C98.2726 313.453 97.6183 299.148 97.3094 284.836C97.271 283.053 95.8598 281.639 94.5461 280.43C86.0259 272.588 77.5057 264.746 68.9855 256.904C68.2382 274.242 68.5158 291.625 69.8162 308.932C69.9151 310.247 67.8763 310.781 66.8697 309.926C65.8631 309.07 65.6878 307.61 65.5905 306.295C63.4949 277.952 64.916 249.437 62.8013 221.096C62.293 214.283 61.557 207.385 59.0527 201.027C63.5366 199.985 115.917 189.207 111.479 182.394C117.46 187.766 117.859 196.825 117.826 204.853C117.793 212.731 117.761 220.609 117.728 228.487C117.717 231.156 117.756 234.001 119.229 236.229C120.461 238.094 122.51 239.23 124.479 240.295C132.005 244.365 139.532 248.435 147.058 252.504C149.433 253.789 151.85 255.104 153.721 257.048C155.593 258.991 156.867 261.7 156.435 264.36C156.002 267.02 153.474 269.379 150.796 269.02C153.633 269.624 153.359 268.984 154.26 268.502C154.639 288.116 155.017 307.73 155.396 327.344Z" fill="#8A9CC9"/>
<path d="M62.5382 206.04C61.7586 203.682 60.9789 201.324 60.1992 198.966C61.2853 199.237 99.9698 185.572 107.085 183.506C107.78 183.304 108.174 183.213 108.202 183.257C112.872 190.643 112.98 199.919 112.941 208.656C112.905 216.77 112.869 224.884 112.833 232.998C112.825 234.785 112.465 237.053 110.731 237.489C100.467 240.071 90.3501 243.232 80.4423 246.95C77.5205 248.046 74.4657 249.212 71.3688 248.824C69.7409 248.62 68.2001 247.995 66.6812 247.375C65.6956 246.973 64.5426 246.336 64.5454 245.272C64.5684 236.577 64.5915 227.882 64.6146 219.187C64.6207 216.882 64.6258 214.564 64.2506 212.29C63.8986 210.156 63.2172 208.093 62.5382 206.04Z" fill="white"/>
<path fill-rule="evenodd" clip-rule="evenodd" d="M214.769 0.386875C214.5 0.461866 214.073 0.410858 214.116 0.13445C214.277 0.0517667 214.458 -0.0333105 214.633 0.0131842C214.808 0.0596789 214.921 0.312989 214.781 0.42691L214.769 0.386875Z" fill="#00160A"/>
<path d="M97.5 147.632L47.5 164.632C44.7 164.632 42.6667 171.632 42 175.132C43.5 179.799 47.1 190.332 49.5 195.132C52.5 201.132 56 198.132 57 197.632C58 197.132 74.5 191.132 77.5 189.132C80.5 187.132 101 181.132 105 180.632C109 180.132 113.5 180.632 115 180.132C116.5 179.632 116.5 179.132 117 177.632C117.5 176.132 115.5 171.632 115 168.632C114.5 165.632 110 155.132 106.5 150.132C103.7 146.132 99.3333 146.799 97.5 147.632Z" fill="#8A9CC9" stroke="black"/>
<path d="M109.759 181.247C115.74 186.62 116.139 195.679 116.106 203.707C116.073 211.585 116.041 219.462 116.008 227.34C115.997 230.009 116.036 232.854 117.509 235.082C118.742 236.947 120.791 238.083 122.759 239.148C130.286 243.217 137.812 247.288 145.338 251.358C147.714 252.642 150.13 253.957 152.001 255.901C153.873 257.844 155.148 260.553 154.715 263.213C154.283 265.873 151.754 268.232 149.076 267.873C149.196 286.397 149.648 304.92 150.428 323.428C150.498 325.081 151.139 327.282 152.793 327.169C152.385 308.142 151.977 289.114 151.568 270.087C151.546 269.067 151.639 267.838 152.54 267.356C152.919 286.97 153.298 306.583 153.676 326.197C153.703 327.568 151.563 328.012 150.559 327.076C149.555 326.14 149.436 324.62 149.383 323.25C148.667 304.796 147.952 286.329 148.332 267.864C132.137 272.711 115.942 277.558 99.7475 282.404C100.5 298.082 101.253 313.76 102.005 329.438C102.072 330.826 99.9187 331.344 98.8696 330.428C97.8205 329.512 97.6492 327.974 97.5522 326.587C96.5533 312.306 95.8982 298.001 95.5893 283.689C95.5507 281.906 94.1402 280.492 92.8266 279.283C84.3065 271.441 75.7862 263.599 67.2661 255.757C66.5188 273.096 66.7957 290.479 68.0962 307.785C68.1946 309.1 66.1564 309.634 65.1499 308.778C64.1435 307.923 63.9678 306.463 63.8706 305.148C61.775 276.805 63.1962 248.29 61.0815 219.949C60.5732 213.137 59.8377 206.238 57.3335 199.88C60.5122 203.522 61.1827 208.652 61.6118 213.462C64.2278 242.784 62.982 272.31 64.4077 301.713C64.5316 304.268 64.7882 307.082 66.6333 308.859C66.3391 291.429 66.0456 274 65.7514 256.57C65.729 255.243 65.7292 253.829 66.4419 252.707C67.1546 251.586 68.8643 250.997 69.8481 251.892C78.9371 260.158 88.0267 268.425 97.1157 276.692C98.1518 277.634 99.5065 278.647 100.821 278.159C117.804 271.861 135.075 266.335 152.562 261.601C154.315 261.126 153.291 258.439 151.914 257.257C142.983 249.593 131.383 245.853 121.421 239.579C119.786 238.549 118.157 237.413 117.066 235.82C115.711 233.841 115.328 231.368 115.125 228.98C114.44 220.884 115.409 212.745 115.377 204.62C115.346 196.496 114.197 188.06 109.759 181.247ZM69.4223 253.233C68.7773 252.648 67.6247 252.12 67.188 252.872C66.8611 253.435 67.3717 254.102 67.8442 254.551C77.0709 263.311 86.2981 272.07 95.5249 280.83C96.7211 281.966 96.829 283.801 96.8588 285.448C97.0258 294.647 97.1929 303.847 97.3598 313.046C97.4703 319.133 97.6579 325.511 100.675 330.803C101.039 315.076 99.2886 299.384 98.6987 283.664C98.6793 283.148 98.6693 282.599 98.936 282.156C99.2752 281.594 99.9607 281.359 100.59 281.167C117.257 276.085 133.924 271.002 150.591 265.92C151.406 265.672 152.253 265.404 152.863 264.812C153.472 264.219 153.753 263.196 153.252 262.509C134.913 267.668 116.752 273.459 98.813 279.868C89.0161 270.99 79.2191 262.111 69.4223 253.233ZM112.73 240.352C113.457 240.239 114.419 240.259 114.666 240.933L112.589 241.294C102.217 243.17 92.0364 246.044 82.2446 249.862C80.5331 250.53 78.8336 251.226 77.1342 251.922C76.327 252.253 75.5196 252.583 74.7124 252.913C74.1631 252.373 74.9863 251.557 75.6967 251.24C87.4565 246 99.9539 242.325 112.73 240.352ZM106.833 182.444C107.368 182.223 107.893 182.767 108.203 183.256C112.873 190.642 112.981 199.919 112.942 208.655C112.906 216.769 112.87 224.883 112.833 232.997C112.826 234.785 112.465 237.053 110.731 237.489C100.468 240.072 90.3505 243.231 80.4428 246.949C77.5211 248.046 74.4664 249.212 71.3696 248.824C69.7418 248.621 68.2009 247.995 66.6821 247.375C65.6965 246.973 64.5426 246.335 64.5454 245.272C64.5684 236.577 64.5916 227.882 64.6147 219.187C64.6208 216.882 64.6266 214.564 64.2514 212.289C63.8994 210.156 63.2174 208.092 62.5385 206.039C61.7589 203.682 60.9793 201.324 60.1997 198.966C61.3917 199.263 62.0772 200.488 62.5542 201.619C65.939 209.65 65.8234 218.661 65.6528 227.373C65.5461 232.82 65.4392 238.266 65.3325 243.713C65.2908 245.843 67.5829 247.266 69.6792 247.652C74.4879 248.539 79.2724 246.425 83.8256 244.644C92.3645 241.303 101.264 238.986 110.138 236.677C111.535 236.313 111.815 234.482 111.814 233.039C111.808 223.495 111.802 213.95 111.795 204.405C111.794 202.009 111.791 199.607 111.557 197.222C111.048 192.037 109.426 186.964 106.833 182.444ZM97.2514 147.241C101.123 145.951 105.484 147.982 108.113 151.093C110.741 154.204 112.014 158.199 113.225 162.081C114.41 165.88 115.596 169.679 116.782 173.478C117.253 174.989 117.73 176.573 117.449 178.13C117.167 179.688 115.862 181.185 114.274 181.113C104.328 180.664 94.4732 183.274 85.184 186.842C75.8949 190.41 67.0062 194.944 57.7475 198.589C55.5666 199.448 52.9291 200.21 51.021 198.853C49.8786 198.04 49.3179 196.659 48.8139 195.355C47.068 190.835 45.3225 186.314 43.5766 181.794C42.9102 180.069 42.2392 178.325 41.9712 176.496C41.1314 170.765 44.876 164.703 50.3921 162.863L97.2514 147.241ZM101.366 147.818C99.63 147.546 97.8793 148.075 96.2036 148.601C80.8725 153.41 65.6346 158.516 50.5024 163.914C49.2766 164.351 48.0242 164.806 47.021 165.632C45.889 166.564 45.1625 167.905 44.6899 169.29C43.1646 173.761 44.0846 178.705 45.687 183.149C47.2893 187.592 49.5549 191.8 50.8071 196.354C51.2405 197.93 53.3352 198.303 54.9565 198.05C56.9651 197.736 58.8617 196.941 60.728 196.138C69.3869 192.411 77.9117 188.34 86.8051 185.208C95.6986 182.076 105.045 179.885 114.476 180.083C115.435 180.103 116.232 179.244 116.462 178.318C116.693 177.391 116.49 176.417 116.273 175.486C115.288 171.273 113.993 167.137 112.639 163.026C111.059 158.227 109.247 153.225 105.423 149.907C104.26 148.898 102.89 148.056 101.366 147.818ZM57.0561 189.42C57.3165 189.2 57.6878 189.258 57.9887 189.398C58.4587 189.616 58.876 190.039 59.0122 190.59C59.1482 191.141 58.9397 191.809 58.478 192.048C57.6746 192.464 56.8222 191.396 56.7641 190.403L56.7592 190.267C56.7596 189.945 56.8318 189.61 57.0561 189.42ZM58.0356 190.323C57.7619 190.245 57.4648 190.562 57.519 190.873C57.5912 191.286 58.076 191.396 58.4458 191.332L58.2563 191.085C58.437 190.841 58.3096 190.402 58.0356 190.323ZM66.4155 185.452C66.9484 185.077 67.79 185.274 68.101 185.847C68.4121 186.42 68.1186 187.233 67.5141 187.477C66.9924 187.687 66.3314 187.449 66.063 186.954C65.7948 186.46 65.9556 185.776 66.4155 185.452ZM66.7114 185.933C66.5924 186.372 66.9621 186.873 67.4165 186.889L67.4389 186.811C67.5648 186.381 67.1568 185.888 66.7114 185.933ZM53.4526 181.247C53.7709 180.682 54.6143 180.493 55.146 180.869C55.6773 181.245 55.7737 182.098 55.3393 182.581C55.2238 182.71 55.0785 182.813 54.9184 182.879C54.6337 182.997 54.3013 182.996 54.0171 182.877C53.4156 182.625 53.1344 181.813 53.4526 181.247ZM54.396 181.453C54.1884 181.578 54.0321 181.784 53.9672 182.017C54.1809 182.215 54.4473 182.356 54.7319 182.422L54.7407 182.443C55.1141 182.166 54.8617 181.441 54.396 181.453ZM77.978 180.235C77.8879 179.333 79.0493 178.612 79.768 179.123L79.8462 179.185C80.022 179.335 80.1547 179.54 80.2202 179.767C80.3364 180.17 80.229 180.634 79.9497 180.938C79.3477 181.592 78.0682 181.136 77.978 180.235ZM79.2573 179.855C78.9917 179.782 78.7061 180.084 78.7788 180.36C78.8517 180.635 79.2451 180.742 79.438 180.538C79.6303 180.335 79.5227 179.927 79.2573 179.855ZM62.8618 175.718C63.4612 175.22 64.4171 175.712 64.8706 176.333C65.1717 176.746 65.3882 177.238 65.3569 177.739C65.3254 178.241 65.0023 178.744 64.5005 178.902C63.979 179.065 63.3845 178.822 63.0376 178.417C62.6906 178.013 62.5529 177.48 62.5053 176.96L62.4946 176.791C62.4806 176.393 62.5527 175.975 62.8618 175.718ZM88.3315 176.243C88.5416 175.507 89.5268 175.346 90.187 175.679C91.0335 176.106 91.5232 177.426 90.8315 178.093C90.1438 178.756 88.9655 178.178 88.5151 177.319L88.4536 177.194C88.3181 176.894 88.2421 176.557 88.3315 176.243ZM64.2055 176.961C64.4014 176.655 63.8531 176.308 63.5454 176.516C63.2376 176.723 63.2337 177.167 63.3813 177.497C63.5377 177.846 63.9087 178.164 64.2973 178.077C64.6857 177.99 64.7607 177.324 64.3647 177.278L64.2055 176.961ZM90.1079 176.565C89.7708 176.34 89.251 176.552 89.1479 176.957C89.2743 177.086 89.4004 177.215 89.5268 177.343H89.5278C89.7436 177.443 89.9594 177.543 90.1753 177.643C90.4813 177.373 90.4449 176.79 90.1079 176.565ZM101.116 174.708C101.655 174.017 102.745 174.484 103.315 175.148C103.536 175.405 103.739 175.706 103.769 176.051C103.823 176.67 103.248 177.216 102.658 177.233C102.068 177.249 101.523 176.844 101.198 176.325L101.093 176.135C100.871 175.674 100.811 175.099 101.116 174.708ZM102.044 175.227C101.813 175.449 101.769 175.855 101.946 176.127C102.123 176.399 102.499 176.501 102.779 176.354C102.972 176.151 102.863 175.738 102.598 175.669L102.61 175.635C102.421 175.499 102.233 175.363 102.044 175.227ZM110.082 173.094C110.117 172.527 110.724 171.957 111.362 172.094C111.956 172.222 112.202 172.822 112.35 173.335C112.511 173.89 111.811 174.448 111.157 174.357C110.502 174.265 110.046 173.665 110.082 173.094ZM74.9116 170.36C75.3042 170.309 75.6679 170.583 75.9614 170.872C76.6125 171.514 77.1472 172.629 76.5991 173.376C76.098 174.059 75.0364 173.834 74.4829 173.201L74.3725 173.062C73.848 172.331 73.774 171.153 74.4389 170.585C74.576 170.468 74.7388 170.382 74.9116 170.36ZM111.417 173.162C111.294 173.014 110.996 173.018 110.877 173.168C110.758 173.319 110.863 173.559 111.068 173.605L111.032 173.713C111.346 173.756 111.608 173.382 111.417 173.162ZM75.0844 171.344C74.6938 171.404 74.7023 172.04 74.8921 172.417C75.1059 172.843 75.6284 173.237 75.9536 172.906C76.2872 172.567 75.9486 171.976 75.6176 171.633L75.4995 171.518C75.3764 171.407 75.2371 171.32 75.0844 171.344ZM49.5239 169.548C49.953 169.059 50.8394 169.143 51.4194 169.505C52.0156 169.877 52.4527 170.731 51.9585 171.224C51.7075 171.474 51.3099 171.521 50.9506 171.493C50.4661 171.456 49.971 171.296 49.6401 170.951C49.3093 170.607 49.188 170.052 49.4448 169.653L49.5239 169.548ZM50.1352 170.281C50.3746 170.674 50.9051 170.875 51.3569 170.745C51.42 170.417 51.1308 170.068 50.7856 170.057L50.7505 169.986C50.5455 170.084 50.3401 170.183 50.1352 170.281ZM88.6948 166.923C89.1285 166.868 89.5569 167.068 89.8774 167.327L89.978 167.413C90.4655 167.859 90.7424 168.518 90.4926 169.088C90.226 169.696 89.2192 170.017 88.6704 169.573C88.2033 169.196 87.7898 168.721 87.726 168.17C87.6624 167.619 88.0636 167.003 88.6948 166.923ZM59.3647 166.378C59.891 166.237 60.4537 166.505 60.8374 166.898C61.4059 167.479 61.5903 168.602 60.9057 169.035L60.8286 169.079C60.6462 169.172 60.4368 169.206 60.2319 169.207C59.5239 169.212 58.7967 168.789 58.5542 168.112C58.3117 167.436 58.6801 166.561 59.3647 166.378ZM89.2319 167.774C88.9926 167.654 88.6211 167.712 88.5337 167.94C88.4817 168.075 88.5417 168.222 88.604 168.355C88.7498 168.665 88.9694 169.011 89.351 169.06C89.7329 169.108 90.0378 168.552 89.6723 168.444L89.7036 168.348C89.6024 168.125 89.4711 167.893 89.2319 167.774ZM59.9311 167.222C59.4837 167.112 59.1949 167.833 59.5014 168.183C59.8079 168.532 60.3719 168.497 60.7768 168.275C60.4994 167.929 60.2222 167.583 59.9448 167.237L59.9311 167.222ZM99.9057 162.903C100.425 162.935 100.848 163.35 101.126 163.801C101.609 164.584 101.668 165.844 100.851 166.239C100.266 166.522 99.5541 166.172 99.1362 165.665L98.9995 165.484C98.7002 165.043 98.5381 164.495 98.6469 163.974C98.7716 163.378 99.313 162.865 99.9057 162.903ZM109.117 163.483C109.963 163.6 110.395 164.824 109.812 165.448C109.229 166.073 107.981 165.722 107.807 164.885L107.789 164.747C107.745 164.058 108.422 163.386 109.117 163.483ZM100.517 164.218C100.146 163.938 99.5217 164.218 99.4702 164.688C99.4188 165.157 99.9678 165.573 100.39 165.384C100.812 165.195 100.888 164.498 100.517 164.218ZM109.482 164.665C109.448 164.334 109.006 164.119 108.735 164.311C108.463 164.503 108.541 165.014 108.863 165.1L108.832 165.22C109.155 165.296 109.516 164.997 109.482 164.665ZM70.7622 161.508C71.2483 160.972 72.1259 161.168 72.728 161.56C73.112 161.809 73.4951 162.241 73.3579 162.687C73.2848 162.924 73.0786 163.091 72.8667 163.21L72.6489 163.317C72.1256 163.535 71.5066 163.545 71.0434 163.222C70.514 162.853 70.3257 161.989 70.7622 161.508ZM71.7797 161.991C71.6063 161.792 71.2379 162.024 71.2671 162.29C71.2965 162.556 71.5865 162.724 71.8462 162.709C72.1058 162.694 72.339 162.546 72.559 162.403C72.4264 162.116 72.122 161.923 71.813 161.928L71.7797 161.991ZM83.1333 158.831C83.1663 157.962 84.3195 157.621 85.1782 157.777C85.5798 157.849 85.9887 157.986 86.2729 158.277C86.5572 158.569 86.6778 159.048 86.4633 159.395C86.2781 159.694 85.9104 159.818 85.5678 159.902C85.0663 160.023 84.5319 160.103 84.0395 159.948C83.547 159.794 83.1138 159.345 83.1333 158.831ZM105.723 156.594C105.986 156.602 106.219 156.773 106.434 156.939L107.516 157.769C108.024 158.159 107.761 159.147 107.178 159.382C106.595 159.617 105.935 159.29 105.49 158.818C105.172 158.481 104.913 158.037 104.919 157.555C104.926 157.072 105.281 156.581 105.723 156.594ZM85.853 159.014C85.7328 158.646 85.2375 158.46 84.9038 158.657L84.8471 158.653C84.4932 158.456 83.9791 158.68 83.8833 159.072C84.4778 159.43 85.281 159.406 85.853 159.014ZM106.26 157.751C106.125 157.496 105.713 157.518 105.602 157.787C105.928 158.321 106.454 158.705 107.032 158.827C107.106 158.354 106.756 157.853 106.318 157.804L106.26 157.751ZM95.9018 154.039C96.3046 153.493 97.2664 153.744 97.81 154.179C98.4496 154.691 98.9092 155.606 98.3842 156.216C97.9761 156.69 97.126 156.7 96.5913 156.344C96.0565 155.988 95.8046 155.368 95.7544 154.768L95.7465 154.577C95.749 154.386 95.7863 154.196 95.9018 154.039ZM97.4565 155.027C97.5641 154.737 97.0692 154.494 96.8022 154.681C96.5352 154.867 96.557 155.263 96.7631 155.505C96.9692 155.747 97.2999 155.869 97.6196 155.965C97.7746 155.691 97.7796 155.351 97.6323 155.073L97.4565 155.027Z" fill="#00160A"/>
<path d="M328.253 279.882C328.842 279.715 329.121 280.556 329.092 281.144C328.316 296.547 327.54 311.95 326.764 327.354C326.701 328.611 326.584 329.99 325.663 330.889C324.741 331.788 322.74 331.628 322.498 330.391C322.078 328.245 322.212 326.041 322.347 323.862C323.213 309.968 324.079 296.073 324.945 282.179C324.98 281.629 325.409 280.867 325.887 281.174C324.81 297.327 323.829 313.486 322.943 329.65C322.894 330.54 324.344 330.863 325.034 330.265C325.724 329.666 325.816 328.677 325.86 327.787C326.658 311.819 327.455 295.85 328.253 279.882ZM276.597 268.465C276.617 267.889 276.933 267.091 277.494 267.273L275.662 322.763C275.622 323.965 273.773 324.382 272.808 323.631C271.844 322.88 271.599 321.569 271.469 320.373C270.775 313.939 271.518 307.452 272.038 301.002C272.932 289.895 273.16 278.737 272.717 267.605C272.704 267.281 273.218 267.165 273.467 267.381C273.715 267.597 273.752 267.956 273.771 268.279C274.658 283.231 272.871 298.194 272.119 313.152C271.976 315.997 271.876 318.892 272.619 321.646C272.765 322.189 272.979 322.771 273.472 323.061C273.966 323.351 274.783 323.105 274.802 322.544C275.4 304.518 275.999 286.491 276.597 268.465ZM316.414 180.101C312.54 187.465 312.053 196.085 311.898 204.399C311.785 210.495 311.806 216.594 311.962 222.688C312.075 227.126 312.138 231.963 309.428 235.483C307.311 238.232 303.914 239.61 300.727 240.994C294.147 243.851 287.796 247.232 281.754 251.093C278.384 253.246 275.034 255.624 272.791 258.928C290.304 263.197 307.584 268.414 324.531 274.548C327.93 275.778 331.524 273.573 334.464 271.474C341.439 266.492 348.539 261.389 353.594 254.477C355.342 252.087 357.449 249.179 360.403 249.445C360.097 269.575 359.79 289.704 359.484 309.833C361.223 309.11 361.542 306.834 361.601 304.957C362.4 279.714 363.198 254.471 363.997 229.228C364.322 218.944 364.815 208.095 370.374 199.428C365.646 208.952 365.202 219.948 364.848 230.569C364.01 255.756 363.172 280.944 362.333 306.131C362.289 307.44 362.181 308.898 361.218 309.788C360.254 310.679 358.201 310.213 358.27 308.904C359.306 289.393 359.616 269.844 359.201 250.31C356.519 251.3 355.243 254.25 353.916 256.775C349.34 265.482 341.249 271.777 332.987 277.14C331.046 278.4 329.004 279.653 326.71 279.973C324.4 280.294 322.079 279.635 319.841 278.982C304.094 274.395 288.347 269.808 272.6 265.22C272.224 263.734 272.119 261.688 273.56 261.156C272.446 262.59 274.631 264.265 276.376 264.775C290.931 269.037 305.487 273.299 320.043 277.561C322.537 278.291 325.14 279.029 327.702 278.586C329.76 278.23 331.609 277.138 333.355 275.994C340.653 271.215 347.102 265.151 352.315 258.167L336.764 271.366C335.273 272.632 333.753 273.916 331.957 274.692C327.332 276.691 322.032 274.959 317.272 273.307C302.906 268.321 288.26 264.133 273.428 260.77L273.294 260.734C271.933 260.318 271.425 258.446 271.984 257.111C272.562 255.733 273.873 254.824 275.126 254.006C284.356 247.977 294.058 242.667 304.115 238.139C305.397 237.561 306.709 236.983 307.757 236.047C310.481 233.615 310.745 229.526 310.815 225.881C311.003 216.149 311.19 206.417 311.378 196.686C311.493 190.73 311.932 184.039 316.414 180.101ZM369.143 188.33C369.519 187.841 370.116 187.363 370.653 187.63L370.756 187.695C370.853 187.771 370.928 187.878 370.944 188.003C370.959 188.121 370.92 188.239 370.882 188.351C370.813 188.552 370.744 188.754 370.675 188.955C370.535 189.363 370.387 189.785 370.095 190.089C369.804 190.392 369.326 190.538 368.982 190.305C368.389 189.901 368.698 188.911 369.143 188.33ZM370.104 188.34C369.513 188.516 369.159 189.304 369.401 189.906C369.575 189.673 369.749 189.439 369.923 189.205L369.904 189.182C370.121 188.979 370.204 188.628 370.104 188.34ZM362.501 183.552C362.664 183.576 362.837 183.654 362.897 183.808L362.917 183.885C362.927 183.963 362.914 184.046 362.898 184.125C362.806 184.594 362.652 185.051 362.442 185.481C362.178 186.023 361.61 186.592 361.057 186.349C360.481 186.094 360.56 185.243 360.851 184.686C361.181 184.055 361.795 183.448 362.501 183.552ZM361.775 184.53C361.571 184.595 361.465 184.866 361.572 185.051C361.723 185.072 361.895 185.008 361.956 184.868C362.016 184.729 361.906 184.533 361.755 184.547L361.775 184.53ZM373.819 179.534C373.911 179.521 374.004 179.523 374.088 179.563C374.269 179.652 374.346 179.89 374.373 180.107C374.492 181.09 373.868 182.116 373.002 182.361C372.633 182.466 372.117 182.321 372.096 181.899C372.045 180.825 372.778 179.77 373.728 179.552L373.819 179.534ZM373.803 180.254C373.227 180.396 372.77 180.997 372.742 181.65C373.108 181.585 373.441 181.319 373.613 180.954L373.618 180.944C373.79 180.777 373.864 180.498 373.803 180.254ZM348.899 177.516C349.199 177.286 349.64 177.106 349.929 177.35L349.991 177.412C350.048 177.479 350.09 177.56 350.126 177.641C350.284 177.998 350.341 178.401 350.288 178.789C350.172 179.633 349.225 180.413 348.504 179.973C348.089 179.719 347.934 179.153 348.053 178.678C348.171 178.202 348.513 177.812 348.899 177.516ZM348.852 178.652L348.857 178.651C348.601 178.813 348.641 179.278 348.922 179.392C349.455 179.221 349.749 178.523 349.502 178.016C349.285 178.228 349.069 178.44 348.852 178.652ZM365.063 174.389C365.221 174.361 365.394 174.348 365.535 174.424C365.826 174.58 365.818 174.988 365.743 175.305C365.621 175.817 365.427 176.313 365.17 176.775L365.093 176.903C364.678 177.539 363.859 178.095 363.272 177.642C362.94 177.385 362.878 176.911 362.945 176.502C363.115 175.464 364.005 174.576 365.063 174.389ZM336.808 174.941C337.25 174.337 338.193 174.18 338.804 174.61L338.931 174.712C339.053 174.82 339.157 174.948 339.236 175.09C339.517 175.592 339.461 176.263 339.101 176.712C338.633 177.296 337.684 177.409 337.093 176.952C336.501 176.495 336.367 175.546 336.808 174.941ZM364.819 175.205C364.063 175.492 363.594 176.361 363.778 177.133C364.135 176.697 364.492 176.26 364.849 175.824L364.928 175.722C365.001 175.615 365.056 175.495 365.017 175.377C364.989 175.291 364.91 175.222 364.819 175.205ZM338.597 175.407C338.326 175.066 337.689 175.163 337.531 175.569C337.373 175.976 337.775 176.482 338.205 176.416C338.635 176.35 338.869 175.748 338.597 175.407ZM324.57 172.769C324.873 171.964 326.149 171.82 326.617 172.538C326.911 172.989 326.845 173.648 326.469 174.03L326.352 174.133C326.229 174.228 326.088 174.298 325.938 174.337C325.12 174.55 324.267 173.573 324.57 172.769ZM325.806 172.798C325.538 172.748 325.255 172.987 325.252 173.266C325.249 173.544 325.527 173.789 325.797 173.745C326.085 173.488 326.128 172.991 325.887 172.687L325.806 172.798ZM315.594 170.083C315.939 169.67 316.64 169.671 316.922 170.139L316.966 170.223C317.163 170.651 316.998 171.2 316.767 171.623C316.683 171.777 316.585 171.933 316.439 172.015C316.131 172.188 315.748 171.954 315.552 171.641C315.262 171.179 315.248 170.496 315.594 170.083ZM352.757 169.244C353.168 169.081 353.629 169.48 353.722 169.957C353.816 170.434 353.632 170.927 353.383 171.327C353.14 171.715 352.784 172.075 352.361 172.073L352.249 172.063C351.702 171.969 351.344 171.214 351.485 170.596C351.636 169.936 352.182 169.472 352.757 169.244ZM377.717 168.732C378.245 168.428 379.07 168.865 378.965 169.536C378.847 170.289 378.58 171.106 377.976 171.42C377.373 171.734 376.481 171.076 376.72 170.363C376.934 169.728 377.189 169.037 377.717 168.732ZM353.101 170.125C352.542 170.019 351.982 170.668 352.097 171.289C352.213 171.379 352.362 171.413 352.5 171.379C352.609 171.093 352.783 170.839 353 170.645L353.033 170.641C353.056 170.469 353.078 170.297 353.101 170.125ZM316.33 170.651C316.218 170.568 316.038 170.684 316.051 170.832L315.964 170.828C315.963 170.988 316.137 171.114 316.27 171.05C316.403 170.985 316.437 170.759 316.33 170.651ZM378.108 169.367C377.754 169.644 377.525 170.123 377.511 170.616C377.79 170.683 378.089 170.457 378.172 170.148L378.192 170.019C378.399 169.874 378.343 169.436 378.108 169.367ZM368.112 165.253C368.504 165.1 369.023 165.246 369.178 165.655C369.274 165.91 369.214 166.198 369.143 166.462C369.015 166.944 368.84 167.439 368.481 167.767C368.122 168.094 367.529 168.186 367.184 167.842L367.112 167.76C366.786 167.331 366.956 166.646 367.23 166.153C367.441 165.774 367.72 165.406 368.112 165.253ZM338.759 166.176C339.128 165.839 339.776 165.617 340.217 165.888C340.612 166.13 340.613 166.622 340.486 167.016C340.322 167.527 339.878 168.072 339.24 168.06C338.753 168.05 338.346 167.681 338.279 167.28C338.212 166.88 338.431 166.475 338.759 166.176ZM368.49 165.907C367.9 166.082 367.497 166.778 367.619 167.411C368.043 167.193 368.398 166.827 368.612 166.384L368.665 166.249C368.677 166.203 368.683 166.156 368.676 166.108C368.66 166.011 368.582 165.927 368.49 165.907ZM339.808 166.86C340.003 166.708 339.756 166.379 339.506 166.456C339.132 166.646 339.014 167.11 339.262 167.409C339.507 167.271 339.696 167.065 339.792 166.833L339.808 166.86ZM328.476 161.19C328.821 161.257 329.069 161.645 329.092 162.025C329.116 162.431 328.945 162.821 328.752 163.172C328.506 163.617 327.805 163.545 327.534 163.117C327.263 162.689 327.362 162.089 327.64 161.666C327.819 161.395 328.096 161.162 328.406 161.182L328.476 161.19ZM328.418 161.853C328.219 161.985 328.066 162.193 327.992 162.43L327.984 162.437C328 162.619 328.015 162.801 328.031 162.983C328.42 162.808 328.609 162.253 328.418 161.853ZM318.835 161.106C319.058 160.588 319.84 160.435 320.241 160.83C320.338 160.925 320.411 161.044 320.455 161.173L320.481 161.274C320.575 161.785 320.122 162.348 319.596 162.326C319.035 162.303 318.612 161.624 318.835 161.106ZM356.881 159.464C357.435 159.513 357.809 160.087 357.756 160.605C357.702 161.121 357.328 161.564 356.899 161.896L356.747 162.005C356.377 162.252 355.919 162.421 355.505 162.27C355.018 162.092 354.805 161.515 354.928 161.041C355.05 160.567 355.426 160.185 355.83 159.875C356.131 159.644 356.492 159.429 356.881 159.464ZM319.726 161.152C319.556 161.205 319.473 161.438 319.569 161.588L319.566 161.578C319.813 161.628 319.978 161.158 319.726 161.152ZM357.258 160.479C357.066 160.199 356.595 160.205 356.31 160.403C356.026 160.602 355.881 160.926 355.749 161.234C355.887 161.326 356.026 161.419 356.164 161.511L356.186 161.476C356.543 161.143 356.9 160.811 357.258 160.479ZM343.373 156.284C343.961 155.74 345.114 156.08 345.146 156.917C345.166 157.416 344.818 157.837 344.468 158.162C344.126 158.479 343.746 158.771 343.307 158.882C343.171 158.916 343.067 158.751 343.017 158.609C342.743 157.826 342.785 156.829 343.373 156.284ZM344.323 156.761C343.797 156.722 343.428 157.431 343.584 157.976C344.052 157.83 344.394 157.307 344.367 156.781L344.323 156.761ZM331.077 152.16C331.394 151.975 331.856 151.939 332.145 152.155L332.229 152.23C332.306 152.309 332.363 152.404 332.408 152.501C332.68 153.083 332.513 153.846 331.89 154.175C331.268 154.503 330.266 154.151 330.241 153.524C330.233 153.324 330.316 153.13 330.409 152.946C330.562 152.645 330.76 152.345 331.077 152.16ZM331.661 152.741C331.146 152.876 330.906 153.493 331.223 153.866C331.477 153.66 331.656 153.387 331.729 153.094L331.731 153.095C331.922 153.042 331.861 152.737 331.661 152.741Z" fill="#00160A"/>
<path fill-rule="evenodd" clip-rule="evenodd" d="M374.15 160.201C377.209 161.246 380.394 162.37 382.631 164.717C385.433 167.659 386.239 172.088 385.693 176.128C385.148 180.168 383.42 183.935 381.713 187.632C379.784 191.81 377.855 195.989 375.926 200.167C369.567 197.086 364.097 192.435 358.016 188.83C344.746 180.966 328.895 178.344 313.516 179.069C312.222 179.13 310.541 178.946 310.222 177.682C310.127 177.305 310.19 176.909 310.256 176.526C311.741 167.888 314.631 159.496 318.775 151.788C319.39 150.645 320.041 149.504 320.935 148.567C322.999 146.404 326.152 145.582 329.128 145.714C332.104 145.845 334.972 146.818 337.793 147.782C349.912 151.922 362.031 156.061 374.15 160.201ZM318.863 153.526C315.251 160.798 312.231 168.505 311.398 176.594C311.363 176.943 311.335 177.315 311.497 177.625C311.824 178.253 312.688 178.284 313.39 178.238C329.657 177.166 346.469 180.367 360.27 189.107C364.987 192.095 369.32 195.695 374.212 198.382C374.428 198.5 374.673 198.62 374.909 198.551C375.147 198.482 375.291 198.245 375.411 198.026C378.383 192.622 381.016 187.028 383.29 181.289C384.095 179.254 384.863 177.171 385.063 174.99C385.565 169.499 381.953 163.895 376.769 162.126C363.482 157.59 350.195 153.054 336.908 148.518C334.48 147.689 332.018 146.853 329.461 146.667C326.903 146.482 324.195 147.018 322.223 148.669C320.705 149.939 319.746 151.748 318.863 153.526Z" fill="#00160A"/>
<path d="M178.312 235.714C179.825 236.582 180.508 238.4 181.011 240.092C183.911 249.853 184.588 260.134 185.246 270.31C185.59 275.623 185.934 280.936 186.277 286.249C186.466 289.163 186.306 292.748 183.758 294.09C179.712 296.219 176.494 299.929 174.919 304.28C173.066 309.399 173.484 315.027 173.388 320.481C173.291 325.935 172.472 331.797 168.797 335.766C168.191 336.42 167.467 337.035 166.595 337.172C165.722 337.309 164.703 336.788 164.564 335.9L164.551 335.786C164.461 334.62 165.838 333.858 167.001 333.623C168.201 333.38 169.658 333.132 170.109 331.974C173.917 322.205 169.841 310.201 175.107 301.16C176.477 298.808 178.403 296.837 180.47 295.091C182.276 293.564 184.321 292.024 184.966 289.725C185.294 288.555 185.215 287.31 185.133 286.096C184.601 278.263 184.069 270.43 183.537 262.597C183.333 259.597 183.13 256.594 182.725 253.615C181.897 247.512 180.233 241.556 178.312 235.714ZM168.505 334.575C168.055 334.231 167.415 334.243 166.898 334.469C166.382 334.694 165.965 335.103 165.58 335.52C165.487 335.621 165.391 335.732 165.369 335.868C165.327 336.127 165.585 336.356 165.843 336.375C166.1 336.393 166.343 336.264 166.564 336.13C167.273 335.699 167.927 335.175 168.505 334.575ZM247.986 234.59C247.332 238.864 245.666 242.898 244.254 246.979C239.974 259.354 237.97 272.536 238.379 285.643C238.453 288.025 238.669 290.575 240.146 292.427C241.271 293.835 242.976 294.637 244.238 295.92C246.785 298.51 247.108 302.524 247.282 306.179C247.455 309.806 247.628 313.434 247.801 317.061C247.928 319.742 248.064 322.467 248.935 325.002C249.807 327.536 251.533 329.9 253.996 330.879C253.952 329.431 256.096 328.551 257.058 329.622C258.019 330.693 256.954 332.776 255.537 332.596C251.618 332.097 248.664 328.517 247.457 324.702C246.25 320.887 246.397 316.791 246.225 312.788C246.089 309.639 245.748 306.499 245.205 303.395C244.793 301.042 244.229 298.626 242.792 296.731C241.244 294.691 238.787 293.398 237.623 291.11C236.691 289.277 236.748 287.109 236.827 285.048C237.154 276.513 237.489 267.916 239.415 259.601C240.234 256.063 241.337 252.6 242.438 249.141C243.845 244.723 245.251 240.304 246.658 235.886C246.867 235.229 247.327 234.42 247.986 234.59ZM256.039 330.19C255.743 329.824 255.051 329.987 254.932 330.445C254.812 330.903 255.31 331.39 255.762 331.267C256.213 331.144 256.41 330.494 256.118 330.124L256.039 330.19ZM216.153 297.634C216.877 298.21 216.975 299.265 217.021 300.197C217.44 308.575 218.421 316.923 219.954 325.166C220.006 324.001 221.774 323.554 222.557 324.407C223.339 325.261 223.081 326.742 222.247 327.544C222.034 327.749 221.782 327.924 221.496 327.99C220.579 328.201 219.819 327.261 219.432 326.391C218.575 324.47 218.293 322.344 218.02 320.254C217.041 312.746 216.059 305.206 216.153 297.634ZM221.946 324.988C221.841 324.57 221.186 324.804 220.972 325.177C220.741 325.577 220.641 326.054 220.691 326.515C220.841 326.544 220.99 326.574 221.14 326.602C221.365 326.219 221.591 325.835 221.816 325.451C221.899 325.31 221.986 325.148 221.946 324.988ZM219.891 236.334C220.473 236.062 220.796 237.038 220.724 237.687C218.979 253.293 217.83 268.971 217.412 284.672C217.403 285.016 216.891 285.128 216.634 284.905C216.376 284.682 216.321 284.305 216.289 283.962C216.057 281.442 216.152 278.904 216.266 276.376C216.854 263.262 217.933 250.171 219.499 237.141C219.537 236.829 219.61 236.465 219.891 236.334ZM195.377 208.193C180.604 210.495 165.258 213.021 152.98 221.665C152.175 222.232 151.297 223.017 151.407 224.005C178.341 231.1 206.551 231.41 234.351 230.155C239.116 229.94 243.886 229.679 248.608 229.007C253.603 228.295 258.534 227.123 263.32 225.509C264.837 224.997 266.426 224.379 267.391 223.086C268.355 221.793 268.338 219.623 266.956 218.807C252.559 210.314 235.038 209.961 218.382 209.837C235.763 207.659 253.752 210.743 269.461 218.594C271.312 219.519 273.449 221.239 272.781 223.22C272.53 223.963 271.918 224.515 271.309 225.001C264.191 230.687 254.73 232.132 245.724 233.153C242.224 233.55 238.72 233.913 235.211 234.207C207.364 236.539 179.163 234.492 151.928 228.161C150.324 227.788 148.457 227.153 148.012 225.548C147.47 223.596 149.428 221.928 151.162 220.917C164.578 213.096 179.909 208.684 195.377 208.193ZM267.559 218.774C268.418 219.626 269.348 220.678 269.172 221.883C269.088 222.454 268.759 222.958 268.39 223.398C266.45 225.713 263.402 226.687 260.494 227.416C246.113 231.021 231.149 231.274 216.337 231.508C211.315 231.587 206.292 231.667 201.27 231.553C185.606 231.196 170.033 228.955 154.645 225.96C153.346 225.707 151.922 225.369 151.146 224.282C150.564 223.465 150.747 222.131 151.435 221.551C151.71 221.437 151.991 221.343 152.273 221.267C151.946 221.25 151.663 221.359 151.435 221.551C150.441 221.962 149.547 222.633 149.118 223.613C148.571 224.864 149.137 226.632 150.451 226.946C178.613 233.677 207.841 235.799 236.661 233.202C241.418 232.773 246.162 232.217 250.9 231.61C253.34 231.298 255.786 230.97 258.165 230.338C262.659 229.142 266.8 226.89 270.878 224.632C272.128 223.94 272.127 221.977 271.237 220.849C270.348 219.722 268.914 219.221 267.559 218.774ZM214.652 138.393C215.79 137.86 217.025 138.886 217.798 139.871C218.571 140.856 219.556 142.017 220.798 141.812C222.616 141.512 224.535 142.954 224.734 144.769C226.03 144.368 227.422 144.277 228.76 144.505C226.972 145.204 225.632 146.68 224.351 148.099C223.071 149.519 221.709 150.983 219.906 151.641C218.103 152.3 215.734 151.855 214.846 150.167C207.913 156.916 204.937 167.399 207.302 176.739C207.901 179.104 208.821 181.451 208.717 183.888C208.679 184.776 208.507 185.696 208.804 186.536C209.1 187.376 210.116 188.055 210.897 187.616C212.285 186.837 214.06 188.259 214.305 189.82C214.549 191.382 213.835 192.91 213.301 194.399C211.048 200.671 211.865 207.59 213.149 214.124C213.42 215.499 213.702 216.968 213.167 218.265C212.32 220.318 209.806 221.107 207.575 221.3C204.624 221.554 201.621 221.201 198.813 220.267C197.943 219.978 197.028 219.582 196.572 218.793C196.263 218.258 196.212 217.617 196.191 217.001C196.115 214.703 196.365 212.395 196.931 210.166C197.47 208.042 198.292 205.992 198.72 203.844C199.576 199.539 198.802 195.099 198.028 190.779C197.694 188.916 199.875 187.535 201.78 187.395C203.685 187.256 205.681 187.761 207.469 187.093C208.938 179.191 205.064 170.581 198.15 166.381C196.96 165.657 195.454 165.052 194.211 165.682C190.794 167.41 186.331 166.839 183.47 164.307C183.171 164.042 182.867 163.705 182.895 163.309C182.934 162.778 183.52 162.486 184.023 162.299C185.837 161.624 187.693 160.94 189.63 160.882C191.567 160.823 193.635 161.502 194.753 163.07C195.968 164.775 198.032 165.621 199.837 166.697C201.967 167.968 203.841 169.66 205.315 171.643C204.926 164.26 207.622 156.764 212.636 151.288C213.529 150.312 214.571 149.134 214.242 147.857C213.819 146.217 214.765 144.581 215.381 143.002C215.997 141.422 216.115 139.269 214.652 138.393ZM153.662 220.32C153.439 220.129 153.041 220.234 152.937 220.511L152.822 220.39C152.682 220.577 152.95 220.847 153.176 220.796C153.402 220.744 153.544 220.522 153.662 220.32ZM199.808 204.578C197.938 208.325 196.978 212.514 197.032 216.693C197.041 217.339 197.091 218.033 197.501 218.535C197.808 218.911 198.272 219.122 198.726 219.301C201.945 220.566 205.534 220.894 208.933 220.233C210.315 219.964 211.832 219.392 212.362 218.098C212.676 217.333 212.571 216.47 212.461 215.651C212.044 212.545 211.627 209.439 211.211 206.333C211.164 205.984 211.107 205.612 210.869 205.35C210.569 205.022 210.076 204.966 209.63 204.937C208.834 204.886 208.016 204.855 207.257 205.098C206.498 205.34 205.799 205.915 205.63 206.687C205.171 208.787 204.279 210.793 203.023 212.544C202.558 212.362 202.686 211.681 202.897 211.231C203.498 209.955 204.099 208.678 204.7 207.401C204.813 207.162 204.928 206.888 204.832 206.641C204.73 206.38 204.435 206.256 204.169 206.16C202.715 205.633 201.261 205.105 199.808 204.578ZM199.874 189.592C199.585 189.556 199.235 189.545 199.068 189.781C198.967 189.925 198.971 190.115 198.981 190.291C199.253 194.952 200.479 199.63 199.699 204.234C201.172 203.983 202.749 204.413 203.885 205.375C204.218 205.657 204.766 205.51 205.054 205.182C205.341 204.854 205.436 204.406 205.52 203.979C206.283 200.137 207.047 196.296 207.809 192.454C207.939 191.804 207.997 190.979 207.428 190.631C207.226 190.507 206.982 190.475 206.747 190.446C204.456 190.161 202.165 189.876 199.874 189.592ZM213.69 189.373C212.245 190.272 210.464 190.627 208.78 190.35C208.415 194.436 207.71 198.492 206.674 202.463C206.467 203.255 206.246 204.086 206.441 204.882C207.53 204.087 209.016 203.858 210.296 204.289C210.57 204.381 210.872 204.176 210.991 203.914C211.11 203.652 211.095 203.352 211.085 203.065C210.919 198.408 212.716 193.933 213.69 189.373ZM210.051 188.607C209.683 188.611 209.287 188.622 208.994 188.842C208.701 189.061 208.61 189.572 208.917 189.772C210.112 189.709 211.301 189.504 212.447 189.163C212.68 189.094 212.814 188.803 212.717 188.583C211.828 188.591 210.939 188.599 210.051 188.607ZM206.772 188.477C204.835 188.329 202.859 188.183 200.968 188.625C203.106 189.169 205.299 189.503 207.504 189.621C207.863 189.64 208 189.09 207.765 188.82C207.529 188.551 207.131 188.505 206.772 188.477ZM189.347 161.675C187.315 161.775 185.402 162.615 183.579 163.508C184.971 164.523 186.538 165.303 188.19 165.807C188.713 165.966 189.896 166.435 192.449 165.381L194.432 163.846C193.41 162.65 191.251 161.58 189.347 161.675ZM216.723 139.761C216.404 139.904 216.515 140.368 216.609 140.702C217.099 142.442 215.643 144.073 215.135 145.807C214.772 147.042 214.922 148.442 215.649 149.508C216.376 150.573 217.701 151.245 218.989 151.087C220.959 150.844 222.207 148.965 223.564 147.53C224.3 146.752 225.134 146.067 226.042 145.495C222.654 145.121 219.137 146.054 216.392 148.056C216.073 147.496 216.598 146.816 217.169 146.511C217.739 146.205 218.431 146.022 218.786 145.484C219.054 145.078 219.061 144.557 219.007 144.074C218.82 142.423 217.988 140.851 216.723 139.761ZM220.501 142.561C220.061 142.595 219.509 143.025 219.806 143.348C220.05 143.614 219.885 144.031 219.751 144.366C219.616 144.701 219.591 145.193 219.934 145.311C220.064 145.356 220.207 145.326 220.341 145.295C221.269 145.081 222.197 144.866 223.125 144.652C223.294 144.613 223.478 144.565 223.58 144.427C223.765 144.176 223.566 143.825 223.345 143.605C222.608 142.874 221.541 142.483 220.501 142.561Z" fill="#00160A"/>
<path d="M223.125 297.398C219.64 297.162 216.155 296.925 212.671 296.689C207.865 296.364 203.045 296.037 198.318 295.117C195.019 294.475 191.776 293.546 188.641 292.344C188.3 292.213 187.944 292.068 187.715 291.786C187.278 291.247 187.496 290.397 188.003 289.921C188.51 289.445 189.217 289.252 189.896 289.088C204.259 285.626 219.338 287.855 233.885 290.459C234.986 290.656 236.12 290.868 237.057 291.475C237.993 292.081 238.69 293.188 238.464 294.272C238.199 295.544 236.848 296.269 235.599 296.67C231.611 297.95 227.308 297.681 223.125 297.398" fill="#F18F01"/>
<path fill-rule="evenodd" clip-rule="evenodd" d="M223.125 297.398C219.64 297.162 216.155 296.925 212.671 296.689C207.865 296.364 203.045 296.037 198.318 295.117C195.019 294.475 191.776 293.546 188.641 292.344C188.3 292.213 187.944 292.068 187.715 291.786C187.278 291.247 187.496 290.397 188.003 289.921C188.51 289.445 189.217 289.252 189.896 289.088C204.259 285.626 219.338 287.855 233.885 290.459C234.986 290.656 236.12 290.868 237.057 291.475C237.993 292.081 238.69 293.188 238.464 294.272C238.199 295.544 236.848 296.269 235.599 296.67C231.611 297.95 227.308 297.681 223.125 297.398M188.317 291.359C199.619 295.222 211.772 295.712 223.722 296.165C226.655 296.277 229.591 296.388 232.525 296.314C233.684 296.285 234.943 296.189 235.805 295.422C236.666 294.655 236.716 292.979 235.642 292.548C229.403 290.042 222.547 289.579 215.826 289.157C207.826 288.656 199.736 288.176 191.84 289.543C190.489 289.777 188.987 290.176 188.317 291.359Z" fill="#00160A"/>
<path fill-rule="evenodd" clip-rule="evenodd" d="M360.424 243.745C361.113 239.938 361.48 236.071 361.52 232.201C361.581 226.259 360.873 220.316 361.208 214.384C361.543 208.451 363.052 202.337 366.933 197.865C366.578 200.327 365.811 202.728 364.675 204.937C362.44 209.283 362.363 214.39 362.336 219.285C362.295 226.817 362.254 234.349 362.212 241.881C362.2 244.178 360.626 246.28 358.6 247.331C356.574 248.383 354.176 248.506 351.927 248.139C350.139 247.847 348.413 247.265 346.696 246.686C336.519 243.25 326.343 239.814 316.167 236.379C315.349 236.102 314.384 235.646 314.325 234.778C313.429 221.623 313.379 208.411 314.175 195.25C314.517 189.586 315.274 183.372 319.413 179.527C318.157 182.193 316.895 184.877 316.123 187.724C315.108 191.468 314.969 195.389 314.835 199.268C314.43 211.007 314.028 222.801 315.403 234.465C315.469 235.018 315.663 235.706 316.211 235.778C320.742 236.379 325.083 237.95 329.383 239.511C335.343 241.674 341.303 243.837 347.263 246.001C348.712 246.527 350.182 247.057 351.717 247.189C353.914 247.377 356.089 246.739 358.203 246.106C358.831 245.919 359.5 245.704 359.908 245.186C360.225 244.781 360.332 244.253 360.424 243.745Z" fill="#00160A"/>
<path fill-rule="evenodd" clip-rule="evenodd" d="M350.88 250.047C341.848 249.466 333.485 245.452 324.84 242.832C321.801 241.911 318.71 241.159 315.622 240.408C313.615 239.92 311.607 239.432 309.6 238.944C313.525 237.939 317.643 239.206 321.493 240.462C331.288 243.657 341.084 246.852 350.88 250.047Z" fill="#00160A"/>
<path fill-rule="evenodd" clip-rule="evenodd" d="M191.399 163.177C191.696 163.186 191.962 163.228 192.388 163.33L194.846 163.973C194.978 164.007 195.101 164.039 195.208 164.065C195.361 164.104 195.455 164.26 195.416 164.413C195.377 164.567 195.222 164.66 195.068 164.621L194.183 164.394L192.511 163.952L192.386 163.92C191.916 163.802 191.661 163.759 191.381 163.75L191.309 163.751C190.789 163.769 188.336 164.012 186.755 164.115C186.597 164.125 186.46 164.005 186.45 163.847C186.44 163.689 186.559 163.553 186.717 163.543L187.316 163.5C188.89 163.382 190.955 163.181 191.364 163.177L191.399 163.177Z" fill="#00160A"/>
<path fill-rule="evenodd" clip-rule="evenodd" d="M191.064 162.159C191.182 162.053 191.363 162.063 191.469 162.181L192.395 163.213C192.501 163.331 192.491 163.512 192.373 163.618C192.255 163.724 192.074 163.714 191.968 163.596L191.042 162.564C190.936 162.446 190.946 162.264 191.064 162.159Z" fill="#00160A"/>
<path fill-rule="evenodd" clip-rule="evenodd" d="M192.323 163.205C192.451 163.298 192.48 163.477 192.387 163.606L191.525 164.795C191.432 164.923 191.253 164.952 191.124 164.859C190.996 164.766 190.968 164.587 191.06 164.459L191.923 163.269C192.016 163.141 192.195 163.112 192.323 163.205Z" fill="#00160A"/>
<path fill-rule="evenodd" clip-rule="evenodd" d="M187.785 162.564C187.859 162.424 188.033 162.371 188.173 162.445L189.652 163.226C189.792 163.3 189.845 163.473 189.771 163.613C189.697 163.753 189.524 163.807 189.384 163.733L187.905 162.952C187.765 162.878 187.711 162.704 187.785 162.564Z" fill="#00160A"/>
<path fill-rule="evenodd" clip-rule="evenodd" d="M189.646 163.329C189.748 163.451 189.732 163.631 189.61 163.733L188.086 165.011C187.965 165.113 187.784 165.097 187.682 164.976C187.581 164.855 187.596 164.674 187.718 164.572L189.242 163.294C189.363 163.192 189.544 163.208 189.646 163.329Z" fill="#00160A"/>
<path fill-rule="evenodd" clip-rule="evenodd" d="M203.024 212.544C202.558 212.363 202.687 211.68 202.898 211.231C203.499 209.954 204.1 208.678 204.701 207.401C204.814 207.162 204.929 206.888 204.832 206.641C204.731 206.38 204.436 206.256 204.17 206.16C202.716 205.632 201.262 205.105 199.808 204.578C197.938 208.325 196.979 212.514 197.033 216.694C197.042 217.339 197.092 218.033 197.501 218.535C197.808 218.912 198.273 219.122 198.728 219.3C201.947 220.566 205.535 220.894 208.933 220.233C210.316 219.964 211.833 219.392 212.363 218.098C212.676 217.333 212.572 216.47 212.462 215.651C212.045 212.545 211.629 209.439 211.212 206.333C211.165 205.984 211.108 205.612 210.87 205.351C210.57 205.022 210.077 204.966 209.63 204.938C208.834 204.886 208.017 204.855 207.257 205.098C206.498 205.341 205.799 205.915 205.63 206.688C205.172 208.787 204.279 210.793 203.024 212.544Z" fill="#E7EAEE"/>
<path fill-rule="evenodd" clip-rule="evenodd" d="M199.699 204.234C201.172 203.983 202.748 204.413 203.884 205.375C204.218 205.657 204.766 205.51 205.054 205.182C205.341 204.854 205.436 204.406 205.521 203.98C206.283 200.138 207.046 196.296 207.809 192.454C207.938 191.803 207.997 190.979 207.428 190.63C207.226 190.507 206.983 190.475 206.747 190.446C204.456 190.161 202.165 189.876 199.874 189.591C199.586 189.555 199.236 189.545 199.069 189.781C198.967 189.925 198.971 190.115 198.982 190.291C199.253 194.952 200.479 199.63 199.699 204.234Z" fill="white"/>
<path fill-rule="evenodd" clip-rule="evenodd" d="M213.69 189.373C212.245 190.272 210.464 190.627 208.78 190.35C208.415 194.436 207.71 198.492 206.673 202.463C206.467 203.256 206.245 204.086 206.441 204.882C207.529 204.087 209.016 203.859 210.296 204.289C210.57 204.382 210.872 204.176 210.991 203.914C211.11 203.652 211.094 203.353 211.084 203.066C210.918 198.408 212.716 193.933 213.69 189.373Z" fill="white"/>
<path fill-rule="evenodd" clip-rule="evenodd" d="M200.969 188.625C203.107 189.169 205.3 189.503 207.505 189.621C207.864 189.64 208.001 189.09 207.765 188.821C207.53 188.551 207.132 188.505 206.773 188.477C204.835 188.329 202.86 188.183 200.969 188.625Z" fill="white"/>
<path fill-rule="evenodd" clip-rule="evenodd" d="M208.918 189.772C210.113 189.709 211.301 189.504 212.448 189.163C212.68 189.093 212.815 188.803 212.718 188.583C211.829 188.591 210.94 188.599 210.052 188.607C209.684 188.61 209.288 188.622 208.994 188.842C208.701 189.061 208.611 189.571 208.918 189.772" fill="white"/>
<path fill-rule="evenodd" clip-rule="evenodd" d="M215.135 145.807C214.772 147.042 214.923 148.442 215.65 149.508C216.377 150.573 217.701 151.246 218.99 151.087C220.96 150.844 222.207 148.965 223.564 147.53C224.3 146.752 225.134 146.067 226.042 145.495C222.654 145.121 219.137 146.054 216.391 148.056C216.073 147.496 216.598 146.816 217.169 146.51C217.739 146.205 218.431 146.023 218.786 145.485C219.054 145.078 219.062 144.557 219.007 144.074C218.821 142.423 217.988 140.851 216.723 139.76C216.404 139.904 216.515 140.367 216.609 140.702C217.099 142.442 215.643 144.073 215.135 145.807Z" fill="#FFB61D"/>
<path fill-rule="evenodd" clip-rule="evenodd" d="M223.125 144.652C223.294 144.613 223.477 144.565 223.58 144.426C223.765 144.175 223.566 143.825 223.345 143.606C222.608 142.875 221.541 142.483 220.501 142.561C220.062 142.594 219.509 143.025 219.805 143.348C220.05 143.614 219.885 144.032 219.751 144.366C219.616 144.701 219.591 145.193 219.934 145.312C220.064 145.357 220.207 145.326 220.341 145.295C221.269 145.081 222.197 144.866 223.125 144.652Z" fill="#FFB61D"/>
</svg>
