<svg width="399" height="399" viewBox="0 0 399 399" fill="none" xmlns="http://www.w3.org/2000/svg">
<rect width="399" height="399" fill="white"/>
<path fill-rule="evenodd" clip-rule="evenodd" d="M215.443 346.254C287.049 346.254 297.2 314.398 308.058 308.544C318.915 302.69 312.165 290.942 319.285 282.081C330.66 267.928 337.553 275.222 341.318 256.861C345.082 238.499 338.238 233.305 338.238 216.912C338.238 184.068 353.972 168.521 333.88 151.337C313.788 134.152 280.236 136.18 247.052 136.18C185.459 136.18 148.56 51.7457 66.4096 77.077C38.099 85.8066 41.2279 97.7031 47.4486 139.745C50.1499 158.002 29.754 181.213 33.2928 201.96C39.7559 239.852 56.8255 234.712 89.0318 260.295C94.4349 264.587 102.315 264.543 108.206 268.945C118.081 276.324 118.716 287.8 137.177 295.54C166.947 308.02 164.422 346.254 215.443 346.254Z" fill="#506BAE"/>
<ellipse cx="78.5531" cy="248.444" rx="18.1038" ry="17.024" fill="#C9D1E6"/>
<path fill-rule="evenodd" clip-rule="evenodd" d="M71.4539 187.746C68.3676 180.039 71.0635 175.421 72.7915 169.392C74.235 164.356 85.5232 156.177 90.7183 164.706C92.2467 167.215 91.6336 169.587 94.974 171.792C103.06 177.131 98.6489 166.055 98.9496 163.255C99.0963 161.89 97.9424 158.74 98.372 157.422C98.8227 156.039 101.225 154.074 101.225 151.207C101.225 148.341 96.3383 147.237 94.974 146.532C82.8509 140.273 75.1409 129.818 78.9831 124.512C84.3363 117.12 105.316 128.751 111.62 129.818C111.702 129.832 112.828 123.955 113.747 122.609C115.587 119.917 117.62 117.303 120.046 115.123C121.132 114.147 122.605 113.544 124.053 113.349C128.385 112.764 132.817 112.285 137.157 112.815C138.69 113.002 147.822 102.433 151.382 99.0239C178.7 72.8682 233.463 104.742 203.613 148.053C198.126 156.013 191.11 158.545 190.204 161.358C188.192 167.608 200.862 166.786 206.228 167.453C215.397 168.594 219.916 173.304 214.224 181.376C210.679 186.406 189.878 186.149 180.766 182.512C177.384 181.162 173.204 175.261 170.008 180.102C167.806 183.438 159.219 190.515 150.008 194.518C145.85 196.325 141.114 195.236 137.566 196.85C132.572 199.121 117.829 208.658 111.62 208.656C105.367 208.654 97.2743 201.128 96.3383 200.634C94.9113 199.882 83.8725 197.726 78.4193 189.31C76.7702 186.765 72.5836 190.568 71.4539 187.746Z" fill="white"/>
<ellipse cx="177.631" cy="143.064" rx="1.91777" ry="1.89035" fill="#FFB61D"/>
<circle cx="163.591" cy="139.118" r="1.862" fill="#FFB61D"/>
<circle cx="299.25" cy="137.522" r="25.27" fill="#C9D1E6"/>
<ellipse cx="220.234" cy="280.881" rx="73.4293" ry="62.7605" fill="#F4F0EA"/>
<path d="M175.208 322.697C176.144 325.622 176.297 328.795 175.649 331.798C175.002 334.797 175.63 334.804 174.995 331.803C174.361 328.806 174.435 325.661 175.208 322.697ZM180.487 331.879C180.882 334.37 180.963 333.99 179.665 331.827C178.352 329.641 178.216 326.792 179.314 324.489C179.705 326.953 180.096 329.416 180.487 331.879ZM182.407 327.429C183.35 328.73 184.008 330.236 184.326 331.812C184.637 333.355 184.304 332.971 183.283 331.773C182.283 330.599 181.941 328.899 182.407 327.429ZM171.392 321.091C171.463 320.74 172.024 320.728 172.246 321.01C172.467 321.292 172.445 321.69 172.412 322.047C172.138 324.976 171.863 327.906 171.59 330.835C171.168 331.047 170.832 330.427 170.761 329.96L170.619 328.975C170.485 327.987 170.395 326.994 170.479 326.003C170.534 325.364 170.66 324.733 170.787 324.105C170.989 323.1 171.19 322.095 171.392 321.091ZM167.892 316.878C168.094 316.725 168.406 316.835 168.553 317.041C168.701 317.247 168.726 317.513 168.743 317.766C168.874 319.769 168.728 321.779 168.582 323.781C168.483 325.142 168.384 326.502 168.285 327.863C168.247 328.375 168.204 328.906 167.953 329.354C167.227 327.821 167.15 326.068 167.165 324.372C167.186 322.033 167.358 319.695 167.681 317.378C167.707 317.194 167.744 316.99 167.892 316.878ZM164.924 313.794C165.139 313.528 165.575 313.795 165.728 314.102C166.103 314.854 165.923 315.751 165.735 316.57C165.063 319.502 164.391 322.435 163.718 325.367C163.678 325.543 163.63 325.731 163.493 325.847C163.231 326.068 162.796 325.873 162.652 325.563C162.508 325.252 162.567 324.89 162.629 324.554C163.274 321.032 164.007 317.527 164.825 314.041C164.845 313.954 164.867 313.864 164.924 313.794ZM270.254 297.752C270.669 297.834 270.944 298.222 271.159 298.587C273.722 302.935 274.126 308.426 272.502 313.205C270.878 317.984 267.318 322.019 262.92 324.494C262.509 324.726 261.867 324.879 261.669 324.451L262.484 323.725C266.559 320.067 270.579 315.988 271.893 310.711C272.926 306.566 272.067 301.988 269.603 298.498C269.359 298.152 269.838 297.671 270.254 297.752ZM248.362 291.291C252.078 291.157 255.783 291.688 259.458 292.257C261.752 292.613 264.443 293.295 265.248 295.473L264.709 295.277C259.125 293.284 253.094 292.554 247.197 293.161C244.645 293.424 242.084 293.945 239.79 295.093C235.46 297.26 232.364 301.721 231.849 306.535C231.334 311.35 233.416 316.365 237.189 319.399C239.597 321.335 242.552 322.452 245.143 324.134C245.443 324.421 244.768 324.707 244.373 324.579C240.696 323.392 237.124 321.587 234.502 318.75C231.311 315.299 229.754 310.397 230.37 305.737C230.985 301.076 233.761 296.746 237.739 294.241C240.885 292.26 244.646 291.425 248.362 291.291ZM163.916 309.201C164.342 309.218 164.455 309.798 164.413 310.222C164.061 313.726 161.919 317.01 162.306 320.51C162.343 320.841 162.363 321.258 162.072 321.42L161.917 321.289C161.188 320.605 161.119 319.429 161.181 318.406C161.361 315.451 162.069 312.528 163.262 309.818C163.391 309.525 163.597 309.189 163.916 309.201ZM247.723 298.399C250.154 297.389 253.002 297.865 255.341 299.07C257.58 300.222 270.689 311.233 260.7 318.508C258.329 320.235 254.452 321.004 254.424 321.009L253.654 319.604C253.654 319.604 260.614 317.757 261.674 315.204C262.733 312.652 261.871 309.667 260.7 307.163C259.486 304.567 256.324 302.392 253.773 301.085C252.588 300.478 251.265 300.049 249.94 300.174C249.285 300.236 248.648 300.433 248.039 300.682C245.143 301.866 242.797 304.33 241.757 307.281C240.718 310.232 241.001 313.622 242.515 316.36C241.997 316.991 241.069 316.114 240.778 315.35L240.621 314.927C239.643 312.23 239.638 309.375 240.095 306.581C240.778 302.409 245.908 299.153 247.723 298.399ZM219.221 217.56C220.319 216.166 222.419 216.247 224.18 216.457C228.22 216.94 232.259 217.424 236.299 217.907C237.225 218.018 238.335 218.271 238.627 219.156C239.41 221.531 242.171 222.501 244.565 223.223C253.077 225.789 261.397 229.274 268.623 234.452C275.849 239.631 281.956 246.597 285.197 254.875C279.928 247.673 274.522 240.335 267.21 235.221C265.117 233.757 262.891 232.494 260.632 231.303C255.3 228.492 249.75 226.069 243.985 224.31C217.222 216.141 186.264 223.717 166.299 243.322C163.404 246.164 160.689 249.295 159.048 253.005C159.77 253.229 160.494 253.454 161.216 253.678C157.779 255.214 155.225 258.581 154.673 262.305C156.056 259.936 158.028 257.913 160.361 256.469C158.842 261.543 151.794 264.349 152.194 269.63C153.224 266.926 155.82 264.885 158.69 264.522C154.137 268.97 149.252 274.191 149.397 280.554C151.058 276.879 153.878 273.739 157.353 271.694C155.685 273.935 154.017 276.176 152.349 278.417C150.457 280.96 148.465 283.866 148.897 287.006C150.543 284.052 152.897 281.495 155.705 279.611C154.353 282.685 152.422 285.505 150.045 287.877C152.306 287.604 154.483 286.668 156.236 285.214C155.501 286.24 154.839 287.398 154.814 288.659C154.789 289.921 155.607 291.276 156.856 291.457C157.234 290.612 158.42 290.255 159.202 290.751C156.832 293.058 156.807 297.331 159.151 299.664C159.359 298.568 160.285 297.643 161.382 297.436C159.633 300.493 159.319 304.331 160.547 307.632C160.918 305.762 161.956 304.031 163.43 302.822C162.58 307.258 160.701 311.494 157.982 315.101C158.257 315.3 158.532 315.499 158.806 315.697C156.946 317.366 154.148 315.291 152.579 313.346C150.056 310.218 147.497 306.894 146.729 302.949C146.292 300.705 146.467 298.393 146.643 296.113C146.88 293.05 147.118 289.985 147.355 286.921C147.67 282.848 147.987 278.767 148.692 274.743C150.6 263.853 155.403 253.483 162.476 244.985C163.744 243.461 165.161 241.798 165.136 239.817C165.085 235.702 167.455 231.857 170.566 229.163C173.677 226.47 177.488 224.741 181.239 223.049C182.938 222.283 185.157 221.596 186.474 222.915C189.183 225.629 193.704 223.9 197.282 222.522C201.675 220.83 206.368 219.918 211.075 219.842C213.999 219.795 217.412 219.857 219.221 217.56ZM151.512 290.887C150.945 290.868 150.342 290.911 149.878 291.238C149.414 291.564 149.169 292.259 149.499 292.721C150.48 294.096 151.219 295.644 151.67 297.272C151.934 298.225 152.133 299.267 152.841 299.957C153.319 300.423 153.442 301.134 153.539 301.794C153.801 303.578 154.063 305.361 154.325 307.145C154.468 308.119 154.612 309.112 154.448 310.083C154.284 311.054 153.759 312.016 152.879 312.456C153.816 312.775 154.753 313.094 155.69 313.413C156.098 313.552 156.516 313.692 156.947 313.688C158.427 313.672 159.347 312.017 159.502 310.545C159.686 308.784 159.249 307.023 158.815 305.307C157.957 301.912 157.098 298.517 156.24 295.122C155.342 295.407 155.915 296.976 155.215 297.607C154.564 296.796 154.489 295.57 155.039 294.687C155.594 293.795 155.231 292.547 154.444 291.852C153.657 291.157 152.562 290.922 151.512 290.887ZM182.806 293.341C183.424 292.741 184.668 292.348 184.958 293.159C182.87 295.17 181.496 297.987 181.513 300.885C181.531 303.783 183.052 306.7 185.578 308.12C187.335 309.108 189.404 309.337 191.41 309.531C192.341 309.622 193.277 309.709 194.212 309.666C198.347 309.477 202.209 306.484 203.425 302.527C203.617 301.904 204.664 302.06 204.924 302.656C205.185 303.253 204.916 303.939 204.615 304.516C202.409 308.75 198.125 311.928 193.38 312.452C188.634 312.977 183.6 310.664 181.198 306.538C178.796 302.412 179.383 296.669 182.806 293.341ZM192.638 291.035C194.009 290.675 195.45 290.332 196.828 290.664C197.872 290.916 198.794 291.542 199.573 292.282C200.981 293.621 202.006 295.438 202.102 297.378C202.198 299.319 201.248 301.351 199.538 302.273C199.221 302.216 199.347 301.736 199.52 301.464C200.582 299.794 200.295 297.475 199.091 295.904C197.887 294.332 195.916 293.467 193.944 293.297C191.898 293.12 189.798 293.643 188.074 294.757C187.273 295.275 186.532 295.942 186.135 296.81C185.939 297.239 185.833 297.704 185.769 298.171C185.467 300.392 186.156 302.729 187.614 304.431C189.072 306.133 191.277 307.172 193.518 307.213C193.724 307.761 192.847 308.022 192.269 307.929C190.147 307.587 187.926 306.892 186.585 305.212C185.842 304.282 185.438 303.133 185.049 302.008C184.549 300.567 184.042 299.06 184.24 297.548C184.484 295.679 185.799 294.083 187.384 293.063C188.97 292.043 190.815 291.515 192.638 291.035ZM246.307 270.797C247.46 270.153 249.061 270.474 249.877 271.513C249.923 271.572 249.967 271.634 249.986 271.706C250.05 271.95 249.787 272.175 249.536 272.19C249.284 272.204 249.047 272.085 248.807 272.006C247.488 271.572 246.074 272.371 245.086 273.347C244.632 273.794 244.218 274.293 243.948 274.869C243.121 276.639 243.856 278.845 245.267 280.196C245.578 280.493 245.92 280.76 246.296 280.969C248.257 282.059 251.055 281.165 252.019 279.138C252.621 279.585 252.439 280.545 252.032 281.175C250.914 282.904 248.491 283.648 246.595 282.843C245.658 282.445 244.885 281.733 244.232 280.951C242.593 278.987 241.623 276.125 242.811 273.859C243.541 272.466 244.935 271.564 246.307 270.797ZM250.155 279.016C250.153 279.619 249.635 280.126 249.057 280.298C248.48 280.47 247.858 280.378 247.269 280.25C246.615 280.108 245.815 279.707 245.911 279.044L246.286 279.207C247.169 279.58 248.118 279.885 249.02 279.612C249.43 279.487 249.796 279.25 250.155 279.016ZM248.589 274.349C249.185 274.311 249.826 274.288 250.335 274.602C251.032 275.032 251.25 275.984 251.073 276.783L251.007 277.027C250.625 278.224 249.443 279.138 248.181 279.174C246.835 279.212 245.524 278.249 245.158 276.952C244.933 276.155 245.467 275.3 246.185 274.887C246.904 274.474 247.762 274.402 248.589 274.349ZM249.507 276.214C248.93 275.972 248.201 276.164 247.818 276.659C247.75 276.748 247.69 276.854 247.7 276.966L247.708 277.014C247.769 277.242 248.11 277.296 248.354 277.231C248.867 277.093 249.307 276.706 249.507 276.214ZM174.511 254.547C176.427 253.781 178.62 253.444 180.547 254.183C181.022 254.365 181.482 254.617 181.825 254.993C182.147 255.347 182.349 255.794 182.502 256.247C183.48 259.151 182.487 262.508 180.384 264.737C178.281 266.965 175.219 268.134 172.163 268.353C171.184 268.423 170.132 268.383 169.324 267.826C168.516 267.27 168.115 266.034 168.737 265.276C169.177 265.297 169.313 265.873 169.613 266.196C169.952 266.561 170.514 266.588 171.012 266.567C173.179 266.475 175.379 265.938 177.142 264.676C178.906 263.414 180.173 261.352 180.136 259.184C180.124 258.485 179.973 257.771 179.577 257.195C178.927 256.249 177.699 255.822 176.554 255.898C175.41 255.973 174.337 256.481 173.362 257.086C172.08 257.882 170.894 258.882 170.09 260.159C169.287 261.437 168.893 263.017 169.233 264.488C168.932 265.029 168.04 264.921 167.671 264.423C167.302 263.925 167.324 263.242 167.427 262.631L167.493 262.287C168.239 258.753 171.143 255.895 174.511 254.547ZM212.562 256.225C213.109 256.217 213.664 256.211 214.196 256.337C215.329 256.607 216.232 257.444 217.037 258.286C217.215 258.473 217.405 258.703 217.361 258.957C217.306 259.273 216.911 259.417 216.597 259.353C216.284 259.288 216.019 259.087 215.728 258.953C214.601 258.436 213.276 259.003 212.263 259.719C212.104 259.831 211.933 259.976 211.929 260.171C211.925 260.367 212.093 260.519 212.251 260.635C213.619 261.637 215.371 262.101 217.055 261.907C217.458 261.861 217.932 261.713 218.037 261.322C218.146 260.913 217.85 260.31 218.241 260.149C218.368 260.096 218.513 260.134 218.645 260.172C219.557 260.437 220.624 260.864 220.8 261.797C220.851 262.067 220.815 262.348 220.729 262.609C220.478 263.371 219.778 263.967 218.985 264.093C218.633 264.149 218.273 264.119 217.918 264.088C216.99 264.008 216.061 263.929 215.141 263.78C213.452 263.508 211.8 263.005 210.247 262.289C209.708 262.041 209.148 261.735 208.875 261.208C208.667 260.808 208.657 260.338 208.652 259.887C208.642 258.996 208.654 258.032 209.192 257.322C209.932 256.345 211.336 256.242 212.562 256.225ZM250.158 252.72C251.199 252.419 252.316 252.514 253.373 252.753C253.729 252.834 254.099 252.94 254.359 253.197C254.565 253.4 254.681 253.678 254.757 253.958C255.116 255.296 254.584 256.829 253.473 257.656C252.362 258.484 250.742 258.555 249.563 257.828C249.353 257.699 249.148 257.537 249.049 257.31C248.83 256.804 249.255 256.214 249.771 256.02C250.287 255.826 250.859 255.9 251.411 255.906C251.962 255.913 252.572 255.821 252.929 255.402C253.055 255.254 253.141 255.036 253.045 254.867C252.944 254.691 252.707 254.66 252.505 254.65C251.099 254.577 249.439 254.62 248.629 255.771C248.454 256.018 248.029 255.934 247.866 255.679C247.703 255.424 247.74 255.09 247.833 254.802C248.164 253.771 249.117 253.021 250.158 252.72ZM262.124 240.424C262.906 240.195 263.672 240.777 264.281 241.319C264.968 241.93 265.669 242.56 266.094 243.375C266.519 244.191 266.614 245.244 266.089 245.998C265.957 246.187 266.185 246.539 265.979 246.642C265.569 246.844 265.076 246.824 264.638 246.69C263.444 246.323 262.643 245.226 261.966 244.175C261.571 243.56 261.177 242.906 261.113 242.178C261.049 241.45 261.422 240.63 262.124 240.424ZM263.144 242.397C262.958 242.453 262.943 242.728 263.054 242.887C263.166 243.045 263.351 243.135 263.49 243.27L263.549 243.333C263.83 243.663 263.879 244.163 264.189 244.472C264.397 244.679 264.712 244.772 264.999 244.71C264.462 243.879 263.839 243.102 263.144 242.397ZM186.132 225.145C185.725 224.72 185.026 224.349 184.597 224.752C179.607 229.447 173.929 233.409 167.8 236.471C166.688 237.027 166.538 238.525 166.538 239.769C166.538 240.184 166.935 240.766 167.194 240.442C168.458 238.858 170.101 237.629 171.725 236.418C176.295 233.011 180.921 229.572 186.16 227.325C186.795 227.053 187.54 226.667 187.592 225.978L187.485 225.993C186.957 226.034 186.513 225.543 186.132 225.145ZM237.811 233.35C238.713 232.947 239.71 232.605 240.674 232.822C241.591 233.028 242.323 233.705 242.963 234.395C243.487 234.96 243.984 235.552 244.45 236.167C244.86 236.709 245.255 237.287 245.409 237.949C245.563 238.612 245.429 239.381 244.918 239.828C244.417 240.266 243.647 240.303 243.04 240.032C242.503 239.793 242.044 239.267 242.084 238.681C242.124 238.094 242.844 237.608 243.338 237.928C242.795 236.461 241.484 235.303 239.961 234.947C239.489 234.836 238.957 234.809 238.557 235.082C238.158 235.355 238.02 236.021 238.401 236.32C238.77 236.609 238.547 237.289 238.096 237.418C237.645 237.547 237.159 237.241 236.933 236.829C236.708 236.418 236.684 235.928 236.681 235.459C236.678 234.833 236.735 234.133 237.198 233.711C237.374 233.551 237.594 233.447 237.811 233.35ZM211.314 228.581C212.583 228.492 213.915 228.891 214.808 229.796C215 229.991 215.173 230.211 215.276 230.464C215.48 230.963 215.393 231.534 215.228 232.048C214.534 234.211 212.385 235.846 210.113 235.851C209.625 235.852 209.098 235.766 208.755 235.419C208.411 235.072 208.383 234.398 208.802 234.15C208.948 234.064 209.12 234.04 209.288 234.018C209.844 233.944 210.401 233.871 210.958 233.797C211.512 233.724 212.084 233.644 212.567 233.363C213.05 233.081 213.429 232.541 213.347 231.988C213.266 231.432 212.745 231.024 212.198 230.899C211.651 230.774 211.08 230.875 210.53 230.985C209.896 231.111 209.253 231.254 208.695 231.58C208.137 231.906 207.669 232.449 207.59 233.09C207.561 233.321 207.296 233.469 207.066 233.432C206.837 233.394 206.651 233.218 206.531 233.019C206.216 232.497 206.277 231.81 206.558 231.269C206.839 230.728 207.311 230.31 207.806 229.954C208.839 229.212 210.045 228.671 211.314 228.581ZM222.102 217.776C221.271 217.538 220.56 218.381 220.104 219.115C221.472 218.973 222.848 218.914 224.223 218.94C226.616 218.984 228.997 219.282 231.372 219.579C232.579 219.731 233.794 219.884 234.952 220.258C235.866 220.554 236.831 220.991 237.746 220.698C237.463 220.035 236.659 219.795 235.95 219.661C231.366 218.798 226.588 219.056 222.102 217.776Z" fill="#00160A"/>
<path fill-rule="evenodd" clip-rule="evenodd" d="M78.7625 263.147C75.2297 263.526 71.4878 262.708 68.7294 260.469C66.7759 258.883 65.4032 256.676 64.44 254.351C63.3942 251.827 62.793 249.12 62.6721 246.391C62.6266 245.363 62.651 244.317 62.953 243.333C63.45 241.715 64.6468 240.416 65.8685 239.245C68.4677 236.752 71.5228 234.477 75.0858 233.953C77.5137 233.596 79.9834 234.083 82.36 234.695C84.2265 235.175 86.0906 235.741 87.7695 236.688C91.4792 238.779 94.05 242.769 94.4219 247.011C94.7938 251.254 94.3362 254.065 88.6109 259.336C85.6358 261.278 82.2952 262.768 78.7625 263.147ZM84.9925 249.829C84.4195 250.009 83.8484 250.329 83.2569 250.225C82.0484 250.013 81.8322 248.355 82.1005 247.157C82.8686 243.73 85.2578 240.703 88.413 239.16C87.6987 237.864 85.8013 237.769 84.4594 238.392C83.1174 239.014 82.0684 240.136 80.7706 240.847C80.1248 241.2 79.3595 241.45 78.6569 241.23C77.5008 240.868 77.0595 239.354 77.438 238.203C77.8165 237.052 78.761 236.194 79.668 235.39C76.3815 235.506 73.1295 236.492 70.3328 238.222C68.1433 239.576 66.0666 241.797 66.3571 244.355C68.1673 242.898 70.2927 241.834 72.5442 241.259C73.0217 241.137 73.6211 241.075 73.92 241.467C74.1463 241.764 74.0813 242.191 73.9363 242.535C73.2166 244.242 71.1003 244.815 69.7876 246.121C69.6152 246.293 69.4499 246.491 69.4082 246.731C69.3265 247.2 69.774 247.629 70.2441 247.707C70.7143 247.785 71.1863 247.614 71.6322 247.446C72.5585 247.097 73.4847 246.747 74.4109 246.398C75.0813 246.145 75.8774 245.903 76.4736 246.301C77.0905 246.712 77.1486 247.647 76.8 248.302C76.4514 248.956 75.8114 249.395 75.1956 249.807C73.7112 250.802 72.2269 251.797 70.7425 252.792C69.4997 253.625 68.1073 254.748 68.2255 256.239C68.3367 257.643 69.8811 258.597 71.2865 258.507C72.6919 258.417 73.9287 257.558 74.9659 256.605C76.0031 255.653 76.9394 254.565 78.1439 253.835C78.9299 253.359 80.0514 253.095 80.6899 253.756C81.1832 254.266 81.1356 255.087 80.9505 255.773C80.4169 257.748 78.9742 259.458 77.1167 260.317C78.6279 260.665 80.2039 260.731 81.739 260.51C82.6144 260.383 83.5207 260.141 84.1538 259.523C84.7869 258.905 85.032 257.818 84.4829 257.124C83.6637 256.09 83.6963 254.577 84.2196 253.366C84.743 252.154 85.6778 251.176 86.5935 250.227C86.3314 249.686 85.5655 249.649 84.9925 249.829ZM91.9889 252.177C92.8119 250.275 92.8419 248.124 92.6335 246.062C92.403 243.781 91.6079 241.173 89.4595 240.374C86.3112 241.681 83.8815 244.596 83.1637 247.929C83.1033 248.209 83.0561 248.51 83.1663 248.774C83.2764 249.038 83.6038 249.231 83.8575 249.098C84.728 248.642 85.7985 248.383 86.6834 248.811C87.5683 249.238 87.9992 250.572 87.2827 251.244C86.491 251.987 85.6779 252.76 85.2508 253.759C84.8237 254.757 84.8853 256.049 85.6894 256.778C86.2937 257.327 86.2952 258.403 85.6925 258.953C87.4061 258.452 88.6271 256.979 89.7383 255.582C90.5878 254.514 91.4471 253.43 91.9889 252.177ZM72.2622 242.34C70.4796 243.079 68.7494 243.945 67.0886 244.927C66.6936 245.161 66.2944 245.408 66.0056 245.765C65.6157 246.247 65.4675 246.875 65.347 247.483C64.9577 249.447 64.7569 251.561 65.5817 253.386C65.8449 253.968 66.2048 254.5 66.5628 255.03C66.6684 255.186 66.7884 255.353 66.9695 255.406C67.1507 255.458 67.3899 255.312 67.3474 255.128C67.2162 254.562 67.6451 254.029 68.0684 253.631C70.5473 251.298 73.8869 249.958 76.1161 247.385C75.7779 246.985 75.1365 247.173 74.6543 247.379C73.5059 247.869 72.3217 248.276 71.1143 248.594C70.4915 248.759 69.7974 248.892 69.229 248.589C68.3971 248.146 68.2617 246.932 68.7011 246.098C69.1405 245.264 69.9759 244.726 70.7815 244.236C71.5871 243.746 72.4323 243.235 72.9156 242.426C72.8277 242.196 72.4899 242.246 72.2622 242.34ZM78.3628 257.971C79.1505 257.338 80.0017 256.592 80.0876 255.585C80.1325 255.058 79.7948 254.414 79.2688 254.465C79.1072 254.48 78.9595 254.56 78.8201 254.643C76.5293 256.012 75.0218 258.688 72.4376 259.353C73.1679 259.68 73.9293 259.937 74.7081 260.12C74.94 260.174 75.1815 260.222 75.4148 260.174C75.6863 260.118 75.9134 259.939 76.1295 259.765C76.8739 259.167 77.6184 258.569 78.3628 257.971ZM80.4931 236.094C79.9834 236.658 79.4736 237.222 78.9639 237.786C78.5601 238.232 78.127 238.822 78.3517 239.38C78.5173 239.792 79.0063 240 79.4485 239.965C79.8907 239.931 80.2934 239.705 80.6643 239.461C81.9858 238.594 83.1756 237.413 84.7177 237.067C83.6485 236.677 82.5792 236.287 81.5099 235.898C81.2873 235.817 81.039 235.736 80.8199 235.826C80.6884 235.88 80.5885 235.989 80.4931 236.094Z" fill="#00160A"/>
<path d="M163.622 92.0314C173.109 88.8579 183.219 93.7496 192.022 98.5021C195.385 100.318 198.932 102.311 200.751 105.673C202.537 108.973 206.711 110.306 208.808 113.417C211.011 116.687 210.401 121.032 209.579 124.888C208.018 132.216 205.963 139.55 202.128 145.986C198.293 152.423 192.485 157.941 185.321 160.139C190.265 164.429 195.702 168.932 202.232 169.394C204.618 169.562 207.028 169.169 209.402 169.458C211.777 169.747 214.275 170.947 215.111 173.189C215.876 175.238 214.994 177.627 213.439 179.165C211.883 180.703 209.773 181.538 207.676 182.16C195.315 185.827 181.233 183.076 171.162 175.026C164.059 185.864 152.115 193.395 139.274 195.135C136.682 195.486 134.513 197.197 132.435 198.785C128.735 201.612 124.825 204.271 120.433 205.815C116.04 207.358 111.079 207.703 106.776 205.925C101.063 203.565 96.7805 197.685 90.6144 197.264C84.1548 196.822 81.2974 186.42 74.8614 187.127C71.9356 187.448 70.7377 183.397 71.1056 180.477C71.7314 175.509 73.7172 170.719 76.7892 166.765C78.9103 164.035 82.0819 161.53 85.4874 162.125C90.7602 163.047 92.0391 169.949 95.5402 173.998C98.1964 174.314 100.258 171.421 100.392 168.749C100.525 166.078 99.4209 163.516 98.9552 160.882C98.4897 158.248 98.9083 155.08 101.18 153.668C102.718 152.712 102.65 150.3 101.553 148.859C100.456 147.419 98.6995 146.678 97.0685 145.891C92.3024 143.591 87.9695 140.397 84.3624 136.526C82.6998 134.741 81.1492 132.732 80.5685 130.363C79.9878 127.994 80.5949 125.194 82.5734 123.768C85.0409 121.989 88.4611 122.897 91.3243 123.925C97.7825 126.243 104.145 128.829 110.389 131.674C113.264 128.066 114.572 123.442 117.22 119.663C122.536 112.076 133.476 109.055 141.933 112.838C142.917 106.443 148.454 101.875 153.622 97.9816C156.734 95.637 159.927 93.2677 163.622 92.0314ZM114.043 192.372C113.671 192.351 113.309 192.483 112.96 192.613C108.097 194.427 103.234 196.242 98.3712 198.056C102.426 203.499 109.652 206.384 116.34 205.23C120.904 204.442 124.999 201.978 128.754 199.267C130.553 197.968 132.314 196.591 133.787 194.932C129.542 195.256 125.081 195.543 121.213 193.764C119.969 193.191 118.738 192.397 117.369 192.438C116.596 192.461 115.825 192.755 115.066 192.611C114.721 192.546 114.393 192.392 114.043 192.372ZM181.294 95.5323C176.925 92.7258 171.326 92.4018 166.251 93.503C161.103 94.6204 156.262 97.1254 152.376 100.683C143.693 108.633 140.483 120.799 138.094 132.327C137.897 133.279 137.593 134.372 136.698 134.753C136.363 134.896 135.99 134.913 135.626 134.928C132.659 135.05 129.691 135.173 126.724 135.295C123.584 135.425 120.421 135.554 117.312 135.096C112.883 134.444 108.722 132.628 104.622 130.831C100.031 128.818 95.4384 126.806 90.8468 124.793C89.4814 124.195 88.0335 123.582 86.5528 123.756C83.2544 124.143 81.618 128.382 82.6525 131.538C83.6871 134.694 86.4378 136.926 89.0538 138.972C91.069 140.548 94.1941 139.741 95.9747 137.904C97.7552 136.067 98.5258 133.504 99.2364 131.046C99.8583 130.55 100.371 131.807 100.156 132.573C99.0922 136.359 96.4988 139.692 93.09 141.653C98.1154 146.58 105.055 149.071 111.959 150.434C118.864 151.796 125.938 152.171 132.827 153.61C133.934 153.842 135.32 155.026 134.464 155.765C130.652 155.108 126.839 154.45 123.027 153.793C120.453 153.349 117.761 152.913 115.271 153.7C112.167 154.682 109.927 157.405 108.367 160.262C106.808 163.119 105.734 166.241 103.942 168.957C100.834 173.666 95.56 176.881 89.9503 177.485C90.0101 176.015 91.5365 174.783 92.9864 175.035C93.228 172.431 90.4222 170.271 87.8165 170.494C85.2107 170.718 83.0426 172.704 81.7648 174.986C78.8251 180.236 79.9566 187.337 84.1368 191.664C88.3172 195.992 95.1195 197.41 100.811 195.457C107.11 193.295 113.721 190.928 118.058 185.873C119.184 187.665 117.654 190.436 115.537 190.438C123.405 193.082 131.816 194.419 140.053 193.391C148.29 192.363 156.346 188.846 162.07 182.835C158.461 181.592 154.964 180.022 151.635 178.153C146.377 185.039 137.618 189.097 128.966 188.656C137.324 187.935 145.321 183.688 150.6 177.167C146.634 174.395 143.052 171.074 139.988 167.329C141.978 164.909 143.969 162.488 145.959 160.067C148.943 163.64 152.594 166.653 156.668 168.904C157.161 169.177 157.725 169.446 158.266 169.288C158.751 169.147 159.074 168.702 159.358 168.283C161.573 165.013 163.693 161.677 165.714 158.283C163.962 157.742 162.353 156.742 161.094 155.408C163.922 155.375 166.511 156.852 169.159 157.845C177.881 161.115 188.415 158.84 195.01 152.262C189.118 154.471 182.691 155.599 176.491 154.52C170.292 153.44 164.356 149.957 161.168 144.531C156.961 137.37 157.924 127.933 153.277 121.049C150.401 116.787 150.35 110.799 153.153 106.488C154.962 103.708 159.182 101.729 161.45 104.15C166.848 99.1622 173.965 96.0718 181.294 95.5323ZM87.4737 165.124C86.4723 164.115 85.0469 163.419 83.6427 163.644C82.6561 163.801 81.7928 164.385 81.0118 165.008C76.9243 168.269 74.1609 172.988 72.6163 177.984C72.1774 179.403 71.8278 180.902 72.0763 182.367C72.3249 183.832 73.3021 185.26 74.7394 185.637C76.1768 186.013 77.9326 184.953 77.9357 183.467C77.9443 179.353 79.2991 175.253 81.7423 171.942C82.3264 171.151 82.9901 170.387 83.8507 169.911C84.7354 169.422 85.7619 169.271 86.7628 169.128C87.7642 168.985 88.7663 168.842 89.7677 168.699C89.1296 167.428 88.4751 166.134 87.4737 165.124ZM182.096 160.924C180.485 160.561 178.5 161.215 177.981 162.782C176.665 166.75 174.76 170.521 172.348 173.935C179.828 179.556 189.323 182.438 198.666 181.921C197.54 180.435 197.248 178.448 197.473 176.597C197.698 174.746 198.39 172.988 199.077 171.254C194.711 168.83 190.329 166.395 186.352 163.376C185.037 162.378 183.706 161.287 182.096 160.924ZM210.423 171.653C209.192 171.394 207.92 171.426 206.662 171.459C204.959 171.504 203.257 171.548 201.554 171.593C201.296 171.6 201.027 171.61 200.802 171.734C200.52 171.891 200.359 172.197 200.221 172.488C199.563 173.873 199.035 175.347 198.952 176.877C198.87 178.407 199.273 180.009 200.291 181.154C200.444 181.326 200.617 181.491 200.831 181.575C201.092 181.677 201.384 181.648 201.662 181.615C205.883 181.117 210.34 180.058 213.24 176.95C213.739 176.416 214.202 175.775 214.223 175.044C214.238 174.479 213.981 173.935 213.634 173.488C212.861 172.496 211.654 171.913 210.423 171.653ZM158.962 172.361C158.577 171.966 157.924 172.342 157.518 172.716C156.227 173.905 154.936 175.094 153.646 176.282C153.539 176.38 153.426 176.493 153.413 176.637C153.395 176.851 153.603 177.009 153.787 177.12C156.545 178.781 159.567 180.002 162.705 180.722C163.347 180.869 164.11 180.965 164.586 180.51C165.652 179.489 166.642 178.388 167.543 177.219C167.35 176.575 166.403 176.322 165.913 176.782C163.295 175.875 160.894 174.348 158.962 172.361ZM146.376 162.144C144.996 163.822 143.552 165.447 142.048 167.014C144.796 170.427 148.161 173.342 151.931 175.576C153.514 174.037 155.135 172.536 156.792 171.076C154.999 169.695 153.205 168.313 151.411 166.932C150.08 165.906 148.744 164.878 147.532 163.713C147.059 163.259 146.593 162.763 146.376 162.144ZM167.011 158.62C166.943 159.943 166.304 161.162 165.633 162.304C163.877 165.29 161.801 168.089 159.453 170.636C161.144 172.281 163.125 173.628 165.277 174.595C166.575 175.178 168.198 175.589 169.335 174.734C169.759 174.416 170.053 173.959 170.338 173.512C171.032 172.424 171.727 171.335 172.421 170.247C173.29 168.885 174.16 167.521 174.926 166.099C175.672 164.713 176.318 163.276 176.963 161.84C177.176 161.365 177.195 160.564 176.675 160.576C173.362 160.653 170.033 159.98 167.011 158.62ZM211.193 172.25C211.62 172.451 212.057 172.66 212.38 173.002C212.703 173.345 212.892 173.857 212.724 174.297C212.21 173.787 211.696 173.277 211.182 172.767C211.08 172.665 210.969 172.534 211.009 172.396C211.032 172.316 211.11 172.254 211.193 172.25ZM105.819 150.759C105.466 150.672 105.052 150.599 104.773 150.831C104.66 150.925 104.586 151.057 104.516 151.186C103.461 153.112 102.407 155.039 101.353 156.966C101.055 157.509 100.752 158.069 100.67 158.683C100.587 159.299 100.734 159.922 100.879 160.526C101.238 162.021 101.598 163.516 101.957 165.011C102.069 165.476 102.25 166.017 102.708 166.151C104.23 164.569 104.666 162.266 105.617 160.287C107.176 157.047 110.105 154.717 112.938 152.504C110.565 151.922 108.192 151.34 105.819 150.759ZM197.428 105.322C195.246 103.635 192.463 102.602 189.725 102.927C190.776 105.553 191.726 108.269 191.89 111.093C192.053 113.917 191.344 116.894 189.433 118.979C189.009 119.441 188.529 119.857 188.173 120.373C187.428 121.452 187.307 122.829 187.188 124.135C186.717 129.281 185.899 134.435 184.113 139.283C182.327 144.132 179.523 148.686 175.552 151.992C181.772 153.272 188.398 152.5 194.157 149.824C195.553 149.176 196.915 148.407 198.022 147.338C199.121 146.276 199.932 144.955 200.685 143.625C204.563 136.775 207.288 128.855 206.012 121.088C205.47 117.789 204.221 114.633 202.592 111.714C201.248 109.306 199.609 107.01 197.428 105.322ZM161.618 117.234C161.221 117.313 161.005 117.735 160.855 118.11C157.698 125.98 158.068 135.191 161.846 142.782C162.365 143.825 162.947 144.841 163.659 145.762C165.622 148.3 168.513 150.012 171.572 150.978C172.002 151.113 172.451 151.237 172.899 151.185C173.405 151.125 173.858 150.848 174.279 150.56C177.878 148.1 180.533 144.419 182.246 140.411C183.96 136.403 184.781 132.065 185.216 127.728C185.435 125.54 185.569 123.3 186.401 121.265C182.346 122.636 178.138 123.852 173.86 123.664C169.583 123.477 165.174 121.667 162.816 118.094C162.527 117.657 162.132 117.132 161.618 117.234ZM150.362 119.278C150.507 119.113 150.804 119.12 150.942 119.292C150.893 124.296 150.846 129.33 151.663 134.267C152.48 139.204 154.214 144.088 157.381 147.963C158.011 148.734 158.708 149.482 159.071 150.408C157.012 150.369 155.656 148.295 154.795 146.424C150.977 138.125 149.384 128.814 150.226 119.718C150.24 119.563 150.26 119.396 150.362 119.278ZM166.814 140.678C166.764 140.168 167.417 139.654 167.79 140.005C168.706 140.868 169.644 141.745 170.783 142.279C171.923 142.813 173.321 142.956 174.417 142.337C174.599 142.234 174.84 142.414 174.867 142.621C174.894 142.829 174.775 143.028 174.64 143.188C173.96 143.989 172.79 144.236 171.757 144.048C170.723 143.86 169.797 143.304 168.925 142.718C168.515 142.442 168.111 142.158 167.714 141.864C167.302 141.56 166.863 141.187 166.814 140.678ZM178.168 129.488C178.454 129.252 178.814 129.681 178.93 130.033C179.311 131.191 179.626 132.37 179.874 133.564C180.031 134.318 180.16 135.102 179.993 135.854C179.758 136.914 178.952 137.776 178.017 138.328C177.082 138.88 176.018 139.167 174.969 139.446C174.692 139.52 174.343 139.573 174.164 139.349C174.012 139.158 174.087 138.86 174.26 138.689C174.433 138.517 174.675 138.44 174.906 138.364C176.542 137.827 178.29 136.857 178.671 135.178C179.071 133.414 177.776 131.634 178.018 129.842C178.035 129.712 178.067 129.572 178.168 129.488ZM124.512 114.672C119.778 119.738 115.825 125.533 112.837 131.79C112.729 132.017 112.621 132.283 112.724 132.513C112.842 132.776 113.17 132.855 113.455 132.901C118.847 133.756 124.36 133.848 129.777 133.173C130.908 133.032 131.095 131.475 130.922 130.349C130.058 124.716 127.842 119.296 124.512 114.672ZM182.233 127.101C184.072 126.887 183.158 130.9 182.965 131.757C182.813 132.431 182.435 133.277 181.749 133.191C181.348 133.14 181.073 132.764 180.898 132.401C180.043 130.632 180.393 127.315 182.233 127.101ZM171.447 127.151C171.855 127.005 172.329 127.194 172.615 127.52C172.902 127.845 173.031 128.281 173.096 128.709L173.137 129.057C173.202 129.871 173.068 130.701 172.746 131.451C172.492 132.044 172.079 132.621 171.467 132.823C170.855 133.026 170.048 132.676 169.972 132.036C169.807 130.66 170.054 129.238 170.671 127.997C170.846 127.646 171.078 127.284 171.447 127.151ZM135.733 113.317C132.532 113.307 129.183 113.332 126.351 114.823C129.697 120.082 132.012 125.994 133.128 132.126C133.167 132.341 133.231 132.591 133.433 132.676C133.516 132.711 133.609 132.71 133.699 132.708C134.541 132.695 135.384 132.682 136.226 132.668C136.14 130.556 136.827 128.498 137.505 126.496C138.837 122.566 140.17 118.635 141.502 114.704C139.961 113.395 137.754 113.324 135.733 113.317ZM182.838 124.243C183.428 124.277 184.006 124.495 184.471 124.86C184.687 125.03 184.892 125.262 184.891 125.536C184.889 125.81 184.563 126.068 184.336 125.915L184.125 125.787C183.62 125.514 183.024 125.412 182.457 125.506C182.301 125.532 182.139 125.572 181.986 125.529C181.619 125.428 181.545 124.879 181.79 124.587C182.035 124.295 182.457 124.222 182.838 124.243ZM167.284 123.819C167.909 123.43 168.699 123.435 169.429 123.529C170.3 123.642 171.156 123.864 171.973 124.188C172.146 124.257 172.334 124.344 172.41 124.515C172.552 124.831 172.186 125.177 171.84 125.177C171.494 125.177 171.187 124.969 170.877 124.816C169.514 124.139 167.706 124.531 166.745 125.711L166.674 125.596C166.36 125.003 166.699 124.184 167.284 123.819ZM159.382 104.716C158.519 104.389 157.433 104.464 156.808 105.143C155.272 106.81 153.961 108.684 152.92 110.698L152.269 113.744C153.252 117.734 154.743 121.599 156.694 125.215C156.963 124.394 157.232 123.573 157.501 122.752C158.417 119.952 159.346 117.125 160.867 114.602C161.874 112.933 163.129 111.418 164.541 110.075C164.709 109.915 164.896 109.709 164.84 109.484C164.81 109.364 164.716 109.272 164.626 109.187C163.621 108.234 162.616 107.282 161.61 106.329C160.94 105.694 160.245 105.043 159.382 104.716ZM203.611 110.397C203.709 111.085 204.158 111.664 204.55 112.238C204.9 112.753 205.216 113.291 205.507 113.841C207.11 116.877 207.961 120.307 207.964 123.739C208.306 123.464 208.367 122.976 208.403 122.539C208.537 120.91 208.671 119.28 208.805 117.651C208.848 117.12 208.89 116.571 208.716 116.068C208.535 115.547 208.143 115.13 207.761 114.732C206.378 113.287 204.995 111.841 203.611 110.397ZM187.79 104.038C186.118 102.541 183.564 102.677 181.375 103.175C173.995 104.853 167.591 109.56 162.544 115.199C163.681 117.359 164.911 119.619 166.986 120.902C168.591 121.894 170.523 122.184 172.402 122.344C177.64 122.79 183.462 122.171 187.141 118.415C190.322 115.167 191.133 109.835 189.062 105.787C188.731 105.142 188.33 104.522 187.79 104.038ZM167.221 118.019C168.158 118.715 169.199 119.271 170.299 119.661C174.356 121.1 178.917 120.196 182.832 118.406C183.43 118.133 184.193 118.278 184.651 118.75C182.137 120.542 179.057 121.526 175.97 121.526C175.289 121.525 174.609 121.479 173.931 121.42C172.543 121.299 171.145 121.121 169.84 120.635C168.535 120.149 167.315 119.326 166.576 118.146C166.659 118.001 166.743 117.857 166.826 117.712L167.221 118.019ZM198.73 113.118C200.393 113.12 201.662 114.543 202.695 115.846C203.009 116.24 203.322 116.636 203.635 117.03C203.804 117.244 203.982 117.478 203.994 117.75C204.015 118.213 203.568 118.546 203.164 118.773C201.902 119.482 200.553 120.037 199.157 120.422C198.138 120.703 197.019 120.887 196.046 120.472C195.294 120.151 194.728 119.51 194.255 118.843C193.572 117.879 193.045 116.513 193.768 115.578C194.018 115.254 194.383 115.042 194.738 114.838C195.172 114.589 195.606 114.341 196.039 114.092C196.877 113.612 197.764 113.117 198.73 113.118ZM198.95 114.487C198.632 114.509 198.339 114.666 198.059 114.818C197.441 115.156 196.822 115.493 196.204 115.83C195.682 116.115 195.09 116.514 195.095 117.109L195.103 117.221C195.139 117.481 195.284 117.719 195.426 117.944C195.806 118.55 196.255 119.207 196.951 119.372C197.377 119.473 197.822 119.369 198.242 119.249C199.292 118.95 200.315 118.554 201.292 118.068C201.565 117.933 201.852 117.774 201.991 117.503C202.131 117.232 202.036 116.823 201.74 116.748C200.826 116.518 200.047 115.809 199.731 114.921C199.623 114.62 199.269 114.466 198.95 114.487ZM157.452 108.944C157.693 108.766 158.017 108.645 158.292 108.764L158.36 108.799C158.427 108.839 158.487 108.891 158.54 108.948C158.956 109.399 158.94 110.125 158.666 110.674C158.392 111.223 157.913 111.637 157.445 112.035C156.488 111.32 156.491 109.656 157.452 108.944ZM184.191 97.9073C177.263 97.1672 170.546 100.262 164.404 103.551C163.928 103.806 163.421 104.095 163.192 104.585C162.964 105.075 163.204 105.806 163.742 105.856C164.659 105.94 164.723 107.289 165.365 107.949C166.327 108.938 167.948 108.007 169.028 107.15C176.018 101.603 185.651 99.5542 194.293 101.776C191.277 99.7346 187.812 98.2944 184.191 97.9073Z" fill="#00160A"/>
<path fill-rule="evenodd" clip-rule="evenodd" d="M312.255 112.886C314.144 113.54 315.923 111.837 317.55 110.677C320.069 108.881 323.354 108.202 326.378 108.853C326.879 108.96 327.405 109.122 327.735 109.515C328.037 109.874 328.123 110.364 328.172 110.83C328.47 113.687 327.755 116.638 326.185 119.043C325.42 120.212 324.463 121.254 323.78 122.472C323.096 123.691 322.706 125.18 323.193 126.489C326.087 134.275 324.883 143.458 320.078 150.234C315.273 157.01 307.006 161.186 298.701 161.03C294.454 160.951 290.292 159.817 286.291 158.392C284.545 157.77 282.625 157.087 280.892 157.744C277.73 158.943 274.4 159.699 271.03 159.986C270.194 160.057 269.32 160.093 268.549 159.763C267.394 159.269 266.696 158.016 266.564 156.767C266.431 155.518 266.777 154.267 267.213 153.089C268.529 149.536 272.614 143.984 275.087 142.705C274.887 138.39 274.909 134.024 275.842 129.806C276.775 125.587 278.679 121.494 281.802 118.51C283.092 117.277 284.569 116.251 286.115 115.361C293.937 110.857 303.728 109.93 312.255 112.886ZM300.344 112.535C294.363 112.675 288.541 115.078 283.865 118.811C282.493 119.907 281.202 121.124 280.172 122.547C279.36 123.668 278.717 124.906 278.181 126.182C274.996 133.756 275.723 142.857 280.07 149.829C280.165 149.981 280.273 150.142 280.442 150.201C280.651 150.274 280.876 150.168 281.071 150.064C294.723 142.789 306.874 132.713 316.551 120.644C316.781 120.356 317.024 120.022 316.974 119.657C316.937 119.384 316.741 119.161 316.551 118.961C312.422 114.632 306.325 112.395 300.344 112.535ZM308.706 157.751C315.19 154.707 320.115 148.691 322.221 141.844C322.698 140.294 323.041 138.691 323.075 137.07C323.103 135.706 322.913 134.348 322.723 132.997C322.448 131.039 322.173 129.08 321.898 127.122C321.825 126.603 321.324 125.917 320.959 126.293C310.813 136.734 299.735 146.268 287.898 154.745C287.505 155.027 287.071 155.376 287.05 155.86C287.025 156.42 287.56 156.826 288.046 157.106C294.251 160.685 302.222 160.795 308.706 157.751ZM268.709 156.954C269.181 157.71 270.203 157.865 271.095 157.89C275.771 158.019 280.397 156.649 284.58 154.557C288.764 152.464 292.55 149.665 296.23 146.777C301.138 142.925 305.899 138.888 310.54 134.717C316.286 129.552 321.933 124.073 325.706 117.33C326.436 116.026 327.11 114.596 326.996 113.105C326.881 111.615 325.693 110.111 324.199 110.169C321.03 110.293 317.914 111.511 315.501 113.57C315.021 113.98 315.361 114.851 315.951 115.073C316.542 115.295 317.2 115.075 317.777 114.82C318.354 114.565 318.955 114.267 319.582 114.337C320.539 114.443 321.22 115.424 321.277 116.386C321.334 117.348 320.908 118.272 320.407 119.095C319.479 120.618 318.268 121.946 317.044 123.243C306.163 134.771 293.611 144.719 279.902 152.68C278.668 153.397 277.419 154.1 276.09 154.622C275.393 154.896 274.594 155.116 273.914 154.803C272.799 154.289 272.709 152.723 273.044 151.542C273.546 149.768 274.632 148.165 276.092 147.039C275.815 146.26 275.539 145.481 275.262 144.702C271.658 147.004 269.128 150.92 268.512 155.152C268.423 155.763 268.382 156.43 268.709 156.954ZM278.958 151.606C278.983 151.526 278.937 151.442 278.892 151.371C278.426 150.631 277.96 149.891 277.495 149.151C277.284 148.817 276.877 148.438 276.561 148.675C275.422 149.533 274.608 150.809 274.31 152.203C274.251 152.478 274.217 152.785 274.366 153.023C274.645 153.466 275.31 153.367 275.803 153.191C276.853 152.814 277.864 152.331 278.816 151.749C278.874 151.714 278.937 151.672 278.958 151.606ZM319.465 116.388C319.418 116.196 319.189 116.112 318.992 116.104C318.392 116.078 317.765 116.571 317.803 117.17C317.841 117.769 318.732 118.147 319.104 117.676C319.216 117.533 319.264 117.352 319.309 117.176C319.353 117.002 319.397 116.828 319.442 116.654C319.464 116.567 319.486 116.475 319.465 116.388Z" fill="#00160A"/>
</svg>
