<svg width="390" height="390" viewBox="0 0 390 390" fill="none" xmlns="http://www.w3.org/2000/svg">
<rect width="390" height="390" fill="white"/>
<path fill-rule="evenodd" clip-rule="evenodd" d="M281.295 102.767C311.479 131.424 319.91 174.163 317.693 215.715C315.57 255.531 303.709 297.879 269.773 318.804C238.205 338.269 200.343 319.228 164.344 310.271C127.912 301.207 84.3517 300.816 65.9479 268.092C46.3979 233.331 60.2667 191.128 76.9802 154.931C94.868 116.19 118.138 76.0636 159.487 65.5066C202.762 54.458 248.897 72.0068 281.295 102.767Z" fill="#506BAE"/>
<g clip-path="url(#clip0_1696_3243)">
<path d="M213.629 87.976C215.15 87.6444 216.707 88.2313 218.139 88.8416C245.552 100.522 266.941 125.473 274.295 154.349C281.648 183.225 274.798 215.367 256.311 238.736C237.823 262.105 208.12 276.167 178.327 275.656C177.721 279.117 177.116 282.577 176.51 286.038C176.509 283.105 176.462 280.001 174.924 277.504C173.385 275.008 169.78 273.545 167.423 275.291C164.203 279.136 166.692 286.104 171.619 287.04C170.655 289.3 166.939 288.596 165.69 286.48C164.44 284.364 164.724 281.729 164.531 279.28C164.339 276.83 163.208 274.014 160.799 273.533C153.645 272.106 146.629 269.993 139.878 267.231C135.508 265.444 130.472 261.934 131.496 257.325C132.252 253.921 136.28 252.099 139.737 252.556C143.193 253.014 146.175 255.123 149.001 257.166C150.474 252.074 151.948 246.981 153.422 241.889C148.783 242.104 147.481 235.308 143.573 232.801C125.693 221.33 113.773 201.053 112.446 179.851C111.118 158.649 120.416 137.045 136.726 123.433C153.037 109.821 175.956 104.539 196.579 109.638C199.026 106.628 203.6 105.586 207.109 107.239C210.39 105.564 210.223 100.92 209.811 97.2595C209.399 93.5988 210.029 88.7606 213.629 87.976ZM155.76 258.791C154.409 257.295 155.735 258.18 155.735 258.18L155.76 258.96V259.316C155.76 259.316 152.485 258.049 150.913 257.536C177.808 266.621 209.107 261.336 231.528 243.923C253.949 226.51 266.818 197.493 264.673 169.186C262.528 140.879 245.435 114.132 220.646 100.296C220.055 99.9663 219.392 99.6324 218.731 99.776C217.881 99.9604 217.398 100.836 217.025 101.622C215.781 104.239 214.536 106.856 213.292 109.474C216.223 111.195 217.789 114.955 216.947 118.248C233.722 128.879 245.403 147.196 247.968 166.89C250.533 186.584 243.932 207.282 230.44 221.855C216.948 236.429 196.82 244.602 176.987 243.56C172.339 243.316 167.333 242.672 163.327 245.044C158.697 247.785 157.033 253.562 155.76 258.791Z" fill="white"/>
<path d="M148.972 136.634C148.595 136.639 148.431 137.107 148.371 137.479C148.141 138.896 147.911 140.313 147.681 141.731C149.452 141.694 151.449 141.557 152.602 140.211C151.015 139.944 149.828 138.229 150.138 136.649C150.702 137.521 151.465 138.264 152.352 138.805C152.794 139.074 153.304 139.337 153.477 139.825C153.762 140.631 152.96 141.377 152.259 141.868C151.559 142.358 150.775 143.141 151.106 143.93C150.458 143.183 149.51 142.705 148.524 142.628C147.96 142.584 147.336 142.649 146.885 142.308C146.157 141.757 146.406 140.612 146.808 139.793C147.21 138.974 147.699 138.003 147.248 137.211C146.91 136.617 146.12 136.324 145.942 135.665C145.683 134.704 146.873 134.034 147.838 133.787C148.509 133.616 149.215 133.464 149.888 133.631C150.56 133.798 151.179 134.381 151.154 135.073C150.835 135.97 149.924 136.621 148.972 136.634ZM150.545 134.799C149.582 134.254 148.298 134.341 147.417 135.01C147.128 135.23 146.864 135.615 147.039 135.934C148.295 136.014 149.575 135.599 150.545 134.799Z" fill="#E62121"/>
<path d="M218.577 187.23C218.153 187.062 217.777 186.776 217.502 186.412C218.525 185.965 219.364 185.112 219.794 184.081C220.068 183.426 221.047 183.414 221.635 183.812C222.223 184.21 222.59 184.86 223.126 185.327C223.661 185.794 224.553 186.028 225.043 185.515C225.615 184.916 226.726 185.399 227.017 186.174C227.307 186.949 227.052 187.811 226.795 188.599C226.647 189.056 226.484 189.535 226.128 189.859C225.772 190.183 225.157 190.275 224.828 189.925C223.536 188.547 220.957 188.77 219.921 190.35C218.886 189.726 218.319 188.411 218.577 187.23ZM220.446 185.104C219.521 186.039 219.207 187.528 219.677 188.757C219.785 189.04 220.147 189.341 220.334 189.103C221.194 188.009 222.76 187.53 224.084 187.957C224.334 188.038 224.557 187.707 224.486 187.454C224.414 187.2 224.177 187.036 223.957 186.892C223.011 186.278 222.065 185.663 221.12 185.049C221.01 184.977 220.888 184.903 220.758 184.916C220.634 184.928 220.533 185.016 220.446 185.104ZM225.538 189.561C225.924 188.674 226.186 187.733 226.313 186.775C226.341 186.563 226.237 186.244 226.039 186.326C224.869 186.867 224.587 188.691 225.538 189.561Z" fill="#DBCFBB"/>
<path d="M189.126 187.763C187.368 186.412 185.142 185.329 184.41 183.237C183.164 179.68 179.211 177.821 177.255 174.6C175.603 171.88 175.553 168.474 176.047 165.33C177.283 157.453 182.152 149.794 189.609 146.974C193.168 145.629 197.052 145.441 200.857 145.48C204.131 145.514 207.515 145.733 210.432 147.221C213.348 148.708 215.69 151.77 215.383 155.03C215.26 156.342 214.727 157.6 214.702 158.918C214.635 162.527 218.171 165.016 221.297 166.821C224.312 168.562 227.327 170.303 230.342 172.043C231.898 172.942 232.111 175.061 232.144 176.858C232.233 181.77 232.323 186.683 232.412 191.595C232.43 192.577 232.446 193.574 232.193 194.522C231.919 195.546 231.346 196.46 230.78 197.357C225.145 206.291 219.03 215.666 209.521 220.266C207.44 221.273 205.245 222.021 203.056 222.767C201.011 223.464 198.965 224.162 196.92 224.859C195.409 225.374 193.852 225.896 192.258 225.805C190.664 225.714 189.006 224.862 188.446 223.367C188.121 222.499 188.199 221.537 188.335 220.62C188.797 217.499 189.884 214.471 191.512 211.769C193.784 207.997 195.149 203.599 194.885 199.204C194.62 194.809 192.616 190.447 189.126 187.763ZM182.125 177.349C186.359 181.287 190.121 185.731 193.305 190.558C194.402 192.22 195.441 193.95 196.026 195.854C197.16 199.546 196.486 203.573 195.175 207.206C193.864 210.838 191.943 214.22 190.488 217.797C189.682 219.778 189.183 222.429 190.875 223.737C192.266 224.814 194.264 224.255 195.917 223.651C198.396 222.745 200.874 221.839 203.353 220.933C205.41 220.181 207.472 219.427 209.425 218.436C218.349 213.907 224.064 205.005 229.349 196.506C229.827 195.737 230.311 194.954 230.56 194.083C230.818 193.177 230.809 192.219 230.798 191.277C230.749 187.121 230.7 182.965 230.651 178.81C230.634 177.348 230.602 175.826 229.941 174.522C228.762 172.196 226.011 171.257 223.645 170.161C220.095 168.516 216.919 166.069 214.423 163.057C213.779 162.28 213.163 161.43 212.965 160.441C212.613 158.683 213.641 156.955 213.794 155.169C214.044 152.243 211.837 149.55 209.174 148.312C206.512 147.073 203.478 146.983 200.542 146.959C197.759 146.937 194.94 146.96 192.247 147.663C184.226 149.757 178.738 157.753 177.561 165.958C177.227 168.286 177.202 170.762 178.242 172.871C179.122 174.653 180.67 175.995 182.125 177.349Z" fill="black"/>
<path d="M189.126 187.763C187.368 186.412 185.142 185.329 184.41 183.237C183.164 179.68 179.211 177.821 177.255 174.6C175.603 171.88 175.553 168.474 176.047 165.33C177.283 157.453 182.152 149.794 189.609 146.974C193.168 145.629 197.052 145.441 200.857 145.48C204.131 145.514 207.515 145.733 210.432 147.221C213.348 148.708 215.69 151.77 215.383 155.03C215.26 156.342 214.727 157.6 214.702 158.918C214.635 162.527 218.171 165.016 221.297 166.821C224.312 168.562 227.327 170.303 230.342 172.043C231.898 172.942 232.111 175.061 232.144 176.858C232.233 181.77 232.323 186.683 232.412 191.595C232.43 192.577 232.446 193.574 232.193 194.522C231.919 195.546 231.346 196.46 230.78 197.357C225.145 206.291 219.03 215.666 209.521 220.266C207.44 221.273 205.245 222.021 203.056 222.767C201.011 223.464 198.965 224.162 196.92 224.859C195.409 225.374 193.852 225.896 192.258 225.805C190.664 225.714 189.006 224.862 188.446 223.367C188.121 222.499 188.199 221.537 188.335 220.62C188.797 217.499 189.884 214.471 191.512 211.769C193.784 207.997 195.149 203.599 194.885 199.204C194.62 194.809 192.616 190.447 189.126 187.763ZM182.125 177.349C186.359 181.287 190.121 185.731 193.305 190.558C194.402 192.22 195.441 193.95 196.026 195.854C197.16 199.546 196.486 203.573 195.175 207.206C193.864 210.838 191.943 214.22 190.488 217.797C189.682 219.778 189.183 222.429 190.875 223.737C192.266 224.814 194.264 224.255 195.917 223.651C198.396 222.745 200.874 221.839 203.353 220.933C205.41 220.181 207.472 219.427 209.425 218.436C218.349 213.907 224.064 205.005 229.349 196.506C229.827 195.737 230.311 194.954 230.56 194.083C230.818 193.177 230.809 192.219 230.798 191.277C230.749 187.121 230.7 182.965 230.651 178.81C230.634 177.348 230.602 175.826 229.941 174.522C228.762 172.196 226.011 171.257 223.645 170.161C220.095 168.516 216.919 166.069 214.423 163.057C213.779 162.28 213.163 161.43 212.965 160.441C212.613 158.683 213.641 156.955 213.794 155.169C214.044 152.243 211.837 149.55 209.174 148.312C206.512 147.073 203.478 146.983 200.542 146.959C197.759 146.937 194.94 146.96 192.247 147.663C184.226 149.757 178.738 157.753 177.561 165.958C177.227 168.286 177.202 170.762 178.242 172.871C179.122 174.653 180.67 175.995 182.125 177.349Z" fill="black" fill-opacity="0.2"/>
<path d="M143.511 301.411C146.639 303.313 150.356 303.944 153.981 304.463C159.746 305.287 165.539 305.921 171.346 306.361C178.827 306.928 186.791 307.069 193.298 303.334C193.779 303.058 194.27 302.741 194.533 302.252C195.331 300.77 193.509 299.164 191.851 298.868C190.194 298.572 188.278 298.742 187.066 297.572C189.506 296.36 192.576 296.527 194.871 297.996C197.165 299.465 198.601 302.184 198.521 304.907C198.456 307.139 197.452 309.289 197.556 311.52C197.683 314.241 194.909 316.13 192.376 317.136C184.328 320.332 175.424 320.414 166.765 320.287C159.093 320.174 151.124 319.858 144.307 316.338C142.592 315.453 140.917 314.312 139.969 312.631C139.118 311.122 138.94 309.339 138.779 307.615C138.457 304.146 138.253 300.268 140.487 297.595C142.618 295.047 146.257 294.468 149.569 294.229C151.169 294.113 151.731 291.989 151.439 290.412C151.147 288.835 150.451 287.155 151.137 285.706C152.508 282.812 157.268 284.234 159.715 282.169C160.527 281.483 161.833 282.704 161.517 283.719C161.202 284.733 160.009 285.208 158.946 285.228C157.883 285.248 156.825 284.955 155.767 285.052C154.709 285.149 153.567 285.826 153.477 286.885C163.233 290.799 174.248 291.499 184.42 288.85C182.669 286.706 179.865 285.468 177.101 285.618C177.146 284.936 177.909 284.55 178.581 284.426C181.626 283.863 184.761 285.993 185.927 288.862C187.094 291.731 186.547 295.085 185.093 297.819C183.771 297.407 183.875 295.538 184.089 294.17C184.302 292.801 183.74 290.825 182.38 291.089C173.088 292.889 163.324 292.19 154.384 289.084C153.701 288.847 153.268 289.807 153.184 290.524C152.873 293.207 152.714 296.331 154.697 298.165C155.67 299.065 156.994 299.466 158.28 299.79C165.266 301.554 172.614 301.873 179.727 300.72C180.723 300.558 181.991 300.49 182.477 301.374C177.088 303.817 170.878 303.262 164.991 302.657C162.209 302.371 159.371 302.071 156.82 300.925C154.332 299.807 152.227 297.93 149.684 296.946C147.14 295.962 143.732 296.218 142.345 298.566C142.192 298.825 142.068 299.108 142.046 299.408C141.983 300.278 142.766 300.958 143.511 301.411ZM195.883 312.149C197.015 309.616 195.972 306.71 195.638 303.956C187.909 309.234 177.745 308.778 168.438 307.802C163.041 307.236 157.656 306.564 152.286 305.786C148.803 305.281 145.145 304.654 142.423 302.425C141.692 301.826 140.88 303.08 140.759 304.017C140.407 306.742 140.101 309.705 141.516 312.06C143.068 314.642 146.219 315.716 149.144 316.437C162.015 319.611 175.638 319.692 188.546 316.671C191.45 315.991 194.665 314.871 195.883 312.149Z" fill="black"/>
<path d="M211.791 87.456C213.312 87.1244 214.869 87.7113 216.301 88.3216C243.714 100.002 265.103 124.953 272.457 153.829C279.81 182.705 272.96 214.847 254.473 238.216C235.986 261.585 206.282 275.647 176.489 275.136C175.883 278.597 175.278 282.057 174.672 285.518C174.671 282.585 174.624 279.481 173.086 276.984C171.547 274.488 167.942 273.025 165.585 274.771C162.365 278.616 164.854 285.584 169.781 286.52C168.817 288.78 165.101 288.076 163.852 285.96C162.603 283.844 162.886 281.209 162.694 278.76C162.501 276.31 161.371 273.493 158.961 273.013C151.807 271.586 144.791 269.473 138.04 266.711C133.67 264.924 128.634 261.414 129.658 256.805C130.414 253.401 134.442 251.579 137.899 252.036C141.356 252.494 144.337 254.603 147.163 256.646C148.636 251.554 150.11 246.461 151.584 241.369C146.945 241.584 145.643 234.788 141.735 232.281C123.855 220.81 111.935 200.533 110.608 179.331C109.28 158.129 118.578 136.525 134.888 122.913C151.199 109.301 174.118 104.019 194.741 109.118C197.188 106.108 201.762 105.066 205.271 106.719C208.553 105.044 208.385 100.4 207.973 96.7395C207.561 93.0788 208.191 88.2406 211.791 87.456V87.456ZM240.535 198.372C248.574 177.247 244.794 152.047 230.911 134.21C229.905 132.918 228.769 131.605 227.216 131.086C223.708 129.913 220.199 128.74 216.69 127.568C217.071 129.047 215.888 130.566 214.459 131.107C213.03 131.648 211.442 131.465 209.927 131.272C207.227 130.928 204.44 130.549 202.109 129.145C199.777 127.741 198.01 125.023 198.574 122.361C199.025 120.234 196.418 118.871 194.324 118.287C188.856 116.762 183.388 115.238 177.92 113.714C176.728 113.382 175.453 112.996 174.691 112.02C173.93 111.045 174.08 109.296 175.252 108.899C166.089 109.144 156.988 111.498 148.855 115.726C155.339 119.087 161.946 122.538 167.022 127.788C171.004 131.906 173.996 137.426 173.514 143.134C173.095 148.079 170.08 152.551 166.152 155.585C162.224 158.618 157.45 160.363 152.637 161.573C145.535 163.358 136.932 163.639 132.046 158.185C130.625 156.598 128.085 157.01 126.025 157.551C122.548 158.465 119.072 159.379 115.596 160.293C114.787 160.506 113.807 160.919 113.78 161.756C113.696 164.293 115.576 166.758 118.044 167.349C120.512 167.94 123.305 166.594 124.38 164.294C125.027 162.909 126.978 162.693 128.408 163.235C129.838 163.777 131.021 164.841 132.443 165.403C134.697 166.293 137.343 165.846 139.524 166.905C143.16 168.67 143.779 173.623 143.086 177.605C141.798 184.996 137.608 191.841 131.611 196.349C127.675 199.308 128.359 205.439 130.339 209.946C132.319 214.454 135.264 218.986 134.577 223.86C131.876 218.214 129.589 212.369 127.741 206.389C126.721 203.09 126.137 198.808 128.95 196.805C134.924 192.548 139.358 186.174 141.27 179.091C142.416 174.845 141.846 169.048 137.638 167.772C136.007 167.277 134.203 167.645 132.583 167.114C131.226 166.67 130.14 165.643 128.837 165.06C127.535 164.476 125.701 164.526 125.014 165.777C122.672 170.039 115.484 170.213 112.938 166.07C109.982 187.178 117.978 209.523 133.655 223.964C149.332 238.405 172.256 244.543 193.051 239.867C213.847 235.191 231.937 219.831 239.924 200.069C237.705 199.08 236.448 196.628 236.123 194.22C235.799 191.812 236.231 189.377 236.471 186.959C236.954 182.096 236.651 177.157 235.578 172.39C235.289 171.108 234.723 169.616 233.436 169.35C229.574 168.552 225.909 166.816 222.845 164.333C220.517 162.447 218.564 158.708 220.828 156.747C221.884 155.834 220.386 154.329 219.841 153.044C218.689 150.332 222.215 148.104 225.034 147.244C228.339 146.236 231.643 145.227 234.948 144.219C235.305 144.11 235.683 144.001 236.045 144.089C237.099 144.346 237.024 146.047 236.138 146.672C235.252 147.297 234.069 147.195 232.985 147.17C228.673 147.067 224.343 148.645 221.107 151.498C222.546 153.089 222.917 155.561 222.007 157.505C220.913 159.844 222.467 162.683 224.615 164.117C226.763 165.551 229.385 166.04 231.796 166.966C234.207 167.892 236.638 169.538 237.222 172.054C238.404 177.152 238.661 182.463 237.977 187.651C237.461 191.567 236.977 196.655 240.535 198.372ZM153.922 258.271C152.571 256.775 152.905 254.403 153.747 252.571C154.589 250.74 155.861 249.063 156.218 247.08C156.574 245.096 155.499 242.621 153.489 242.467C152.018 247.316 150.546 252.166 149.075 257.016C175.971 266.101 207.269 260.816 229.69 243.403C252.111 225.99 264.98 196.973 262.835 168.666C260.69 140.359 243.597 113.612 218.808 99.7763C218.217 99.4463 217.554 99.1123 216.893 99.256C216.043 99.4404 215.56 100.316 215.187 101.102C213.943 103.719 212.698 106.336 211.454 108.954C214.385 110.675 215.952 114.434 215.109 117.728C231.884 128.359 243.565 146.676 246.13 166.37C248.695 186.064 242.094 206.762 228.602 221.335C215.11 235.909 194.982 244.082 175.149 243.04C170.501 242.796 165.495 242.152 161.489 244.523C156.859 247.265 155.195 253.042 153.922 258.271H153.922ZM217.245 90.6155C215.715 89.9334 214.051 89.278 212.409 89.6038C210.766 89.9295 209.307 91.6701 209.905 93.2343C238.704 104.991 260.202 133.005 264.108 163.865C268.015 194.724 254.176 227.211 229.215 245.774C204.255 264.336 169.16 268.241 140.73 255.619C137.969 254.394 134.199 253.247 132.377 255.657C131.256 257.141 131.632 259.358 132.762 260.835C133.893 262.312 135.607 263.208 137.286 264.008C167.614 278.461 205.608 275.296 233.127 256.026C260.647 236.755 276.612 202.133 273.401 168.691C270.19 135.249 247.929 104.298 217.245 90.6155ZM114.977 158.953C118.516 157.986 122.055 157.02 125.594 156.054C128.035 155.388 131.057 154.877 132.743 156.763C135.465 159.81 139.68 161.204 143.765 161.282C147.85 161.359 151.861 160.259 155.747 158.996C161.044 157.276 166.686 154.848 169.221 149.89C170.711 146.976 172.241 143.88 172.039 140.614C171.852 137.603 170.218 134.9 168.63 132.335C167.295 130.18 165.926 127.984 163.977 126.365C160.649 123.601 155.95 122.777 152.91 119.701C151.152 117.922 148.361 117.489 145.923 118.042C143.484 118.596 141.329 119.994 139.317 121.479C127.783 129.989 119.09 142.283 114.911 155.994C114.612 156.975 114.362 158.132 114.977 158.953ZM215.426 126.962C216.555 125.339 219.105 125.904 220.788 126.944C222.471 127.983 224.284 129.391 226.2 128.899C215.735 118.286 201.717 111.237 186.956 109.168C183.135 108.632 178.754 108.599 176.007 111.309C182.881 113.37 189.754 115.432 196.627 117.493C197.532 117.765 198.486 118.067 199.106 118.78C200.194 120.033 199.805 121.936 200.108 123.568C200.544 125.92 202.519 127.751 204.728 128.671C206.936 129.591 209.375 129.754 211.762 129.907C212.592 129.96 213.517 129.982 214.144 129.436C214.85 128.82 214.89 127.731 215.426 126.962ZM213.338 116.545C213.981 115.14 213.402 113.416 212.335 112.299C211.269 111.182 209.805 110.546 208.372 109.972C205.859 108.964 203.251 108.044 200.544 107.971C199.865 107.953 199.119 108.015 198.632 108.488C198.145 108.961 198.189 109.967 198.839 110.164C203.906 111.696 208.786 113.844 213.338 116.545ZM163.95 241.43C159.023 240.511 154.227 238.891 149.752 236.633C149.382 236.446 148.988 236.25 148.576 236.289C148.163 236.328 147.756 236.714 147.86 237.115C147.931 237.387 148.194 237.556 148.436 237.699C151.009 239.211 153.603 240.733 156.425 241.702C159.247 242.671 162.349 243.059 165.223 242.258C165.127 241.726 164.481 241.529 163.95 241.43ZM213.698 96.9634C213.311 96.3969 212.405 96.4379 211.869 96.8657C211.332 97.2935 211.074 97.9717 210.84 98.6163C209.859 101.311 208.878 104.007 207.897 106.702C207.807 106.949 207.716 107.208 207.745 107.47C207.83 108.23 208.909 108.506 209.564 108.11C210.219 107.714 210.53 106.944 210.799 106.228C211.741 103.714 212.683 101.2 213.626 98.6868C213.836 98.1259 214.036 97.4581 213.698 96.9634V96.9634Z" fill="black"/>
</g>
<path d="M178.999 160C178.199 152.4 188.333 148.5 193.499 147.5C204.499 145 205.999 147.5 208.999 148.5C211.999 149.5 215.499 154.5 213.999 156C212.499 157.5 216.999 165.5 217.999 166.5C218.799 167.3 226.666 171.5 230.499 173.5C231.166 179.5 232.399 191.9 231.999 193.5C231.499 195.5 220.499 211 219.499 212.5C218.499 214 199.499 224 194.999 225C190.499 226 189.499 223 189.499 219C189.499 215 190.999 217 194.999 208C198.999 199 192.499 191 191.999 189.5C191.499 188 184.499 183 178.999 176C174.599 170.4 177.166 163 178.999 160Z" fill="#7DBE57"/>
<path d="M221.999 150.5C222.399 148.1 231.833 146.167 236.499 145.5C240.999 145.5 238.499 150.5 243.999 162C249.499 173.5 240.999 199 239.999 199C239.199 199 237.333 195.333 236.499 193.5C236.833 191.333 237.499 185.2 237.499 178C237.499 170.8 233.833 168.667 231.999 168.5C229.833 167.5 225.099 165.3 223.499 164.5C221.499 163.5 220.999 159 221.999 157.5C222.999 156 221.499 153.5 221.999 150.5Z" fill="#7DBE57"/>
<path d="M197.999 119.5C197.599 118.3 182.833 113.667 175.499 111.5C172.499 110 180.499 109 187.499 109C194.499 109 205.999 115 208.999 116.5C211.999 118 213.999 118.5 221.999 125C228.399 130.2 226.666 130.167 224.999 129.5C223.166 128.833 218.899 127.5 216.499 127.5C213.499 127.5 215.999 129 213.999 131C211.999 133 200.999 127 199.999 125C198.999 123 198.499 121 197.999 119.5Z" fill="#7DBE57"/>
<path d="M121.999 167.5C118.799 169.5 114.999 166.667 113.499 165C110.299 163.8 112.166 180.833 113.499 189.5C112.699 190.7 117.499 201.667 119.999 207C119.599 209.8 129.166 219.833 133.999 224.5C133.999 223 133.599 219.3 131.999 216.5C129.999 213 127.999 203.5 128.499 201.5C128.999 199.5 128.999 195 134.999 191C140.999 187 141.499 178.5 141.499 172.5C141.499 166.5 137.999 167.5 136.499 167.5C134.999 167.5 129.499 165 126.999 164C124.499 163 125.999 165 121.999 167.5Z" fill="#7DBE57"/>
<path d="M149.499 118C145.499 115.2 139.166 120.833 136.499 124C133.299 124 126.833 133 123.999 137.5C120.399 139.1 115.499 153.167 113.499 160C115.166 159.167 119.999 157.3 125.999 156.5C131.999 155.7 133.833 157.5 133.999 158.5C141.999 165 154.999 159 161.499 157.5C167.999 156 170.499 149 172.499 141C174.499 133 161.999 125 159.499 124C156.999 123 154.499 121.5 149.499 118Z" fill="#7DBE57"/>
<path d="M130 198C134.4 196.4 140.5 184 143 178C142.833 176.833 142.5 173.7 142.5 170.5C142.5 166.5 137 166.5 136.5 166.5C136 166.5 130.5 165 127 163.5C123.499 162 125.5 164 123 166.5C120.5 169 116 166 114 164C112.4 162.4 114.666 160.667 116 160C119.5 159.167 127.3 157.5 130.5 157.5C134.5 157.5 134.5 159.5 135 161C135.4 162.2 140.166 162.167 142.5 162C145 161.833 152.2 160.9 161 158.5C172 155.5 172.5 145 173.5 141.5C174.3 138.7 171.833 134 170.5 132C170.5 130.4 165.166 125.667 162.5 123.5L149 115.5C144.5 114 175 108.5 174.5 109C174.1 109.4 174.333 111.167 174.5 112C177.5 113.333 185.1 116.3 191.5 117.5C199.5 119 198 123 199.5 127C201 131 210 131 213.5 131C216.3 131 217 129 217 128C219.166 128.833 224.4 130.6 228 131C231.6 131.4 235.833 139.833 237.5 144L221.5 149C220.5 149.833 218.9 151.7 220.5 152.5C222.1 153.3 221.166 156.5 220.5 158C220.333 160.5 221.8 165.9 229 167.5C238 169.5 237 176.5 237.5 178C238 179.5 236.5 193 236 194C235.6 194.8 238.5 199 240 201C235.5 208.5 224.5 225.1 216.5 231.5C206.5 239.5 184.5 242 173.5 242.5C162.5 243 134.5 229 136 227C137.5 225 124.5 200 130 198Z" fill="#506BAE" stroke="black"/>
<path d="M176.501 167.5C174.901 163.5 178.168 157.5 180.001 155C181.334 153.667 185.001 150.4 189.001 148C194.001 145 194.501 147 203.001 146.5C211.501 146 216.001 152.5 214.501 156C213.001 159.5 215.001 163 225.001 170C235.001 177 228.501 169 231.501 183.5C234.501 198 224.001 207.5 220.001 212C216.001 216.5 206.501 220.5 198.001 224C189.501 227.5 190.001 224.5 190.001 219.5C190.001 214.5 194.001 210 195.501 204.5C197.001 199 194.001 194 192.001 189.5C190.001 185 183.001 181 178.501 175.5C174.901 171.1 175.668 168.333 176.501 167.5Z" fill="#7DBE57" stroke="black"/>
<path d="M149.066 134.076C148.688 134.081 148.525 134.548 148.465 134.92C148.235 136.338 148.004 137.755 147.774 139.172C149.546 139.136 151.543 138.999 152.696 137.653C151.108 137.385 149.922 135.67 150.232 134.091C150.796 134.963 151.559 135.705 152.446 136.246C152.888 136.515 153.398 136.779 153.57 137.266C153.856 138.073 153.053 138.818 152.353 139.309C151.652 139.8 150.869 140.582 151.2 141.371C150.552 140.624 149.604 140.146 148.618 140.069C148.054 140.025 147.43 140.091 146.979 139.749C146.251 139.199 146.499 138.054 146.901 137.235C147.303 136.416 147.793 135.445 147.342 134.652C147.004 134.058 146.214 133.766 146.036 133.106C145.777 132.145 146.967 131.475 147.931 131.229C148.603 131.057 149.309 130.905 149.981 131.072C150.654 131.239 151.273 131.822 151.248 132.515C150.928 133.411 150.017 134.063 149.066 134.076ZM150.639 132.24C149.676 131.695 148.392 131.782 147.511 132.452C147.222 132.672 146.958 133.057 147.133 133.375C148.388 133.455 149.669 133.041 150.639 132.24Z" fill="#E62121"/>
<path d="M218.671 184.671C218.247 184.503 217.871 184.217 217.596 183.853C218.619 183.406 219.458 182.553 219.888 181.523C220.161 180.867 221.14 180.855 221.729 181.253C222.317 181.652 222.684 182.302 223.219 182.769C223.755 183.236 224.646 183.47 225.137 182.956C225.709 182.357 226.819 182.84 227.11 183.615C227.401 184.391 227.145 185.253 226.889 186.04C226.74 186.498 226.578 186.977 226.222 187.301C225.866 187.624 225.251 187.717 224.922 187.366C223.63 185.988 221.051 186.212 220.015 187.791C218.98 187.167 218.413 185.852 218.671 184.671ZM220.539 182.546C219.615 183.48 219.301 184.97 219.77 186.198C219.879 186.481 220.241 186.782 220.428 186.544C221.288 185.45 222.854 184.972 224.178 185.398C224.428 185.479 224.651 185.148 224.579 184.895C224.508 184.642 224.271 184.477 224.05 184.334C223.105 183.719 222.159 183.105 221.214 182.49C221.104 182.419 220.982 182.344 220.852 182.357C220.728 182.369 220.627 182.457 220.539 182.546ZM225.632 187.002C226.018 186.115 226.279 185.175 226.407 184.216C226.435 184.004 226.33 183.686 226.133 183.767C224.962 184.309 224.68 186.132 225.632 187.002Z" fill="#DBCFBB"/>
<defs>
<clipPath id="clip0_1696_3243">
<rect width="232.96" height="232.96" fill="white" transform="translate(76.4395 87.3601)"/>
</clipPath>
</defs>
</svg>
