<svg width="191" height="171" viewBox="0 0 191 171" fill="none" xmlns="http://www.w3.org/2000/svg">
<path d="M109.551 3.30224C100.706 12.3693 87.3038 19.6541 79.6074 28.3096C72.8393 35.9795 68.7247 44.9502 64.5132 53.7816C63.3735 56.2028 62.3176 58.6157 61.2617 61.0286C51.7717 82.8924 42.5092 106.372 21.8223 121.229C3.43754 134.369 -22.3518 138.413 -44.3052 132.249C-66.2587 126.084 -83.8209 110.252 -91.4355 91.125C-97.4264 76.0073 -97.2697 58.6424 -89.9669 43.6224C-82.5867 28.5201 -67.8667 16.0414 -50.1898 11.1626C-29.6228 5.47613 -5.40644 9.48033 11.5729 -2.32871C22.5678 -10.0452 26.6086 -21.7636 34.9042 -31.2975C39.8932 -37.0785 46.3026 -42.1068 53.9405 -44.7251C70.7002 -50.4066 95.6212 -45.1319 108.447 -35.0103C114.086 -30.58 117.712 -24.0145 118.229 -17.2153C119.031 -9.10405 115.211 -2.54529 109.551 3.30224Z" fill="#506BAE"/>
<path opacity="0.56" d="M130.661 137.228C118.303 141.036 108.135 126.465 98.3581 121.332C87.8774 115.868 78.4917 113.218 69.4971 113.135C51.6642 113.053 39.2282 127.955 28.9039 141.45C17.4064 156.435 4.97037 170.013 -14.7396 170.51C-19.0414 170.592 -25.0639 169.764 -28.9746 165.128C-35.8574 157.015 -33.1199 145.672 -31.0082 136.317C-24.5946 107.257 -18.885 61.888 -52.5171 48.9726C-57.6792 46.9856 -62.9977 44.9158 -66.2827 40.4451C-82.3949 18.34 -61.1988 2.11298 -42.6621 -4.92424C-24.1253 -11.9615 -3.32034 -16.2666 13.8086 -27.7745C32.0325 -40.0275 40.0103 -65.4443 61.2063 -73.3095C67.3071 -75.5448 73.1731 -74.9653 77.3185 -71.7364C82.5588 -67.6797 85.0617 -60.4769 86.4695 -55.5094C92.7267 -33.4871 75.676 -11.7131 83.1845 10.1437C88.0338 24.3009 100.626 33.9874 112.28 41.687C131.599 54.354 146.616 68.1801 147.007 94.2592C147.164 107.175 144.113 119.924 138.247 130.273C136.37 133.585 134.337 135.737 131.912 136.731C131.521 136.896 131.052 137.062 130.661 137.228Z" fill="#8A9CC9"/>
<path d="M-26.3916 3.85158C-26.7044 -10.2229 -26.1569 -25.0424 -21.1512 -38.3717C-16.5366 -50.542 -5.03911 -64.8648 8.41373 -65.6099C17.0955 -66.1067 21.3973 -54.7643 26.5594 -49.3001C59.4876 -14.114 110.327 -36.9643 148.104 -15.1075C154.752 -11.2991 160.697 -5.17262 162.652 2.7753C164.686 11.0544 162.026 19.8302 158.35 27.447C149.669 45.3298 136.137 58.6591 122.372 72.0712C110.249 83.8275 89.2872 96.0806 87.8793 115.536C87.3318 123.402 93.0415 130.108 94.6058 137.476C98.5947 156.766 78.8847 169.268 63.3201 170.758C45.2526 172.497 26.0901 164.797 13.8105 150.226C-2.2234 131.184 -6.99446 89.3745 -35.8555 86.1457C-38.6712 85.8145 -41.7998 85.9801 -44.068 84.2415C-47.353 81.7578 -47.5876 76.3763 -45.7887 72.568C-43.1294 66.7726 -38.4366 62.6331 -35.0734 57.3345C-25.453 41.8526 -26.0005 22.7279 -26.3916 3.85158Z" fill="#506BAE"/>
<path d="M163.589 73.1473C169.636 73.1473 174.539 67.9579 174.539 61.5565C174.539 55.1552 169.636 49.9658 163.589 49.9658C157.541 49.9658 152.639 55.1552 152.639 61.5565C152.639 67.9579 157.541 73.1473 163.589 73.1473Z" stroke="#506BAE" stroke-width="3" stroke-miterlimit="10"/>
<path d="M177.355 82.7511C179.947 82.7511 182.048 80.5271 182.048 77.7836C182.048 75.0402 179.947 72.8162 177.355 72.8162C174.763 72.8162 172.662 75.0402 172.662 77.7836C172.662 80.5271 174.763 82.7511 177.355 82.7511Z" stroke="#8A9CC9" stroke-width="1.2857" stroke-miterlimit="10"/>
<path d="M185.959 70.8292C187.946 70.8292 189.557 69.1241 189.557 67.0208C189.557 64.9175 187.946 63.2124 185.959 63.2124C183.972 63.2124 182.361 64.9175 182.361 67.0208C182.361 69.1241 183.972 70.8292 185.959 70.8292Z" stroke="#506BAE" stroke-width="0.985" stroke-miterlimit="10"/>
</svg>
