<svg width="215" height="148" viewBox="0 0 215 148" fill="none" xmlns="http://www.w3.org/2000/svg">
<path d="M239.551 -19.6978C230.706 -10.6307 217.304 -3.34587 209.607 5.30957C202.839 12.9795 198.725 21.9502 194.513 30.7816C193.373 33.2028 192.318 35.6157 191.262 38.0286C181.772 59.8924 172.509 83.3718 151.822 98.2288C133.438 111.369 107.648 115.413 85.6948 109.249C63.7413 103.084 46.1791 87.2516 38.5645 68.125C32.5736 53.0073 32.7303 35.6424 40.0331 20.6224C47.4133 5.52014 62.1333 -6.9586 79.8102 -11.8374C100.377 -17.5239 124.594 -13.5197 141.573 -25.3287C152.568 -33.0452 156.609 -44.7636 164.904 -54.2975C169.893 -60.0785 176.303 -65.1068 183.941 -67.7251C200.7 -73.4066 225.621 -68.1319 238.447 -58.0103C244.086 -53.58 247.712 -47.0145 248.229 -40.2153C249.031 -32.1041 245.211 -25.5453 239.551 -19.6978Z" fill="#506BAE"/>
<path opacity="0.56" d="M260.661 114.228C248.303 118.036 238.135 103.465 228.358 98.3318C217.877 92.8676 208.492 90.2183 199.497 90.1355C181.664 90.0527 169.228 104.955 158.904 118.45C147.406 133.435 134.97 147.013 115.26 147.51C110.959 147.592 104.936 146.764 101.025 142.128C94.1426 134.015 96.8801 122.672 98.9918 113.317C105.405 84.2573 111.115 38.888 77.4829 25.9726C72.3208 23.9856 67.0023 21.9158 63.7173 17.4451C47.6051 -4.66003 68.8012 -20.887 87.3379 -27.9242C105.875 -34.9615 126.68 -39.2666 143.809 -50.7745C162.032 -63.0275 170.01 -88.4443 191.206 -96.3095C197.307 -98.5448 203.173 -97.9653 207.318 -94.7364C212.559 -90.6797 215.062 -83.4769 216.47 -78.5094C222.727 -56.4871 205.676 -34.7131 213.185 -12.8563C218.034 1.30092 230.626 10.9874 242.28 18.687C261.599 31.354 276.616 45.1801 277.007 71.2592C277.164 84.1745 274.113 96.9243 268.247 107.273C266.37 110.585 264.337 112.737 261.912 113.731C261.521 113.896 261.052 114.062 260.661 114.228Z" fill="#8A9CC9"/>
<path d="M103.608 -19.1484C103.296 -33.2229 103.843 -48.0424 108.849 -61.3717C113.463 -73.542 124.961 -87.8648 138.414 -88.6099C147.096 -89.1067 151.397 -77.7643 156.559 -72.3001C189.488 -37.114 240.327 -59.9643 278.104 -38.1075C284.752 -34.2991 290.697 -28.1726 292.652 -20.2247C294.686 -11.9456 292.026 -3.16978 288.35 4.44697C279.669 22.3298 266.137 35.6591 252.372 49.0712C240.249 60.8275 219.287 73.0806 217.879 92.5364C217.332 100.402 223.041 107.108 224.606 114.476C228.595 133.766 208.885 146.268 193.32 147.758C175.253 149.497 156.09 141.797 143.811 127.226C127.777 108.184 123.006 66.3745 94.1445 63.1457C91.3288 62.8145 88.2002 62.9801 85.932 61.2415C82.647 58.7578 82.4124 53.3763 84.2113 49.568C86.8706 43.7726 91.5634 39.6331 94.9266 34.3345C104.547 18.8526 103.999 -0.27211 103.608 -19.1484Z" fill="#506BAE"/>
<path d="M59.9959 -39.2426C52.9506 -47.5757 40.0824 -45.9866 31.1534 -42.684C17.6844 -37.7513 -1.06731 -26 6.09519 -7.86465C6.99114 -5.6404 8.22973 -3.49066 9.72036 -1.69813C13.6685 3.18861 19.5067 6.03892 25.4515 6.86274C30.5247 7.61152 36.2231 7.16598 40.8542 4.53344C43.4948 3.05198 45.5412 0.716994 46.3283 -2.40249C46.7118 -3.92224 46.8334 -5.68743 46.7635 -7.33536C46.633 -8.74334 45.6413 -10.909 46.6847 -12.1564C48.4237 -14.2356 51.8997 -13.2528 54.2075 -14.0571C57.3165 -15.1491 60.2748 -17.569 62.0091 -20.5921C65.4575 -26.5583 64.4528 -34.1263 59.9959 -39.2426Z" fill="#8A9CC9"/>
</svg>
